<svg id="main-telephone" xmlns="http://www.w3.org/2000/svg" viewBox="0 0 464.21 658.73"><title>main - téléphone</title><path d="M202.18,400.65a24.79,24.79,0,0,1-15.92-6.21c-7.22-6.3-11.28-16.68-12.05-30.87-.11-2.06-.23-5-.37-8.5-.18-4.38-.39-9.68-.67-15.37a1,1,0,0,1,1-1.1,1,1,0,0,1,1.1,1c.29,5.7.5,11,.67,15.39.14,3.51.26,6.42.37,8.47.74,13.58,4.55,23.46,11.31,29.38a22.76,22.76,0,0,0,15.27,5.7c1.1,0,105.28-3.45,137.28-6.1,8-.66,14.38-3.49,19-8.42a1,1,0,0,1,1.52,1.43c-5,5.32-11.87,8.37-20.37,9.07C308.27,397.18,204,400.6,203,400.63,202.93,400.63,202.65,400.65,202.18,400.65Z" transform="translate(-125.69 -28.49)" fill="#203c83"/><path d="M367.23,335.56a1,1,0,0,1-1-1c-3.37-77.24-11.25-259-11.66-278.87C354,31.86,332.9,30.62,332,30.58L185.24,38.42c-9.45,0-16.32,4.85-20.48,14.42a36.79,36.79,0,0,0-2.86,16.6c1.25,26,7.2,149.42,11.13,229.24a1,1,0,0,1-1,1.09,1,1,0,0,1-1.1-1C167,219,161.06,95.58,159.81,69.54a38.87,38.87,0,0,1,3-17.53c3.11-7.15,9.51-15.67,22.34-15.67L332,28.49c.34,0,24.08,1.39,24.62,27.16.41,19.83,8.29,201.59,11.66,278.82a1,1,0,0,1-1,1.09Z" transform="translate(-125.69 -28.49)" fill="#203c83"/><path d="M192.5,361.46a6.71,6.71,0,0,1-4.2-1.43,7.61,7.61,0,0,1-2.51-5.68c-.88-13.94-12.51-293.2-12.63-296a8.12,8.12,0,0,1,1.76-6c2-2.46,5.43-3.81,10.21-4L332,40.52c.2,0,4.47-.16,7.23,2.46a7.44,7.44,0,0,1,2.24,5.54c0,4,13.21,280.27,14,297.47a5.69,5.69,0,0,1-2.39,5,15.13,15.13,0,0,1-7.41,2.1c-10.37.72-151.21,8.29-152.63,8.36A4.38,4.38,0,0,1,192.5,361.46ZM332.23,42.6h-.14L185.22,50.44c-4.13.17-7,1.26-8.66,3.22a6,6,0,0,0-1.33,4.45c.13,2.94,11.76,282.18,12.64,296.1a5.65,5.65,0,0,0,1.73,4.18,4.72,4.72,0,0,0,3.27.95c1.5-.08,142.33-7.64,152.68-8.37a13.14,13.14,0,0,0,6.38-1.74,3.58,3.58,0,0,0,1.48-3.15c-.84-17.38-14-293.34-14.05-297.54a5.43,5.43,0,0,0-1.59-4.05C335.9,42.71,332.92,42.6,332.23,42.6ZM185.18,49.4h0Z" transform="translate(-125.69 -28.49)" fill="#203c81"/><path d="M276.82,390.87a14.29,14.29,0,1,1,14.46-14.29A14.39,14.39,0,0,1,276.82,390.87Zm0-26.48a12.2,12.2,0,1,0,12.37,12.19A12.3,12.3,0,0,0,276.82,364.39Z" transform="translate(-125.69 -28.49)" fill="#203c83"/><path d="M165.94,341.75a5.08,5.08,0,0,1-1.66-.3c-6.71-2.33-16.29-19.08-18.11-24l-.3-.8.73-.45c.93-.58,9.24-5.54,12.56-1.67C161.32,317,171,331.15,169.9,338a4.27,4.27,0,0,1-2,3.16A3.73,3.73,0,0,1,165.94,341.75Zm-17.48-24.19c2.39,5.59,11,20,16.51,21.91a2.09,2.09,0,0,0,1.86-.06,2.26,2.26,0,0,0,1-1.7c.85-5.39-7.37-18.46-10.25-21.8C155.94,314,150.92,316.2,148.46,317.56Z" transform="translate(-125.69 -28.49)" fill="#203c83"/><path d="M588.85,639.84a1,1,0,0,1-.93-.58c-2.34-4.64-57.23-113.81-62.07-127.65-4.6-13.14-12.3-43-18.86-83.81-6.53-40.66-30.73-115.21-48.61-141-16.1-23.26-20.26-34.7-23.29-43.06-.53-1.47-1-2.85-1.56-4.2-4.08-10.38-14.89-26.73-26.29-39.77-12.29-14-14.12-43.63-14.19-44.88-.48-6.57-3-24.5-8.69-28.26a3.8,3.8,0,0,0-3.52-.43c-11.08,3.81-19.83,18.2-19.5,32.09.35,14.81,1,34.63,1,34.83.19,4.39,1,16.51,2.68,19.78s20.56,43.14,22.72,50.7c2.22,7.78,4.56,26.2,3.17,37.35a1.07,1.07,0,0,1-1.17.91,1,1,0,0,1-.91-1.17c1.34-10.73-1-29.09-3.1-36.52-2-7-20.28-45.75-22.58-50.34-2.17-4.33-2.87-20-2.9-20.63,0-.21-.7-20-1-34.87-.35-15,8.84-30,20.92-34.11a5.83,5.83,0,0,1,5.35.66c7.73,5.1,9.55,28.86,9.62,29.87,0,.31,1.86,30.13,13.68,43.64,11.55,13.2,22.52,29.8,26.67,40.38.53,1.36,1,2.76,1.58,4.24,3,8.25,7.1,19.55,23,42.58,19.76,28.54,43,104.57,49,141.9,6.54,40.7,14.2,70.39,18.77,83.45,4.8,13.71,61.4,126.27,62,127.41a1,1,0,0,1-.46,1.4A1,1,0,0,1,588.85,639.84Z" transform="translate(-125.69 -28.49)" fill="#203c83"/><path d="M388.85,278.85a1,1,0,0,1-.88-.48c-1.34-2.07-15.82-14.43-25.23-22.24a1,1,0,1,1,1.34-1.61c2.42,2,23.7,19.7,25.65,22.71a1,1,0,0,1-.88,1.61Z" transform="translate(-125.69 -28.49)" fill="#203c83"/><path d="M428,321.19c-2,0-10.26-4.59-13.5-8.19-3-3.32-17.36-11.38-17.5-11.46a1,1,0,1,1,1-1.83c.6.34,14.82,8.31,18,11.89,3,3.32,10.66,7.44,11.95,7.49a1.06,1.06,0,0,1,1,1.07A1,1,0,0,1,428,321.19Z" transform="translate(-125.69 -28.49)" fill="#203c83"/><path d="M445.29,361.26a1.07,1.07,0,0,1-.47-.11C421.58,349.35,394.28,320.27,394,320a1,1,0,1,1,1.53-1.43c.27.29,27.32,29.1,50.23,40.72a1,1,0,0,1-.47,2Z" transform="translate(-125.69 -28.49)" fill="#203c83"/><path d="M365.85,290.7a1,1,0,0,1-1-1c0-4.21,4.62-13.33,4.82-13.72a1,1,0,1,1,1.86.95c-1.28,2.51-4.59,9.69-4.59,12.77A1,1,0,0,1,365.85,290.7Z" transform="translate(-125.69 -28.49)" fill="#203c83"/><path d="M366.37,308.47a1.06,1.06,0,0,1-.25,0,1,1,0,0,1-.76-1.27c.18-.71,3.83-12.42,5.47-15.88s7.36-6.62,7.6-6.75a1,1,0,0,1,1,1.85c-1.47.78-5.53,3.34-6.69,5.8-1.54,3.26-5.16,14.8-5.33,15.48A1,1,0,0,1,366.37,308.47Z" transform="translate(-125.69 -28.49)" fill="#203c83"/><path d="M361,399.58a1,1,0,0,1-1-.9c0-.29-1-7.29-.53-28.56.66-32.44,19.43-70.79,19.62-71.18a1,1,0,1,1,1.87.93c-.19.38-18.75,38.33-19.41,70.29-.43,21,.5,28.17.51,28.24a1,1,0,0,1-.89,1.18Z" transform="translate(-125.69 -28.49)" fill="#203c83"/><path d="M435.19,496.28a1,1,0,0,1-.66-.23c-19.72-15.92-49.69-54.14-50-54.53a1,1,0,0,1,1.65-1.29c.3.38,30.12,38.42,49.66,54.19a1,1,0,0,1-.66,1.86Z" transform="translate(-125.69 -28.49)" fill="#203c83"/><path d="M325.86,411a1,1,0,0,1-.94-1.5c.71-1.46,7-14.28,10.68-16.47a1,1,0,0,1,1.08,1.79c-2.36,1.42-7.2,10.1-9.88,15.59A1,1,0,0,1,325.86,411Z" transform="translate(-125.69 -28.49)" fill="#203c83"/><path d="M317.07,410.82a1,1,0,0,1-.24,0,1,1,0,0,1-.78-1.26c.33-1.4,3.36-13.77,7.5-15.93a1,1,0,0,1,1,1.85c-2.48,1.3-5.26,9.62-6.44,14.56A1,1,0,0,1,317.07,410.82Z" transform="translate(-125.69 -28.49)" fill="#203c83"/><path d="M297.73,411.26h-.16a1,1,0,0,1-.87-1.19c.86-5.58,2.72-15,5.56-15.51a1,1,0,0,1,.36,2.06c-1,.55-2.79,6.86-3.85,13.76A1,1,0,0,1,297.73,411.26Z" transform="translate(-125.69 -28.49)" fill="#203c83"/><path d="M164.73,248.67c-2.9,0-7.3-.13-13.35-.66-13.3-1.16-21.84-6.28-24.68-14.82-2.94-8.82.66-17.1,9.63-22.15,8.61-4.84,30.38-.31,31.3-.11a1,1,0,1,1-.43,2c-.22,0-21.92-4.57-29.85-.11-8.15,4.58-11.31,11.75-8.67,19.67,3.24,9.71,14.23,12.65,22.88,13.4,11.75,1,17.26.53,17.32.52a1.06,1.06,0,0,1,1.14.94,1,1,0,0,1-.94,1.14C169,248.54,167.56,248.67,164.73,248.67Z" transform="translate(-125.69 -28.49)" fill="#203c83"/><path d="M168.24,342.16c-4.08,0-10.15-2.64-18.64-17.67-11.22-19.87-14.07-32.14-8.71-37.49,4.89-4.9,20.26-11.51,28.79-14.53a1,1,0,0,1,.7,2c-9,3.18-23.6,9.63-28,14s-1.49,16.31,9.06,35c10.41,18.44,16.4,17,19.63,16.18l.58-.14c5.86-1.28,7.47-11,7.81-18.89.8-18.76-16.46-26.8-16.64-26.88a1,1,0,1,1,.86-1.9c.19.08,18.72,8.72,17.86,28.87-.53,12.57-3.68,19.58-9.36,20.82l-.62.14A13.37,13.37,0,0,1,168.24,342.16Z" transform="translate(-125.69 -28.49)" fill="#203c83"/><path d="M464.11,687.22a1,1,0,0,1-1-.73c-.23-.76-23.94-76-52-102-29.41-27.25-65.83-81.41-67.9-89-1.41-5.16-27.85-43.81-43.65-66.9-6.74-9.85-12.19-17.81-14.25-21C276,412,249.69,414.41,232.08,416c-6.77.62-12.12,1.11-13.73,1.48-3.91.92-10.26,4.46-20.8,10.32-4.88,2.72-11,6.1-18.14,10-26,14-38.8,5-43.07.5a9.33,9.33,0,0,1-2.31-8.49c1-5.26,5.49-10.32,9.08-12,5.14-2.4,43.8-23.45,44.19-23.67a1,1,0,0,1,1,1.84c-1.59.87-39.11,21.3-44.31,23.72-3.13,1.46-7.05,6-7.91,10.49a7.22,7.22,0,0,0,1.78,6.66c3.94,4.18,15.78,12.44,40.56-.9,7.17-3.86,13.24-7.24,18.12-10,11.06-6.15,17.15-9.54,21.34-10.53,1.76-.41,6.9-.88,14-1.53,16.93-1.55,45.27-4.13,53.3-8.64l.88-.49.52.86c1.47,2.42,7.31,11,14.71,21.77,22.37,32.69,42.56,62.45,43.94,67.53,2,7.25,38.81,61.61,67.3,88s52.32,102.14,52.55,102.9a1,1,0,0,1-.69,1.31A1,1,0,0,1,464.11,687.22Z" transform="translate(-125.69 -28.49)" fill="#203c83"/><path d="M216.79,409.77a1,1,0,0,1-.62-.21c-1.08-.81-6.23-7.56-7.78-9.61a1,1,0,1,1,1.67-1.26c3.14,4.15,6.76,8.72,7.37,9.2a1,1,0,0,1-.64,1.88Z" transform="translate(-125.69 -28.49)" fill="#203c83"/><path d="M219.15,417.36a1,1,0,0,1-.56-1.93c2.43-1.54,5.08-3.9,5.11-5,0-.07,0-.17-.2-.32-2.88-2.09-6.45-5.15-6.6-5.28a1,1,0,0,1,1.36-1.59s3.66,3.13,6.47,5.18a2.39,2.39,0,0,1,1.06,2.08c-.09,2.77-5.08,6.07-6.08,6.71A1.06,1.06,0,0,1,219.15,417.36Z" transform="translate(-125.69 -28.49)" fill="#203c83"/><path d="M283.44,407.69a1,1,0,0,1-.83-1.68,15.94,15.94,0,0,0,2.92-9.25,1,1,0,0,1,1-1.09,1,1,0,0,1,1.09,1,17.78,17.78,0,0,1-3.35,10.61A1,1,0,0,1,283.44,407.69Z" transform="translate(-125.69 -28.49)" fill="#203c83"/><path d="M409.92,217a1,1,0,0,1-.07-2.09,33.89,33.89,0,0,0,9.42-2.19,1,1,0,0,1,.82,1.93A35.43,35.43,0,0,1,410,217Z" transform="translate(-125.69 -28.49)" fill="#203c83"/><path d="M409.72,226.33c-1.59,0-2.86-.08-3.18-.1a1,1,0,0,1-1-1.12,1,1,0,0,1,1.12-1c2.76.2,7.69.17,9.13-.72a1,1,0,1,1,1.09,1.78C415.41,226.14,412.19,226.33,409.72,226.33Z" transform="translate(-125.69 -28.49)" fill="#203c83"/><path d="M388.54,169.41c-3,0-6-.73-7.1-3.39-2-4.61-3.23-32.89,1.79-37.91.29-.41,1.69-2.12,3.17-2.23a1.86,1.86,0,0,1,1.53.57c1.49,1.49,5.71,13.16,6.23,20.17s2.16,20.46,2.17,20.6l.11.88-.85.25A27.78,27.78,0,0,1,388.54,169.41Zm-2.09-41.48a5.88,5.88,0,0,0-1.64,1.55c-3.83,3.84-3.67,30.53-1.44,35.72,1.28,3,7.68,2.12,10.78,1.38-.38-3.15-1.63-13.77-2.07-19.79C391.54,139.52,387.3,128.86,386.45,127.93Z" transform="translate(-125.69 -28.49)" fill="#203c83"/></svg>