<svg id="main-question" xmlns="http://www.w3.org/2000/svg" viewBox="0 0 243.35 665.97"><title>main - question</title><path d="M453.07,376.45a1.24,1.24,0,0,1-1.22-1c-.48-3-1.47-8.47-2.73-15.33-5.34-29.16-15.28-83.44-14.61-109.47.78-14.84,1.67-62.94.83-81.59-.13-2.85-.3-6.4-.5-10.45-1-21.82-2.81-58.33-2.81-82,0-20.5-.58-35.53-8.07-42.26-3.4-3.06-8.13-4.21-14.48-3.53-21.22,2.27-21.2,39.71-21.17,75.91v3.71a380.71,380.71,0,0,1-2.53,42.1,531.65,531.65,0,0,0-3.24,60.19c0,51.56-8.42,80.6-8.51,80.89a1.24,1.24,0,0,1-2.37-.7c.08-.29,8.41-29,8.41-80.19a533.76,533.76,0,0,1,3.26-60.44,378.51,378.51,0,0,0,2.52-41.85v-3.71c0-37.29-.06-75.86,23.38-78.37,7.08-.76,12.45.6,16.4,4.15,8.26,7.42,8.89,23,8.89,44.11,0,23.61,1.75,60.09,2.8,81.88.2,4.06.37,7.61.5,10.46.85,18.71,0,67-.83,81.8-.66,25.74,9.25,79.85,14.57,108.92,1.26,6.88,2.26,12.32,2.74,15.39a1.24,1.24,0,0,1-1,1.42Z" transform="translate(-221.77 -28.1)" fill="#203c83"/><path d="M435.75,694.07a1.24,1.24,0,0,1-1.23-1.1c-.51-4.52-12.36-111-8.19-123.45,1-2.87,2.79-7.39,5.12-13.12,7.7-19,20.59-50.72,21.22-71.5.77-25.33,2.3-52.19,8.28-77,4.43-18.35.07-22.86-9.5-32.73-2.49-2.57-5.31-5.49-8.39-9.07-12.49-14.57-45.59-47.26-59.72-61.22-2.69-2.65-4.74-4.68-5.9-5.84-6.59-6.58-22-13.07-48.64-20.41l-3.33-.93c-16.72-4.65-32.51-9-40.69-3.82-2.95,1.88-4.74,4.93-5.47,9.32-3.68,22.06,20.84,35.11,31.54,39.7,37.17,15.93,37.92,18.2,38.33,19.41s8.86,18.76,16.32,34.21c7.07,14.66,13.75,28.51,15.3,32,3.11,7,30.42,38.6,41.78,49.09a1.24,1.24,0,1,1-1.68,1.82c-10.46-9.66-39-42.24-42.37-49.91-1.53-3.45-8.51-17.92-15.27-31.92-9.65-20-16-33.2-16.43-34.5-.49-.8-5.13-4.28-37-17.92-11.25-4.82-37-18.6-33-42.38.84-5.06,3.06-8.76,6.58-11,9.11-5.8,25.42-1.27,42.69,3.53l3.33.92c27,7.46,42.84,14.15,49.74,21,1.16,1.16,3.21,3.19,5.89,5.83,14.16,14,47.31,46.72,59.86,61.37,3,3.53,5.82,6.41,8.28,9,9.59,9.9,14.88,15.36,10.13,35-5.93,24.57-7.45,51.27-8.22,76.47-.65,21.23-13.64,53.23-21.4,72.36-2.31,5.69-4.13,10.18-5.06,13-3.2,9.58,4,84.25,8.3,122.39a1.24,1.24,0,0,1-1.09,1.37Z" transform="translate(-221.77 -28.1)" fill="#203c83"/><path d="M405.8,415.32c-6.93,0-19.08-5.5-20.59-6.2a1.24,1.24,0,1,1,1-2.25c4.36,2,16.66,7,21.13,5.81a1.24,1.24,0,0,1,.63,2.39A8.74,8.74,0,0,1,405.8,415.32Z" transform="translate(-221.77 -28.1)" fill="#203c83"/><path d="M407.39,427.18h-.15c-5.44-.64-18.89-10.84-20.41-12a1.24,1.24,0,1,1,1.51-2c4,3,15.16,11,19.19,11.51a1.24,1.24,0,0,1-.14,2.47Z" transform="translate(-221.77 -28.1)" fill="#203c83"/><path d="M412.65,479.16a1.23,1.23,0,0,1-.74-.25c-6.29-4.72-28.44-39.08-29.38-40.54a1.24,1.24,0,1,1,2.08-1.34c7.88,12.24,24,36.33,28.78,39.9a1.24,1.24,0,0,1-.74,2.23Z" transform="translate(-221.77 -28.1)" fill="#203c83"/><path d="M377,418.47a1.24,1.24,0,0,1-1-1.92q1.82-2.77,3.8-5.56a1.24,1.24,0,0,1,2,1.44q-2,2.75-3.76,5.48A1.24,1.24,0,0,1,377,418.47Z" transform="translate(-221.77 -28.1)" fill="#203c83"/><path d="M363.7,442.4a1.22,1.22,0,0,1-.51-.11,1.24,1.24,0,0,1-.61-1.64c1.39-3,2.9-6.09,4.48-9.07a1.24,1.24,0,0,1,2.19,1.16c-1.56,2.94-3,5.95-4.42,8.95A1.24,1.24,0,0,1,363.7,442.4Z" transform="translate(-221.77 -28.1)" fill="#203c83"/><path d="M349.23,515.67a1.24,1.24,0,0,1-1.22-1c-.09-.59-2.18-14.61,2.64-37.42a1.24,1.24,0,0,1,2.42.51c-4.72,22.32-2.64,36.39-2.62,36.53a1.24,1.24,0,0,1-1,1.41Z" transform="translate(-221.77 -28.1)" fill="#203c83"/><path d="M416.36,105.13a1.23,1.23,0,0,1-.65-.19c-5.65-3.5-9.6-.79-9.76-.67a1.24,1.24,0,0,1-1.46-2c.22-.16,5.4-3.84,12.52.57a1.24,1.24,0,0,1-.65,2.29Z" transform="translate(-221.77 -28.1)" fill="#203c83"/><path d="M422.55,114.41a1.2,1.2,0,0,1-.44-.08c-9.4-3.53-22.33-.3-22.46-.27a1.24,1.24,0,0,1-.61-2.4c.56-.14,13.8-3.45,23.95.35a1.24,1.24,0,0,1-.44,2.4Z" transform="translate(-221.77 -28.1)" fill="#203c83"/><path d="M399,185.56a1.24,1.24,0,0,1-.49-2.38c.19-.08,4.72-2,8.44-1.32a1.24,1.24,0,0,1-.44,2.44c-3-.54-7,1.14-7,1.16A1.24,1.24,0,0,1,399,185.56Z" transform="translate(-221.77 -28.1)" fill="#203c83"/><path d="M420.48,204c-3.86,0-9.62-.35-14.44-2.08-7.05-2.54-11.21-.47-11.38-.38a1.24,1.24,0,0,1-1.16-2.19c.21-.11,5.22-2.69,13.38.24,7.38,2.66,17.62,1.79,17.72,1.79a1.24,1.24,0,0,1,.22,2.47C424.65,203.83,423,204,420.48,204Z" transform="translate(-221.77 -28.1)" fill="#203c83"/><path d="M412.34,211.86a1.24,1.24,0,0,1-.16-2.46c1.79-.24,4.7-.89,5.58-1.6a1.24,1.24,0,0,1,1.55,1.93c-1.73,1.38-6,2-6.8,2.12Z" transform="translate(-221.77 -28.1)" fill="#203c83"/><path d="M402.44,321.07a1.24,1.24,0,0,1-1.18-1.62c.19-.59,4.85-14.65,13.37-21.91a1.24,1.24,0,0,1,1.6,1.89c-8,6.81-12.57,20.65-12.62,20.79A1.24,1.24,0,0,1,402.44,321.07Z" transform="translate(-221.77 -28.1)" fill="#203c83"/><path d="M410.79,328.49a1.24,1.24,0,0,1-1.07-1.85c.86-1.5,8.42-14.64,9.36-15.9a1.24,1.24,0,1,1,2,1.48c-.65.86-5.86,9.83-9.2,15.65A1.24,1.24,0,0,1,410.79,328.49Z" transform="translate(-221.77 -28.1)" fill="#203c83"/><path d="M413.89,332.21a1.24,1.24,0,0,1-.79-2.19c1.27-1,12.56-10.18,17.8-10.18a1.24,1.24,0,0,1,0,2.47c-3.7,0-13,6.94-16.23,9.62A1.24,1.24,0,0,1,413.89,332.21Z" transform="translate(-221.77 -28.1)" fill="#203c83"/><path d="M374.6,281.78a1.24,1.24,0,0,1-1.13-.74c-.09-.21-9.31-21.37-14.46-29.86-5-8.31-15.64-16.58-19.7-19.08-3.77-2.32-26.13-3.74-31.86-.59-5.53,3-11.11,18.57-11.11,24.28a118.34,118.34,0,0,0,1.53,14.65,1.24,1.24,0,0,1-2.44.41,118.23,118.23,0,0,1-1.56-15.05c0-5.53,5.5-22.66,12.4-26.45,6.48-3.56,29.95-2.06,34.35.65s15.19,11.13,20.52,19.9,14.24,29.28,14.62,30.16a1.24,1.24,0,0,1-.64,1.63A1.27,1.27,0,0,1,374.6,281.78Z" transform="translate(-221.77 -28.1)" fill="#203c83"/><path d="M320.36,241.4a18.4,18.4,0,0,1-2.57-.16,1.24,1.24,0,0,1,.37-2.45c.06,0,5.69.8,8.63-1.59a1.24,1.24,0,1,1,1.57,1.91C326,241,322.66,241.4,320.36,241.4Z" transform="translate(-221.77 -28.1)" fill="#203c83"/><path d="M357.83,435.85h-.27c-20.8-.22-25.68-22.83-29.25-39.34-3.86-17.91-18.6-70.35-18.75-70.88A1.24,1.24,0,0,1,312,325c.15.53,14.9,53,18.79,71,4.39,20.34,9.45,37.2,26.85,37.39h.25c5.68,0,10.1-2.1,13.16-6.23,5-6.75,5.34-17.68,3.14-24.54a1.24,1.24,0,1,1,2.36-.75c2.38,7.44,2,19.35-3.5,26.76C369.49,433.35,364.26,435.85,357.83,435.85Z" transform="translate(-221.77 -28.1)" fill="#203c83"/><path d="M278.59,688.71a1.24,1.24,0,0,1-1.23-1.13c-.1-1.16-10-116.05-19.32-142-3.76-10.46-8.83-22.11-13.74-33.37-7.58-17.39-14.12-32.41-14.38-39.6v-.32c-.42-11.67-1.68-47.18-7-68.31-5.41-21.62,9.74-55.48,10.38-56.91.27-.44,4.61-7,12.35-7.85,5.74-.62,11.68,2,17.7,7.89,11.32,11,26.89,34.41,38.26,51.47,6,9,10.69,16,12.49,17.84,1,1,2.29,2.27,3.85,3.8,7,6.9,18.78,18.44,23.89,25.1.6.79,1.21,1.55,1.81,2.29,5.49,6.86,10.68,13.33-1,24.72-11.25,11-35.12-13-45.32-23.25-1.42-1.42-2.54-2.55-3.06-3-4.22-3.57-22.08-21.43-30.87-34.92-2.41-3.7-6-8.79-9.73-14.19-9.48-13.57-20.11-28.79-22.95-36.27-4,11.88-8.61,29.84-5.4,42.68,5.35,21.38,6.62,57.09,7,68.82v.32c.24,6.72,7,22.26,14.18,38.7,4.92,11.3,10,23,13.8,33.52,9.43,26.25,19.05,137.89,19.46,142.62a1.24,1.24,0,0,1-1.13,1.34ZM231.89,357.39a1.24,1.24,0,0,1,.67.86c1.29,6,13.41,23.36,23.15,37.31,3.78,5.41,7.35,10.52,9.78,14.25,8.67,13.31,26.74,31.29,30.39,34.38.61.51,1.7,1.61,3.22,3.13,8,8,32.34,32.48,41.84,23.22,10.07-9.82,6.38-14.42.8-21.4-.61-.76-1.23-1.53-1.84-2.33-5-6.52-16.69-18-23.67-24.84-1.56-1.53-2.89-2.84-3.86-3.81-2-2-6.52-8.79-12.8-18.22-11.31-17-26.79-40.2-37.92-51.07-5.45-5.32-10.73-7.76-15.67-7.2-6.57.72-10.44,6.52-10.48,6.58S233.87,351.88,231.89,357.39Z" transform="translate(-221.77 -28.1)" fill="#203c83"/><path d="M246.52,361.91a1.24,1.24,0,0,1-.87-2.11c.46-.46,4.53-4.5,6.51-5.49a1.24,1.24,0,0,1,1.11,2.21c-1.22.61-4.25,3.41-5.87,5A1.23,1.23,0,0,1,246.52,361.91Z" transform="translate(-221.77 -28.1)" fill="#203c83"/><path d="M250.85,366.86a1.24,1.24,0,0,1-1.14-1.73c1-2.34,5.37-6.45,5.86-6.91a1.24,1.24,0,1,1,1.69,1.81c-1.72,1.61-4.68,4.68-5.28,6.08A1.24,1.24,0,0,1,250.85,366.86Z" transform="translate(-221.77 -28.1)" fill="#203c83"/><path d="M278.69,409.86a1.24,1.24,0,0,1-1.17-1.63c.69-2.07,3.67-5.1,4-5.43a1.24,1.24,0,0,1,1.75,1.75c-1.12,1.12-3,3.32-3.41,4.47A1.24,1.24,0,0,1,278.69,409.86Z" transform="translate(-221.77 -28.1)" fill="#203c83"/><path d="M279.93,414.19a1.24,1.24,0,0,1-1.24-1.24c0-3.14,3-6.87,3.38-7.29a1.24,1.24,0,0,1,1.9,1.58c-.78.94-2.81,3.8-2.81,5.71A1.24,1.24,0,0,1,279.93,414.19Z" transform="translate(-221.77 -28.1)" fill="#203c83"/><path d="M248.06,388.82a1.24,1.24,0,0,1-1.06-.59c-3.2-5.23-18-13.4-18.1-13.48a1.24,1.24,0,1,1,1.19-2.17c.63.35,15.49,8.58,19,14.36a1.24,1.24,0,0,1-1.06,1.88Z" transform="translate(-221.77 -28.1)" fill="#203c83"/><path d="M252.39,394.7a1.23,1.23,0,0,1-.87-.36c-1.08-1.05-11.46-5.08-20.88-8.37a1.24,1.24,0,1,1,.82-2.33c3.3,1.15,19.86,7,21.81,9a1.24,1.24,0,0,1-.87,2.11Z" transform="translate(-221.77 -28.1)" fill="#203c83"/><path d="M253.32,401.51a1.24,1.24,0,0,1-1-.55c-3.08-4.62-18.45-5.49-20.65-4.48a1.24,1.24,0,0,1-2-1.49c.38-.64,1.23-1.24,4.84-1.32,6-.19,16.78,1.33,19.83,5.91a1.24,1.24,0,0,1-1,1.92Zm-21.52-5.24h0Z" transform="translate(-221.77 -28.1)" fill="#203c83"/><path d="M263.84,350.15a1.24,1.24,0,0,1-1-.57c-.38-.6-9.4-14.78-11.59-22.28-2-6.72-3-26.75,6.14-32,8.24-4.75,19.63-4.81,20.11-4.81a1.24,1.24,0,1,1,0,2.47c-.11,0-11.22.06-18.87,4.47-7.07,4.08-7.26,21.47-5,29.21,2.09,7.17,11.21,21.5,11.3,21.65a1.24,1.24,0,0,1-1,1.9Z" transform="translate(-221.77 -28.1)" fill="#203c83"/><path d="M265.39,322a1.22,1.22,0,0,1-.64-.18,1.24,1.24,0,0,1-.42-1.7c4.08-6.8,12-5.9,12.35-5.85a1.24,1.24,0,0,1,1.07,1.38,1.22,1.22,0,0,1-1.38,1.08c-.28,0-6.69-.73-9.93,4.67A1.24,1.24,0,0,1,265.39,322Z" transform="translate(-221.77 -28.1)" fill="#203c83"/><path d="M271,327.57a1.24,1.24,0,0,1-.36-2.42c2.33-.7,5.82-3.41,7-4.4a1.24,1.24,0,0,1,1.61,1.88c-.18.16-4.57,3.89-7.87,4.88A1.21,1.21,0,0,1,271,327.57Z" transform="translate(-221.77 -28.1)" fill="#203c83"/><path d="M316.12,406.46a1.24,1.24,0,0,1-.87-2.11c2-2,6.59-4.44,6.79-4.55A1.24,1.24,0,0,1,323.2,402s-4.5,2.41-6.2,4.11A1.23,1.23,0,0,1,316.12,406.46Z" transform="translate(-221.77 -28.1)" fill="#203c83"/><path d="M317.36,410.17a1.24,1.24,0,0,1-.92-2.07A14.36,14.36,0,0,1,324.3,404a1.24,1.24,0,0,1,.35,2.45,12,12,0,0,0-6.37,3.32A1.23,1.23,0,0,1,317.36,410.17Z" transform="translate(-221.77 -28.1)" fill="#203c83"/><path d="M353.79,478.14c-4.51,0-7.92-2.53-10.61-7.69a1.24,1.24,0,1,1,2.19-1.15c3.53,6.77,7.94,8,15.71,4.4,8.1-3.76,5.48-19.11,4.88-22.15-.89-4.43-6.34-15.67-6.4-15.79a1.24,1.24,0,0,1,2.23-1.08c.23.47,5.65,11.65,6.6,16.39s3.28,20.45-6.26,24.88A20.17,20.17,0,0,1,353.79,478.14Z" transform="translate(-221.77 -28.1)" fill="#203c83"/><path d="M357.58,317.67a1.21,1.21,0,0,1-.31,0,1.24,1.24,0,0,1-.89-1.5c.19-.77,4.86-18.8,13.23-24a1.24,1.24,0,0,1,1.3,2.11c-7.53,4.63-12.09,22.28-12.13,22.45A1.24,1.24,0,0,1,357.58,317.67Z" transform="translate(-221.77 -28.1)" fill="#203c83"/><path d="M372.74,322.93a1.24,1.24,0,0,1-1.12-1.77c.06-.13,6.15-13,7.65-19.25a1.24,1.24,0,0,1,2.41.58c-1.56,6.55-7.57,19.2-7.82,19.73A1.24,1.24,0,0,1,372.74,322.93Z" transform="translate(-221.77 -28.1)" fill="#203c83"/><path d="M380.16,322.31a1.24,1.24,0,0,1-.95-2c.07-.08,6.7-7.94,8.16-11.43a1.24,1.24,0,1,1,2.28,1c-1.6,3.85-8.27,11.74-8.55,12.08A1.24,1.24,0,0,1,380.16,322.31Z" transform="translate(-221.77 -28.1)" fill="#203c83"/><path d="M374.9,332.21a1.24,1.24,0,0,1,0-2.47c.17,0,16.7-.74,22.47-11.42a1.24,1.24,0,0,1,2.18,1.17c-6.45,11.93-23.82,12.69-24.56,12.72Z" transform="translate(-221.77 -28.1)" fill="#203c83"/><path d="M349.54,370.26a1.22,1.22,0,0,1-.55-.13c-1.49-.75-5.83-2.74-7.94-3a1.24,1.24,0,0,1-1.09-1.37,1.25,1.25,0,0,1,1.37-1.09c3,.33,8.53,3.1,8.77,3.22a1.24,1.24,0,0,1-.55,2.34Z" transform="translate(-221.77 -28.1)" fill="#203c83"/><path d="M339.64,355.44a1.28,1.28,0,0,1-.48-.09,1.26,1.26,0,0,1-.68-1.63c.73-1.84,5.28-3.38,7.93-4.13a1.24,1.24,0,1,1,.68,2.38c-3,.85-5.92,2.12-6.33,2.72A1.19,1.19,0,0,1,339.64,355.44Z" transform="translate(-221.77 -28.1)" fill="#203c83"/><path d="M309.62,302.47a23.27,23.27,0,0,1-7.18-1.26c-10.25-3.35-16.72-7.83-19.24-13.32-1.68-3.67-1.61-7.76.23-12.16,4.49-10.77,20.7-6.07,30.37-3.27,1.33.38,2.53.73,3.56,1h0c.6.16,9.07,2.6,7.1,13.79-.78,4.44-2.77,10.38-7.77,13.38A13.5,13.5,0,0,1,309.62,302.47Zm-13.77-31c-4.6,0-8.5,1.29-10.13,5.21-1.56,3.73-1.64,7.16-.26,10.17,2.22,4.84,8.19,8.87,17.76,12,5,1.63,9.1,1.52,12.21-.35,4.2-2.52,5.91-7.74,6.61-11.68,1.62-9.18-5-10.89-5.25-11h0c-1.05-.27-2.28-.63-3.63-1C308.21,273.42,301.5,271.48,295.84,271.48Z" transform="translate(-221.77 -28.1)" fill="#203c83"/><path d="M336.49,469.18c-7,0-18-10.77-19.54-13-2.81-4.22,4.87-16.09,4.94-16.21a4.68,4.68,0,0,1,3.44-2.2c3.8-.49,8.14,3.46,8.74,4s11.16,9.55,13.69,14.6a6.37,6.37,0,0,1,.1,5.68c-1.42,3.1-5.34,5.84-10,7A5.71,5.71,0,0,1,336.49,469.18Zm-10.52-29-.35,0a2.2,2.2,0,0,0-1.65,1.1c-3.61,5.53-6,12-5,13.49,1.78,2.67,13.48,13.08,18.26,11.86,3.88-1,7.23-3.24,8.33-5.64a3.87,3.87,0,0,0-.06-3.54c-2.33-4.67-13-13.75-13.1-13.84l0,0C331.35,442.57,328.26,440.15,326,440.15Z" transform="translate(-221.77 -28.1)" fill="#203c83"/><path d="M357.48,431.34A15.45,15.45,0,0,1,345.69,426c-5.22-5.64-6.59-23.71-5.53-27.19,1.35-4.47,7.63-7.49,16.81-8.07a13,13,0,0,1,13.51,8.61c.77,1.45,1.28,6,1.42,13,.24,11.5-2.13,16.42-8.73,18.16A22.37,22.37,0,0,1,357.48,431.34ZM358,393.2l-.91,0c-9.55.61-13.83,3.78-14.59,6.32-.88,2.93.59,20,5,24.79,3.95,4.27,8.72,5.48,15,3.82,4.65-1.23,7.13-4.09,6.89-15.72-.21-10-1.09-11.83-1.13-11.91l-.16-.19,0-.1A10.42,10.42,0,0,0,358,393.2Z" transform="translate(-221.77 -28.1)" fill="#203c83"/><path d="M354.82,475.89c-5.14,0-9.43-2.81-10.93-7.16a1.24,1.24,0,0,1,2.34-.81c1.4,4,5.35,5.49,8.6,5.49h0c4,0,7.18-2,8.22-5,2.5-7.35-3-18.76-6.72-23.07-3.31-3.79-11.37,2.41-11.45,2.48a1.24,1.24,0,0,1-1.54-1.94c.4-.32,10-7.79,14.85-2.16,4.66,5.36,9.91,17.52,7.2,25.5-1.38,4.06-5.52,6.69-10.55,6.7Z" transform="translate(-221.77 -28.1)" fill="#203c83"/><path d="M306.64,448.84a1.21,1.21,0,0,1-.5-.11,1.24,1.24,0,0,1-.62-1.63c.15-.33,3.68-8.16,7.39-11a1.24,1.24,0,0,1,1.5,2c-3.21,2.46-6.6,10-6.63,10A1.24,1.24,0,0,1,306.64,448.84Z" transform="translate(-221.77 -28.1)" fill="#203c83"/></svg>