<svg id="main-decoupe" xmlns="http://www.w3.org/2000/svg" viewBox="0 0 1136.91 696.47"><title>main-découpe</title><path d="M696.41,145c.29.94.59,1.88.88,2.82l-2.24-.9-.5-.2c-58-23.31-98-39.12-102.74-41-1.71.72-7.6,2.52-30.25,8.33a1.14,1.14,0,1,1-.57-2.21c24.68-6.33,29.44-7.91,30.09-8.28l.52-.55.57.4c.41.16,40.92,16.15,101.5,40.49l2.23.9Z" transform="translate(-12 -9.6)" fill="#203c81"/><path d="M799,187.27a1.13,1.13,0,0,1-.69,1.05h0l-.22.06a.55.55,0,0,1-.18,0l-.45-.08L794.26,187c-22.4-9.12-43.78-17.79-63.72-25.84l-2.19-.89-.52-.21c-.28-.93-.55-1.86-.84-2.8l2.22.89.5.2c21.23,8.58,44.13,17.86,68.16,27.67l.33.13A1.15,1.15,0,0,1,799,187.27Z" transform="translate(-12 -9.6)" fill="#203c81"/><path d="M132.16,357.74a1.14,1.14,0,0,1-.57-.15c-28.63-16.43-56.1-32.25-81.63-47a1.14,1.14,0,0,1,1.14-2c25.53,14.77,53,30.59,81.63,47a1.14,1.14,0,0,1-.57,2.13Z" transform="translate(-12 -9.6)" fill="#203c81"/><path d="M1143.64,334.43a1.12,1.12,0,0,1-.47-.1c-40.06-17.9-87.27-38.37-140.3-60.82a1.14,1.14,0,0,1,.89-2.1c53,22.46,100.26,42.93,140.34,60.84a1.14,1.14,0,0,1-.47,2.18Z" transform="translate(-12 -9.6)" fill="#203c81"/><path d="M687.85,675.52l-.51-.29c-.69-.39-70.41-39.72-153.22-86.91a1.14,1.14,0,0,1,1.13-2c79.06,45,146.17,82.93,152.7,86.62,7.59-3.59,95.32-45.07,201.71-95.28a1.14,1.14,0,0,1,1,2.06c-111.35,52.55-202.24,95.53-202.24,95.53Z" transform="translate(-12 -9.6)" fill="#203c81"/><path d="M690.31,705.89l-1.74-1s-67.39-38.56-163-93.18a1.14,1.14,0,0,1,1.13-2c86.66,49.5,150.13,85.81,161.27,92.19-.1-5.17-.45-19.12-1.19-27.59a1.14,1.14,0,0,1,1-1.24,1.17,1.17,0,0,1,1.24,1c.93,10.58,1.23,29.57,1.24,29.76Z" transform="translate(-12 -9.6)" fill="#203c81"/><path d="M95.73,365.84a1.15,1.15,0,0,1-.57-.15L60.36,345.8,12.57,318.49a1.14,1.14,0,1,1,1.13-2l47.78,27.31,34.8,19.89a1.14,1.14,0,0,1-.57,2.13Z" transform="translate(-12 -9.6)" fill="#203c81"/><path d="M689.24,706.07a1.14,1.14,0,0,1-.48-2.18l6.63-3.07c63.92-29.56,66.41-30.71,160.56-74.49a1.14,1.14,0,0,1,1,2.07c-94.15,43.78-96.64,44.94-160.56,74.49L689.71,706A1.15,1.15,0,0,1,689.24,706.07Z" transform="translate(-12 -9.6)" fill="#203c81"/><path d="M770.73,570.18c-30.65,0-38-15.16-43.08-25.62A39.92,39.92,0,0,0,724,538c-2.46-3.22-7.42-4-14.92-5.27-13.43-2.21-33.73-5.56-61.32-25.89q-6.16-4.54-11.67-8.55c-4-2.92-7.77-5.67-11.29-8.27-27.37-20.24-40.76-32.57-45.39-58.08C574,402,569,400,562.05,397.25l-.61-.24c-4.56-1.83-94.89-54.18-169.87-97.77C340.63,269.61,298,244.77,298,244.77a1.14,1.14,0,1,1,1.15-2s42.59,24.84,93.54,54.46c105.89,61.57,166.11,96.24,169.57,97.63l.6.24c7.59,3,13.08,5.21,18.75,36.38,4.5,24.82,17,36.32,44.5,56.65,3.52,2.61,7.28,5.35,11.28,8.27,3.68,2.69,7.57,5.53,11.69,8.56,27.15,20,47.12,23.29,60.34,25.48,7.75,1.28,13.35,2.2,16.36,6.14a41.41,41.41,0,0,1,3.9,7c5.82,12,13.79,28.43,55,23.41a18.7,18.7,0,0,0,12-6.74c5.81-6.88,8-17.82,6.45-32.53-4-38.35-3-55.06,3.56-57.67a1.14,1.14,0,1,1,.85,2.12c-6.81,2.73-4.49,32.88-2.14,55.32,1.61,15.39-.76,26.93-7,34.29a20.61,20.61,0,0,1-13.45,7.48A116.7,116.7,0,0,1,770.73,570.18Z" transform="translate(-12 -9.6)" fill="#203c81"/><path d="M831.7,543.37A95.94,95.94,0,0,1,805,539.53a1.14,1.14,0,1,1,.63-2.19c36.26,10.45,62.65-3.93,67.57-6.92,10.88-6.61,9-26.77,5.57-42.53-2-9.22-11.43-23.13-19.73-35.41-5.66-8.37-11-16.27-13.12-21.47-5.44-13.3,8.31-21.87,8.45-22a1.14,1.14,0,0,1,1.19,1.95c-.5.31-12.23,7.65-7.53,19.14,2,5,7.31,12.79,12.9,21.05,8.41,12.45,17.94,26.56,20.07,36.2,5.27,24,3,39.11-6.61,45C870.69,534.65,854.8,543.37,831.7,543.37Z" transform="translate(-12 -9.6)" fill="#203c81"/><path d="M869.13,466.71h-.24a1.14,1.14,0,0,1,0-2.28c.81,0,4.42-.14,15.51-1.14,12.14-1.1,32.5-11.31,35.49-34,2.92-22.31-42.13-58.33-42.58-58.69l-2.23-1.77,2.83-.27c.12,0,12.83-1.36,30.14-17.57,5.08-4.76,7.51-9.08,7.22-12.85-.41-5.34-6-9.16-11-12.54-1-.71-2-1.39-3-2.06l-.73-.55-.42-.32a130.55,130.55,0,0,1-10.82-10c-5.38-5.29-13.51-13.27-29.58-28.14-31.16-28.83-43.73-28.17-57-27.48l-3.43.19c-10.39.58-26.08,1.45-41.4-.51a92.68,92.68,0,0,1-20.29-4.69c-4.23-1.55-7.44-2.7-10.25-3.54-11.89-3.5-16.71-1.68-39.91,7.09l-2.69,1c-6.62,2.5-11.85,4.65-16.06,6.38-16,6.56-19.29,7.92-36.71,3.94-5.88-1.33-16.56-9.44-32.67-24.78-33.91-32.33-79.72-85.76-80.18-86.3a1.14,1.14,0,1,1,1.73-1.48c.46.54,46.19,53.88,80,86.13,15.58,14.84,26.22,23,31.61,24.21,16.72,3.82,19.56,2.65,35.34-3.82,4.22-1.73,9.47-3.89,16.12-6.4l2.69-1c23.23-8.77,28.74-10.86,41.36-7.14,2.87.85,6.11,2,10.39,3.58a90.41,90.41,0,0,0,19.79,4.57c15.11,1.93,30.68,1.07,41,.5l3.44-.19c15.7-.81,29.1.72,58.68,28.08,16.1,14.89,24.24,22.89,29.63,28.19a129.6,129.6,0,0,0,10.62,9.79l.42.32.68.51c.89.65,1.87,1.32,2.89,2,5.12,3.48,11.5,7.82,12,14.25.35,4.56-2.24,9.36-7.94,14.69-13.56,12.7-24.3,16.56-29,17.7,8.85,7.33,44.27,38.12,41.51,59.22-3.17,24-24.71,34.82-37.55,36-10.88,1-14.59,1.12-15.46,1.15Z" transform="translate(-12 -9.6)" fill="#203c81"/><path d="M849.12,375.8a1.14,1.14,0,0,1-.74-2c6.93-5.91,10.68-12.78,11.15-20.42.9-14.77-10.75-27.64-10.87-27.77a1.14,1.14,0,0,1,1.68-1.54c.51.55,12.43,13.73,11.46,29.45-.51,8.29-4.53,15.7-11.94,22A1.13,1.13,0,0,1,849.12,375.8Z" transform="translate(-12 -9.6)" fill="#203c81"/><path d="M751.47,518.47h-.54a1.14,1.14,0,0,1,0-2.28h.51c16.18,0,18.07-17.62,18.14-18.38a1.17,1.17,0,0,1,1.25-1,1.14,1.14,0,0,1,1,1.25C771.86,498.24,769.7,518.47,751.47,518.47Z" transform="translate(-12 -9.6)" fill="#203c81"/><path d="M593.08,370.47a1.14,1.14,0,0,1-1.11-.89c-1.58-6.9-6.2-12.83-12.06-15.47-3.84-1.73-7.62-1.78-10.63-.14a45.72,45.72,0,0,1-18,5.09,1.16,1.16,0,0,1-1.19-1.09,1.14,1.14,0,0,1,1.09-1.19,44.15,44.15,0,0,0,17-4.81c3.65-2,8.15-2,12.66.06,6.5,2.93,11.61,9.46,13.34,17a1.14,1.14,0,0,1-.86,1.37A1.11,1.11,0,0,1,593.08,370.47Z" transform="translate(-12 -9.6)" fill="#203c81"/><path d="M746,356.77a1.14,1.14,0,0,1-.46-.1l-.41-.18c-9.84-4.37-11.35-5-25-5-14.57,0-19.43-8.21-19.63-8.56l-.83-2c-.45-.74-4.52-2.2-8.7-3.11a1.14,1.14,0,1,1,.49-2.23c3.49.76,9.47,2.35,10.33,4.49l.76,1.9c.11.16,4.41,7.27,17.58,7.27,14.13,0,15.93.8,25.92,5.24l.41.18a1.14,1.14,0,0,1-.46,2.18Z" transform="translate(-12 -9.6)" fill="#203c81"/><path d="M760.47,437a1.16,1.16,0,0,1-.56-.14c-2.68-1.49-6-4.88-9.5-8.46-5.26-5.38-11.82-12.07-15.45-10.86-5.39,1.79-16.61-6.94-27.63-16.06-2.41-2-4.31-3.56-5.32-4.24a86.41,86.41,0,0,0-11.61-6,1.14,1.14,0,1,1,.89-2.1,87.49,87.49,0,0,1,12,6.19c1.11.74,3.05,2.35,5.51,4.38,6.75,5.58,20.79,17.21,25.45,15.65,5-1.66,11.51,5,17.8,11.43,3.39,3.46,6.59,6.74,9,8.06a1.14,1.14,0,0,1-.56,2.14Z" transform="translate(-12 -9.6)" fill="#203c81"/><path d="M503.67,295.14a1.12,1.12,0,0,1-.31,0c-16.68-4.65-34.18-23.77-42.18-39.39-7.81-15.24-28.09-34.11-28.29-34.3a1.14,1.14,0,1,1,1.55-1.67c.84.78,20.78,19.34,28.77,34.94C471,269.86,487.93,288.42,504,292.9a1.14,1.14,0,0,1-.31,2.24Z" transform="translate(-12 -9.6)" fill="#203c81"/><path d="M758.55,256.84l0,0a1.36,1.36,0,0,1-.51.1.9.9,0,0,1-.69-.27.91.91,0,0,1-.19-.3,1.84,1.84,0,0,1-.09-.25c-.19-.58-.4-1.2-.63-1.88-2.81-8.55-8-25.35-15.78-51.32,0,0,0,0,0,0h0c-4-13.16-8.31-27.73-12.79-42.79-.28-.93-.55-1.86-.84-2.8-3.56-12-7.2-24.24-10.77-36.3-14.51-48.87-28.23-95.07-32-106.19-6.79-3.2-12.64-3.78-17.39-1.74-5.67,2.43-8.09,7.93-8.63,9.32,1.65,5.29,20.44,65.73,38.22,122.58.29.94.59,1.88.88,2.82,7,22.48,13.86,44.24,19.36,61.62,0,0,0,0,0,.06s0,0,0,0c6.6,20.89,10.6,33.33,11.91,37,.07.2.14.37.19.52a1.17,1.17,0,0,1-.54,1.55.88.88,0,0,1-.35.1,1.12,1.12,0,0,1-.91-.27.92.92,0,0,1-.26-.35c0-.07-.08-.22-.1-.29-.17-.45-.4-1.12-.71-2-1.64-4.83-5.3-16.24-11.1-34.6l-.33-1c-.12-.37-.24-.75-.35-1.13-5.58-17.66-12.49-39.66-19.58-62.29-.29-.94-.58-1.88-.88-2.82-18.32-58.57-37.5-120.3-37.77-121.17l-.11-.35.11-.34c.1-.32,2.59-7.85,10-11,5.48-2.36,12.12-1.69,19.71,2l.43.21.15.45c3.57,10.32,17.47,57.15,32.2,106.74,3.76,12.64,7.57,25.5,11.3,38,.28.94.56,1.88.83,2.81,4.19,14,8.24,27.63,12,40l.32,1.07c.11.38.22.75.34,1.12,8,26.55,13.13,43.32,15.76,51.18l.23.69A1.29,1.29,0,0,1,758.55,256.84Z" transform="translate(-12 -9.6)" fill="#203c81"/><path d="M668.46,26.21A11.29,11.29,0,0,1,661.59,24,1.14,1.14,0,0,1,663,22.24h0c.16.14,4.16,3.3,10.22.6a1.14,1.14,0,0,1,.93,2.09A14,14,0,0,1,668.46,26.21Z" transform="translate(-12 -9.6)" fill="#203c81"/><path d="M421,630.08l-.52-.32C404.66,619.87,32.22,387.61,26.83,380.68l-1.14-1.46,1.81-.36c44.37-8.81,111.64-23.1,115.07-26.32l.61-.57.75.39c2.71,1.53,272.27,153.78,391.13,226l1.91,1.16-2.06.87C483,602.19,422.19,629.56,421.58,629.83ZM30.31,380.63C53.12,397.32,292.51,547.25,421.2,627.5c6.16-2.77,62-27.8,110.78-48.35-117.06-71-374.43-216.48-388.57-224.47C133.48,359.87,48.49,377,30.31,380.63Z" transform="translate(-12 -9.6)" fill="#203c81"/><path d="M423,660.53l-1.75-1.09c-16-10-391.9-245.79-394.17-247.31s-1.57-18.39-.5-32.23a1.09,1.09,0,0,1,1.23-1,1.14,1.14,0,0,1,1,1.22c-1,13.56-1.47,28.6-.37,30.29,2.24,1.46,363.69,228.15,392.22,246,0-5.22-.15-19.09-.75-27.53a1.14,1.14,0,0,1,1.06-1.22,1.13,1.13,0,0,1,1.22,1.06c.76,10.57.76,29.56.76,29.76Z" transform="translate(-12 -9.6)" fill="#203c81"/><path d="M421.88,659.61a1.14,1.14,0,0,1-.46-2.19c41.75-18.14,108.87-48.65,111.22-53.32,1.44-5.8.71-24.53.71-24.72a1.14,1.14,0,0,1,1.09-1.19,1.18,1.18,0,0,1,1.19,1.1c0,.78.75,19.26-.79,25.43s-86.5,43.49-112.5,54.79A1.17,1.17,0,0,1,421.88,659.61Z" transform="translate(-12 -9.6)" fill="#203c81"/><path d="M476.41,276.34h0a1.14,1.14,0,1,1,1.15-1.14A1.14,1.14,0,0,1,476.39,276.34Z" transform="translate(-12 -9.6)" fill="#203c81"/><path d="M173.82,369.7a1.14,1.14,0,0,1-.45-2.19l67-28.9,151.52-41.46a1.14,1.14,0,1,1,.6,2.2L241.09,340.76l-66.82,28.85A1.12,1.12,0,0,1,173.82,369.7Z" transform="translate(-12 -9.6)" fill="#203c81"/><path d="M504.05,563a1.14,1.14,0,0,1-.59-2.12l.67-.39c3-1.82,16.63-9.94,37.88-22.68q4.75-2.88,10-6l.74-.44h0l13.65-8.17,9.74-5.85,3.11-1.86c11.23-6.72,23.43-14,36.46-21.85l9.12-5.47a1.14,1.14,0,0,1,1.17,2l-9.12,5.47c-13,7.81-25.24,15.14-36.46,21.85l-3.11,1.87-9.74,5.85L553,533.81q-5.17,3.09-9.84,5.92c-21.26,12.74-34.84,20.87-37.9,22.7l-.66.39A1.13,1.13,0,0,1,504.05,563Z" transform="translate(-12 -9.6)" fill="#203c81"/><path d="M600.13,242.49a1.14,1.14,0,0,1-.3-2.24l115.44-31.57a1.14,1.14,0,0,1,.6,2.2L600.43,242.45A1.18,1.18,0,0,1,600.13,242.49Z" transform="translate(-12 -9.6)" fill="#203c81"/><path d="M902,323.77a1.14,1.14,0,0,1-.59-2.12c193.81-117.16,240.86-147.2,245.12-151.17-2.77-5.45-51.62-36.21-82.63-54.82L742,203.71a1.14,1.14,0,0,1-.6-2.2l322.81-88.31.42.25c19.77,11.86,84.26,51,84.26,57.29,0,1.48,0,4-246.33,152.87A1.14,1.14,0,0,1,902,323.77Z" transform="translate(-12 -9.6)" fill="#203c81"/><path d="M513.18,568.68a1.14,1.14,0,0,1-.35-2.23c6.78-2.16,48-25.95,122.47-70.7a1.14,1.14,0,1,1,1.18,2c-75.69,45.47-115.91,68.67-123,70.92A1.17,1.17,0,0,1,513.18,568.68Z" transform="translate(-12 -9.6)" fill="#203c81"/><path d="M911,330.35a1.14,1.14,0,0,1-.6-2.11c121.42-74.53,227-139.85,235.1-144.85l1.09-12.74a1.16,1.16,0,0,1,1.23-1,1.14,1.14,0,0,1,1,1.23l-1.19,13.88-.49.3c-1.08.67-109.86,68-235.6,145.16A1.13,1.13,0,0,1,911,330.35Z" transform="translate(-12 -9.6)" fill="#203c81"/><path d="M554.42,502.36c-24.92,0-33.91-29.45-37.51-41.24-.39-1.29-.72-2.36-1-3.16-.52-1.49-1.13-3.48-1.83-5.76-3.34-10.86-8.92-29-17-33.56l-2.74-1.51c-12.16-6.64-37.46-20.46-51.28-40.31-14.95-21.47-8.45-52.47-8.17-53.78a1.14,1.14,0,0,1,2.23.48c-.07.31-6.56,31.35,7.81,52,13.52,19.41,38.5,33.05,50.5,39.61l2.76,1.51c8.93,5,14.68,23.7,18.12,34.89.69,2.26,1.29,4.21,1.8,5.68.28.82.62,1.92,1,3.24,3.45,11.31,12.1,39.59,35.52,39.59a33.41,33.41,0,0,0,7.77-1c12.18-2.91,20.15-8.3,23.69-16,5-10.88-.47-22.37-1.61-24.56-2.09-4-8.06-12.76-14.38-22-10.49-15.35-17.41-25.65-18.06-28.9-1.17-5.83-.79-8.64-.77-8.75a1.16,1.16,0,0,1,1.29-1,1.14,1.14,0,0,1,1,1.29s-.33,2.6.75,8c.61,3,10.09,16.91,17.71,28.06,6.36,9.31,12.37,18.1,14.52,22.24,3.55,6.83,5.85,17.39,1.66,26.56-3.84,8.41-12.33,14.23-25.23,17.31A36.5,36.5,0,0,1,554.42,502.36Z" transform="translate(-12 -9.6)" fill="#203c81"/><path d="M576.34,415.74a1.13,1.13,0,0,1-.49-.11c-8.88-4.22-19.44-8.35-21.63-7.92a1.14,1.14,0,0,1-2.23-.34,1.79,1.79,0,0,1,.85-1.55c3-1.88,17.77,4.79,24,7.75a1.14,1.14,0,0,1-.49,2.17Z" transform="translate(-12 -9.6)" fill="#203c81"/><path d="M520.79,434a1.14,1.14,0,0,1-1-1.68c8.28-15.37,29.12-12.41,29.33-12.38a1.14,1.14,0,0,1-.34,2.26c-.2,0-19.47-2.74-27,11.21A1.14,1.14,0,0,1,520.79,434Z" transform="translate(-12 -9.6)" fill="#203c81"/><path d="M532.59,441.61a1.13,1.13,0,0,1-.57-.15,1.14,1.14,0,0,1-.42-1.56c4.44-7.66,25.14-9.25,26-9.32a1.14,1.14,0,0,1,.16,2.28c-5.65.41-21,2.69-24.2,8.18A1.14,1.14,0,0,1,532.59,441.61Z" transform="translate(-12 -9.6)" fill="#203c81"/><path d="M544.13,490.87a9.2,9.2,0,0,1-4.8-1.09,5.34,5.34,0,0,1-2.54-3.83l-.17-.93c-1.23-6.73-3.51-19.27,11.12-25.43,15.11-6.36,20.93-3,25,3.9l.2.3c6.89,10.43,6,11.6,5.44,12.37l-.16.17c-.38.33-9.42,8.18-19,11.26C553.06,489.55,548,490.87,544.13,490.87Zm16.94-32.37c-3,0-7,.91-12.44,3.18-12.94,5.45-11,16.38-9.76,22.91l.17.95a3.08,3.08,0,0,0,1.47,2.27c3.62,2.19,13.32-.91,18-2.4,8.25-2.64,16.36-9.22,18-10.56-.09-.59-.77-2.81-5.39-9.81l-.26-.4C568.91,461.44,566.53,458.5,561.07,458.5Zm16.41,17h0Z" transform="translate(-12 -9.6)" fill="#203c81"/></svg>