<svg id="main-ecrit" xmlns="http://www.w3.org/2000/svg" viewBox="0 0 654.26 658.67"><title>main - écrit</title><path d="M356.71,684.86l-1.12-.81C309,650.56,181,542.38,169,531.11a1.1,1.1,0,0,1,1.5-1.6c11.86,11.16,137.84,117.62,185.27,152,26.43-59.06,253.89-276.35,323.39-341.94l1.68-1.59C642,298.8,484.35,207.79,418,170.28l-2.43-1.37c-20.3,17.45-90.79,85.79-91.51,86.48a1.1,1.1,0,1,1-1.53-1.58c.72-.7,72.65-70.42,92.2-87.07l.58-.5,3.77,2.13C486,206.18,645.56,298.31,683.18,337.21l.77.8-3.3,3.12c-69.93,66-299.94,285.72-323.42,342.46Z" transform="translate(-29.69 -26.19)" fill="#203c81"/><path d="M431.55,235.77a7.67,7.67,0,0,1-3.42-.66,5,5,0,0,1-2.86-3.92c-.8-5.6,6.11-14.28,12.85-20.54,1.53-1.42,2.11-2.79,1.77-4.18-1.27-5.27-14.58-10.1-19.61-11.52a1.1,1.1,0,1,1,.6-2.11c2,.56,19.35,5.66,21.15,13.11.53,2.2-.28,4.32-2.42,6.3-8,7.39-12.73,14.69-12.17,18.62a2.82,2.82,0,0,0,1.68,2.27c4.38,2.2,18.19-4,23.14-6.57a1.1,1.1,0,0,1,1,1.95C451.63,229.37,439.07,235.77,431.55,235.77Z" transform="translate(-29.69 -26.19)" fill="#203c81"/><path d="M633.4,351.5a1.1,1.1,0,0,1-.89-.46c-3.27-4.57-42.74-37.8-45.57-39.11a1.08,1.08,0,0,1-.67-1.38,1.12,1.12,0,0,1,1.41-.69c2.56.85,42.75,34.48,46.62,39.89a1.1,1.1,0,0,1-.89,1.74Z" transform="translate(-29.69 -26.19)" fill="#203c81"/><path d="M522.24,363.94a1.1,1.1,0,0,1-.42-.08l-16.36-6.69-.18-.24c-.6-.78-14.73-19.17-17.66-25-1.09-2.19-5.74-3.31-10.66-4.5-6.59-1.59-14.06-3.39-17.1-8.6-4.81-8.24-14.22-22.16-23.27-22.86-9.8-.75-45.26-36.11-46.77-37.61a1.1,1.1,0,0,1,1.55-1.55c10.09,10.09,37.92,36.4,45.38,37,9.55.73,18.86,13.42,25,23.94,2.57,4.4,9.55,6.09,15.72,7.58,5.66,1.37,10.56,2.55,12.11,5.65,2.67,5.35,15.58,22.26,17.26,24.45l15.81,6.47a1.1,1.1,0,0,1-.42,2.11Z" transform="translate(-29.69 -26.19)" fill="#203c81"/><path d="M497.37,423.17a1.1,1.1,0,0,1-1.05-.79l-2.84-9.94-7.81-7.1-9.06-10.55L476,391.5a88,88,0,0,1-13.44-5c-4.95-2.47-10.85-6.43-10.85-11.22,0-2.71-11.38-11.31-14.53-12.1s-18.37-11.39-20.11-12.6a1.1,1.1,0,0,1,1.25-1.8c6.44,4.48,17.4,11.77,19.39,12.27,2.85.72,16.19,9.65,16.19,14.23,0,2.82,3.51,6.2,9.63,9.26a89.93,89.93,0,0,0,13.69,5l.65.18.81,4,8.59,10,8.18,7.42,3,10.54a1.09,1.09,0,0,1-.75,1.36A1.06,1.06,0,0,1,497.37,423.17Z" transform="translate(-29.69 -26.19)" fill="#203c81"/><path d="M485.55,453.53c-6.29,0-28.53-27.08-29.38-28.77s-12.6-7.27-17.65-9c-4.3-1.43-4.73-3-6.56-9.38-.31-1.09-.67-2.34-1.09-3.78-.94-3.17-1.75-5-2.41-5.29-.27-.14-.72,0-1.48.28a8.7,8.7,0,0,1-3.91.66c-5-.38-5.13-3.8-5.28-7.11,0-.61-.06-1.26-.11-1.94-.34-2.55-16.6-16.48-32.12-28.48a1.1,1.1,0,0,1,1.34-1.74c7.64,5.9,32.59,25.51,33,30,.06.7.09,1.38.12,2,.17,3.64.36,4.8,3.26,5a6.56,6.56,0,0,0,3-.55,3.87,3.87,0,0,1,3.21-.17c1.32.67,2.31,2.53,3.52,6.62.43,1.44.79,2.7,1.1,3.8,1.8,6.32,1.95,6.83,5.14,7.9,3.57,1.19,17.49,7.2,18.92,10.06,1.59,3.18,23.32,27.57,27.25,27.57h.12a1.1,1.1,0,1,1,.33,2.17Z" transform="translate(-29.69 -26.19)" fill="#203c81"/><path d="M466.29,489.36a1.1,1.1,0,0,1-1.09-1c0-.2-.39-4.9-4.83-5.19-5.89-.39-10.32-7.13-15.5-15.9-2.95-5-8-8-14.3-11.82-3.5-2.11-7.46-4.5-11.73-7.6-6.7-4.87-13.55-13.12-19-19.74-4.26-5.12-8.28-10-10.36-10.85a28,28,0,0,0-5-1.51c-1.9-.44-3.27-.76-3.9-1.84a2.46,2.46,0,0,1-.17-2,1.22,1.22,0,0,0-.06-1A2.48,2.48,0,0,0,379,410a1.1,1.1,0,1,1,.53-2.13,4.62,4.62,0,0,1,2.71,1.94,3.42,3.42,0,0,1,.27,2.72.77.77,0,0,0,0,.28,8,8,0,0,0,2.5.8,30.21,30.21,0,0,1,5.33,1.63c2.56,1.1,6.37,5.68,11.18,11.47,5.42,6.53,12.17,14.65,18.65,19.37,4.19,3,8.12,5.41,11.58,7.49,6.61,4,11.82,7.12,15.05,12.58,4.84,8.2,8.93,14.5,13.75,14.82,5.1.34,6.73,4.88,6.87,7.24a1.1,1.1,0,0,1-1,1.16Z" transform="translate(-29.69 -26.19)" fill="#203c81"/><path d="M107.58,553a1.1,1.1,0,0,1-.31-2.15l8.19-2.4c59.5-17.4,67.15-19.63,123-73,59.18-56.59,79.79-65.07,98.86-69.75C358.47,400.47,372,380,372.12,379.8c2.68-4.22,30.67-58.89,32.19-62.9.36-1-.18-3-2.24-5.08-3.93-4.05-11.79-7.1-22.08-3.52-13.95,4.85-25.23,17.79-33.47,27.24-1.49,1.71-2.86,3.28-4.11,4.64l-.41.45-.6-.12c-18.15-3.47-46.07-1.6-59.49-.7-7.65.51-8.59.54-9.18.24-1.14-.57-26.77-11.71-40.17-17.53a1.1,1.1,0,0,1,.87-2c1.58.69,38.8,16.84,40.28,17.58.43,0,4-.19,8.05-.47,13.36-.89,41-2.74,59.44.63,1.12-1.24,2.35-2.64,3.66-4.15,8.4-9.64,19.91-22.83,34.41-27.88,11.26-3.92,20-.46,24.38,4.07,2.45,2.53,3.49,5.36,2.72,7.39C404.72,322,376.87,376.43,374,381c-3.76,5.91-17.59,22.26-36.13,26.8-18.76,4.6-39.07,13-97.86,69.2-56.23,53.77-63.94,56-123.9,73.55l-8.19,2.4A1.1,1.1,0,0,1,107.58,553Z" transform="translate(-29.69 -26.19)" fill="#203c81"/><path d="M349.64,331.39a1.1,1.1,0,0,1-1-1.46c0-.05,2.12-6.67,1.78-36.17-.33-26.53-24.6-37.49-35-42.17-1.27-.57-2.35-1.06-3.19-1.48-6.51-3.22-48.13-20.66-88.83-25.61a1.1,1.1,0,1,1,.27-2.18c41,5,83,22.56,89.54,25.82.83.41,1.88.89,3.12,1.45,10.75,4.85,35.92,16.22,36.26,44.15.35,30.19-1.81,36.67-1.9,36.93A1.1,1.1,0,0,1,349.64,331.39Z" transform="translate(-29.69 -26.19)" fill="#203c81"/><path d="M30.79,448.41a1.08,1.08,0,0,1-.49-.12,1.1,1.1,0,0,1-.49-1.47c.77-1.54,77.28-154.62,115.67-203.87,7.64-9.8,18.91-16.41,33.52-19.64a1.1,1.1,0,0,1,.48,2.14c-14.09,3.12-24.95,9.46-32.26,18.85C109,293.38,32.54,446.26,31.77,447.8A1.1,1.1,0,0,1,30.79,448.41Z" transform="translate(-29.69 -26.19)" fill="#203c81"/><path d="M363.32,403.06a45.47,45.47,0,0,1-10.64-1.5,1.1,1.1,0,0,1,.52-2.13c14,3.42,19.29.48,24.08-6.16a5.22,5.22,0,0,0,1-4.09c-.7-4.2-5.82-7.86-5.87-7.9a1.1,1.1,0,0,1,1.26-1.79c.24.17,5.91,4.21,6.77,9.32a7.42,7.42,0,0,1-1.39,5.75C375.27,399.8,371.09,403.06,363.32,403.06Z" transform="translate(-29.69 -26.19)" fill="#203c81"/><path d="M313.46,472.83a11.26,11.26,0,0,1-7.91-3c-5-4.59-7.12-14.25-6.55-29.53.54-14.56.55-17.21.55-17.24a1.1,1.1,0,0,1,1.1-1.1h0a1.1,1.1,0,0,1,1.1,1.1c0,.1,0,2.66-.55,17.32-.53,14.4,1.43,23.76,5.84,27.83a9.51,9.51,0,0,0,8,2.3C325.8,469.27,331.27,438,332.47,426a1.1,1.1,0,1,1,2.18.22c-.18,1.83-4.64,44.78-19.34,46.5A15.77,15.77,0,0,1,313.46,472.83Z" transform="translate(-29.69 -26.19)" fill="#203c81"/><path d="M284.72,484.62a18.81,18.81,0,0,1-10.58-3.67c-7.1-6.22-6.18-31.08-6.13-32.13a1.13,1.13,0,0,1,1.14-1.05,1.1,1.1,0,0,1,1.05,1.14c-.28,6.9.14,25.8,5.38,30.39,2,1.73,8.9,4.47,12.43,2.35s5.76-12.87,6.05-18.31c.27-5.17,3-37.82,3-38.15a1.12,1.12,0,0,1,1.18-1,1.1,1.1,0,0,1,1,1.18c0,.33-2.74,33-3,38.09s-2.43,17.27-7.11,20.08A8.52,8.52,0,0,1,284.72,484.62Z" transform="translate(-29.69 -26.19)" fill="#203c81"/><path d="M256,491.09c-3.16,0-6.33-1.11-7.74-2.87-5.74-7.17-3.87-16.94-3.78-17.35a1.1,1.1,0,0,1,2.15.43c0,.09-1.74,9.19,3.35,15.55,1.13,1.42,4.71,2.52,8,1.86a6.62,6.62,0,0,0,5.4-4.77c2.13-7.46,3.24-33.76,3.25-34a1.08,1.08,0,0,1,1.14-1.05,1.1,1.1,0,0,1,1.05,1.14c0,1.09-1.13,26.82-3.33,34.54a8.75,8.75,0,0,1-7.08,6.31A12.61,12.61,0,0,1,256,491.09Z" transform="translate(-29.69 -26.19)" fill="#203c81"/><path d="M389.6,351.62l-.82-.13c-.6-.09-14.75-2.39-16.26-9.35-1.46-6.72,5.48-26.18,11.78-33.06,5.88-6.41,10.16-9,13.89-8.29,2.63.48,8.16,2.18,10.23,5.2a4.5,4.5,0,0,1,.79,3.49c-.84,4.49-7,18.69-10.57,24.51-3.49,5.64-8.66,16.78-8.71,16.89ZM397,302.87c-2.76,0-6.32,2.47-11.1,7.69-5.72,6.24-12.55,25.14-11.25,31.11.93,4.27,9.52,6.73,13.65,7.51,1.24-2.65,5.42-11.41,8.48-16.36,3.51-5.67,9.47-19.44,10.28-23.76a2.37,2.37,0,0,0-.44-1.84c-1.53-2.23-6.23-3.81-8.82-4.28A4.24,4.24,0,0,0,397,302.87Z" transform="translate(-29.69 -26.19)" fill="#203c81"/><path d="M379.56,409.71c-3.39,0-8.27-1.32-14.71-6.18a1.1,1.1,0,0,1,1.32-1.75c6.57,5,12.66,6.83,16.71,5.12a6.36,6.36,0,0,0,3.89-5.21c.62-4.86-7.49-14.36-10.67-17.61a1.1,1.1,0,1,1,1.57-1.53c1.24,1.27,12.14,12.64,11.27,19.42a8.51,8.51,0,0,1-5.21,7A10.7,10.7,0,0,1,379.56,409.71Z" transform="translate(-29.69 -26.19)" fill="#203c81"/><path d="M310,482.74h-.4a1.1,1.1,0,0,1-.64-.27l-.2-.07-.34-.1c-2-.57-5.76-1.63-6.69-16.77a1.1,1.1,0,0,1,2.19-.13c.83,13.58,3.82,14.43,5.1,14.79l.49.15a1.63,1.63,0,0,0,1.44-.19c1.1-.66,3.13-3,4.37-11.41,2.1-14.2,9.49-17.87,12.57-18.79a1.58,1.58,0,0,1,1.59.43,1.56,1.56,0,0,1,.33,1.61c-1.54,4.27-6.77,18.64-9.39,24.24A11.39,11.39,0,0,1,310,482.74Zm17.28-30.23c-2.83,1.3-8.12,5.21-9.78,16.54-.69,4.71-1.73,8.22-3.1,10.49a8.8,8.8,0,0,0,4-4.26C320.82,470.19,325.56,457.28,327.29,452.51Zm.46-1.29h0Z" transform="translate(-29.69 -26.19)" fill="#203c81"/><path d="M283.45,493.08h-.07A1.06,1.06,0,0,1,283,493c-8.75-.34-10.88-9.29-10.78-14a1.1,1.1,0,0,1,1.1-1.07h0a1.1,1.1,0,0,1,1.07,1.12c0,.47-.12,11.53,8.81,11.77h0c.29-.31,1-1.32,1.77-4.26a54.15,54.15,0,0,0,1.24-10.51c.2-3.66.38-7.11,1.25-9.72a4.67,4.67,0,0,1,2.92-3.29c2.28-.72,4.56.93,4.82,1.12s.91.6.43,5.51l-.09,1c-.46,5.46-1.84,21.82-11.7,22.31A1.43,1.43,0,0,1,283.45,493.08Zm8.19-28a1.83,1.83,0,0,0-.54.08,2.66,2.66,0,0,0-1.48,1.89c-.78,2.32-1,5.63-1.14,9.14a55.66,55.66,0,0,1-1.31,10.95,22.55,22.55,0,0,1-1,3.07c5.86-2.92,6.9-15.25,7.27-19.69l.09-1a20.88,20.88,0,0,0,.15-3.73A4.28,4.28,0,0,0,291.65,465.06Z" transform="translate(-29.69 -26.19)" fill="#203c81"/><path d="M255.43,500a7,7,0,0,1-5.5-2.29c-3.29-3.71-2.18-10.57-2.13-10.86a1.1,1.1,0,0,1,2.16.36c0,.06-1,6.13,1.61,9.05a4.73,4.73,0,0,0,3.56,1.54h0c.65-.53,2.22-5.39,3.45-20a7.4,7.4,0,0,1,4.11-5.9,3.45,3.45,0,0,1,3.49,0,3,3,0,0,1,1.11,3l-.09,1.12c-.52,6.45-1.91,23.59-11.3,24Zm9.19-26.42a2.37,2.37,0,0,0-1,.26,5.2,5.2,0,0,0-2.85,4.1c-1,11.34-2.05,16.73-3,19.35,5.72-2.86,6.84-16.64,7.23-21.48l.1-1.14c.06-.6-.06-.91-.18-1A.6.6,0,0,0,264.62,473.6Z" transform="translate(-29.69 -26.19)" fill="#203c81"/><path d="M267,337.62a1.09,1.09,0,0,1-.86-.42c-1.62-2.07-161.71-206.71-169.67-216.46C82.08,103,73.28,92.4,71.7,90.82a16.31,16.31,0,0,1-4.28-7.36c-1.13-4.48.1-8.94,3.64-13.27a1.1,1.1,0,1,1,1.7,1.39c-3.08,3.76-4.16,7.57-3.21,11.34a14.09,14.09,0,0,0,3.7,6.34c2.09,2.09,14.71,17.51,24.93,30.07,8,9.77,168.08,214.43,169.69,216.5a1.1,1.1,0,0,1-.19,1.54A1.08,1.08,0,0,1,267,337.62Z" transform="translate(-29.69 -26.19)" fill="#203c81"/><path d="M308.7,337.24a1.1,1.1,0,0,1-.94-.53c-1.61-2.65-85.28-112.91-135.26-178.78-23.21-30.58-41.54-54.74-44.58-58.8-9.72-13-15-22.23-16.6-26.23-1.11-2.76-5.94-6.94-7.71-8.31a14.82,14.82,0,0,0-5-2.86l-.19-.06A17,17,0,0,0,90,61a1.1,1.1,0,1,1-.36-2.16,19.21,19.21,0,0,1,9.25.67l.19.06A16.68,16.68,0,0,1,105,62.93c.19.14,6.74,5.28,8.31,9.15,1.24,3.13,6.06,12.05,16.32,25.73,3,4,21.37,28.2,44.57,58.78,53.3,70.24,133.85,176.39,135.4,179a1.09,1.09,0,0,1-.38,1.5A1.08,1.08,0,0,1,308.7,337.24Z" transform="translate(-29.69 -26.19)" fill="#203c81"/><path d="M73.7,85.3a12.29,12.29,0,0,1-5.79-1.17A1.1,1.1,0,0,1,69,82.22c.09,0,7.58,4,21.34-5.32,5.38-3.63,10-10.2,9.57-13.52a2,2,0,0,0-1.52-1.72,1.1,1.1,0,1,1,.69-2.08,4.18,4.18,0,0,1,3,3.5c.64,4.67-4.92,11.86-10.52,15.63C83.71,84,77.7,85.3,73.7,85.3Z" transform="translate(-29.69 -26.19)" fill="#203c81"/><path d="M362.93,448.08l-1.53-.45c-10-3-40.82-32.29-42.13-33.53a1.1,1.1,0,0,1,1.51-1.59c.3.28,28.67,27.29,39.66,32.4-1.64-13.81-10.22-39.38-11.57-41.43a1.1,1.1,0,0,1,1.38-1.7c1.78,1.19,11.51,31.53,12.55,44.71Z" transform="translate(-29.69 -26.19)" fill="#203c81"/><path d="M365.2,452.86a1.09,1.09,0,0,1-.88-.44l-3.81-5.12a1.1,1.1,0,1,1,1.76-1.31l3.81,5.12a1.1,1.1,0,0,1-.88,1.75Z" transform="translate(-29.69 -26.19)" fill="#203c81"/><path d="M76,77.64l-.34-.41c-.9-1.09-22.09-26.74-25.4-35a9.09,9.09,0,0,1,.15-7.73C53,29.25,60,27,62.14,26.47c6.17-1.65,10.34,4.39,10.52,4.65L93.94,64.25l-.1.44c-2.71,12.4-17.17,12.92-17.31,12.93ZM64.21,28.39a5.81,5.81,0,0,0-1.51.2c-3.85,1-8.59,3.37-10.35,6.86a6.9,6.9,0,0,0-.07,5.94c3,7.41,21.88,30.57,24.7,34,2.43-.19,12.3-1.54,14.6-10.74L70.82,32.33S68.08,28.39,64.21,28.39Z" transform="translate(-29.69 -26.19)" fill="#203c81"/><path d="M55.82,42.27A10.85,10.85,0,0,1,54,42.14,1.1,1.1,0,0,1,54.38,40a10,10,0,0,0,6.51-1.3,1.1,1.1,0,0,1,1.22,1.83A11.42,11.42,0,0,1,55.82,42.27Z" transform="translate(-29.69 -26.19)" fill="#203c81"/><path d="M107.43,131.42c-1,0-1.64,0-1.76,0a1.1,1.1,0,0,1,.15-2.19c.13,0,13.05.8,21.75-5.81s7.81-13.92,7.8-14a1.1,1.1,0,0,1,2.18-.25c0,.35.87,8.75-8.65,16C121.43,130.8,111.44,131.42,107.43,131.42Z" transform="translate(-29.69 -26.19)" fill="#203c81"/><path d="M137.73,167.51a21.6,21.6,0,0,1-3.84-.32,1.1,1.1,0,1,1,.39-2.16c5.7,1,15.35-.77,22-6.17,6.44-5.25,6.36-14,6.36-14.12a1.1,1.1,0,0,1,1.08-1.12,1.07,1.07,0,0,1,1.12,1.07c0,.4.11,9.93-7.17,15.86A32.9,32.9,0,0,1,137.73,167.51Z" transform="translate(-29.69 -26.19)" fill="#203c81"/><path d="M153.1,214a1.1,1.1,0,0,1-.56-2,30,30,0,0,1,14.34-4.43h0a1.1,1.1,0,0,1,0,2.19,27.76,27.76,0,0,0-13.26,4.12A1.09,1.09,0,0,1,153.1,214Z" transform="translate(-29.69 -26.19)" fill="#203c81"/><path d="M168,228.52c-2.64,0-4.52-1.93-5.9-3.36a6.92,6.92,0,0,0-1.53-1.35c-3.23-1.14-65.78-83.77-68.29-90.21-.82-2.1-.25-3.37.37-4.08,2.44-2.76,9.88-1,11.35-.68a1.1,1.1,0,0,1-.54,2.13c-3.11-.79-8-1.3-9.16,0-.31.35-.3,1,0,1.83,2.73,7,64.43,87.11,67.14,89a6.94,6.94,0,0,1,2.21,1.81c1.28,1.32,2.74,2.84,4.57,2.69s4-1.91,6.44-5.27c.25-.35.48-.68.68-1a1.1,1.1,0,0,1,1.86,1.16c-.23.37-.48.74-.76,1.13-2.85,4-5.49,6-8.06,6.19Z" transform="translate(-29.69 -26.19)" fill="#203c81"/><path d="M93.5,130.65a1.1,1.1,0,0,1-.85-1.79l5.48-6.77a1.1,1.1,0,0,1,1.7,1.38l-5.48,6.77A1.09,1.09,0,0,1,93.5,130.65Z" transform="translate(-29.69 -26.19)" fill="#203c81"/><path d="M291.6,313.93a1.1,1.1,0,0,1-1-1.45c0-.14,2.82-9.32-2.24-43.92a1.1,1.1,0,0,1,.93-1.24,1.12,1.12,0,0,1,1.24.93c5.19,35.51,2.27,44.57,2.14,44.94A1.09,1.09,0,0,1,291.6,313.93Z" transform="translate(-29.69 -26.19)" fill="#203c81"/><path d="M295.72,313c-4.05,0-5.79-1.41-5.94-1.54a1.1,1.1,0,0,1,1.42-1.67c.14.11,8,5.81,31.57-11a1.1,1.1,0,0,1,1.28,1.79C309.83,310.72,300.89,313,295.72,313Z" transform="translate(-29.69 -26.19)" fill="#203c81"/><path d="M354.95,385a1.1,1.1,0,0,1-.79-.34c-.06-.06-6-6.21-9.87-8.29a1.1,1.1,0,1,1,1-1.94c4.22,2.25,10.17,8.45,10.42,8.71a1.1,1.1,0,0,1-.79,1.86Z" transform="translate(-29.69 -26.19)" fill="#203c81"/><path d="M342.88,399.77a1.1,1.1,0,0,1-.82-.36c-5.09-5.65-8.88-26.8-9-27.69a1.1,1.1,0,1,1,2.16-.38c0,.21,3.84,21.42,8.51,26.61a1.1,1.1,0,0,1-.82,1.83Z" transform="translate(-29.69 -26.19)" fill="#203c81"/></svg>