<svg xmlns="http://www.w3.org/2000/svg" viewBox="0 0 533.21 559.54"><title>mains - team</title><g id="main-milieu"><path d="M315.57,139.54c-.35.68-.68,1.37-1,2-.22-.15-.44-.29-.66-.42a1.19,1.19,0,0,0-.29-.15c-22.49-13.91-70.36-17.73-94.16-17.73-25.31,0-35-10.56-38.7-14.53a10.76,10.76,0,0,0-1.1-1.12c-2.21-1.65-77.53-77.46-86.11-86.11a1.09,1.09,0,0,1,1.54-1.54C124,49,179,104.26,181,105.82a13.46,13.46,0,0,1,1.39,1.39C185.88,111,195.15,121,219.49,121c23.93,0,72,3.86,95.15,17.93l.55.33C315.32,139.38,315.46,139.45,315.57,139.54Z" transform="translate(-26.36 -19.6)" fill="#203c83"/><path d="M361.48,169.86c-10.89-5.56-21.5-11.27-29.88-16.36.15-.77.33-1.54.49-2.32,8.42,5.16,19.29,11,30.5,16.71C362.2,168.54,361.85,169.2,361.48,169.86Z" transform="translate(-26.36 -19.6)" fill="#203c83"/><path d="M338.45,198.86c2,.88,4,1.74,5.91,2.54-.37.68-.73,1.35-1,2-1.9-.77-3.81-1.61-5.76-2.47-6.48-2.89-12.39-5.51-17.77-7.85.22-.71.46-1.41.71-2.09Q328.64,194.48,338.45,198.86Z" transform="translate(-26.36 -19.6)" fill="#203c83"/><path d="M377.71,212.53a177.71,177.71,0,0,0,23.22,4.26c-.44.66-.93,1.37-1.41,2.07a187.66,187.66,0,0,1-22.65-4.26Z" transform="translate(-26.36 -19.6)" fill="#203c83"/><path d="M417.11,193.92a3.17,3.17,0,0,1-.24.33c-.2.31-.42.6-.64.9s-.31.42-.44.62c-2.87-1.3-7.67-3.48-13.72-6.28l-1-.46-1-.46c-3.18-1.48-6.64-3.11-10.3-4.85.29-.68.6-1.37.88-2.05,3.9,1.85,7.56,3.57,10.92,5.14l1.57.71,0,0,4.56,2.12.15.07C411.93,191.58,415.13,193,417.11,193.92Z" transform="translate(-26.36 -19.6)" fill="#203c83"/><path d="M275,171.82c.09,0,5.56,2.09,17.93,7.28-.31.64-.64,1.32-1,2-5.27-2.21-9.26-3.84-12.13-5,2.56,2.29,6,5.45,10.08,9.15-.35.68-.68,1.37-1,2.07-8.67-7.92-14.82-13.45-15-13.65a1.14,1.14,0,0,1-.2-1.39A1.15,1.15,0,0,1,275,171.82Z" transform="translate(-26.36 -19.6)" fill="#203c83"/><path d="M314.66,207.87c6.24,5.71,12.41,11.4,17.86,16.47l-1,2.05c-5.34-4.94-11.42-10.56-17.62-16.25C314.11,209.4,314.4,208.65,314.66,207.87Z" transform="translate(-26.36 -19.6)" fill="#203c83"/><path d="M371,264.39l-4.85-4.52L358.83,253c.33-.71.66-1.39,1-2.09,2.38,2.25,5,4.74,7.85,7.36,1.46,1.35,2.93,2.71,4.39,4.1C371.77,263,371.42,263.69,371,264.39Z" transform="translate(-26.36 -19.6)" fill="#203c83"/><path d="M409.46,352.62c-.53.46-1.06,1-1.61,1.48-5-5.36-9.94-10.25-14.91-14.84q-3.64-3.34-6.75-6.28.17-1.32.4-2.65c2.32,2.18,4.9,4.63,7.83,7.32C399.45,342.27,404.41,347.21,409.46,352.62Z" transform="translate(-26.36 -19.6)" fill="#203c83"/><path d="M400.53,292c4.23,6.09,15.81,20.86,27.3,35.37-.53.53-1,1.06-1.54,1.61-11.2-14.16-22-27.94-26.81-34.66Q400,293.18,400.53,292Z" transform="translate(-26.36 -19.6)" fill="#203c83"/><path d="M462.16,380.27a9.66,9.66,0,0,1-4.48,6.31,11.11,11.11,0,0,1-6.17,1.79c-5.45,0-12.19-3.4-20.33-10.25.37-.66.77-1.3,1.15-1.92,10.74,9.13,18.83,12,24.17,8.53a7.46,7.46,0,0,0,3.51-4.87,4.68,4.68,0,0,0,.11-1,15.12,15.12,0,0,0-1.68-7.34,3.71,3.71,0,0,0-.26-.62c-.75-1.46-1.63-2.93-2.6-4.56-.18-.22-.33-.44-.49-.66-.86-1.26-3.24-4.34-6.53-8.56l0,0c-1.65-2.12-3.57-4.52-5.62-7.14a20.58,20.58,0,0,1,.88-2.45c6.62,8.4,11.73,14.91,13.12,16.94C461.21,370.76,463,376.1,462.16,380.27Z" transform="translate(-26.36 -19.6)" fill="#203c83"/><path d="M425.07,423c-1.17,4.32-3.88,7.08-7.83,8a13.69,13.69,0,0,1-3,.31c-4.06,0-8.62-1.59-12.86-4,.4-.62.79-1.21,1.17-1.83,5,2.89,10.32,4.26,14.22,3.37,3.18-.73,5.25-2.89,6.22-6.42a12,12,0,0,0,.37-4.15,15.07,15.07,0,0,0-.35-2.4,19.92,19.92,0,0,0-1.15-3.46v0a38.38,38.38,0,0,0-6.06-9.37c.11-.18.22-.35.31-.53.2-.33.4-.66.6-1s.22-.35.31-.53a41.19,41.19,0,0,1,6.77,10.25v0a.08.08,0,0,1,0,.07s0,0,0,0A17.55,17.55,0,0,1,425.07,423Z" transform="translate(-26.36 -19.6)" fill="#203c83"/><path d="M184.76,394.09c0,.18,0,.35,0,.53l-3.64-5.25c-.4-.6-.82-1.19-1.23-1.81-4.92-7.14-10.56-15.5-16.52-24.45-.42-.6-.82-1.21-1.23-1.83-22.32-33.58-48.56-74.77-56.67-92C91.35,239.17,27.21,144.65,26.54,143.71a1.1,1.1,0,0,1,.31-1.52,1.08,1.08,0,0,1,1.52.29c.64.95,64.9,95.61,79.1,125.84,7.92,16.85,34.22,58.13,56.52,91.71.4.62.82,1.21,1.21,1.83,6,9,11.62,17.35,16.49,24.5.42.62.84,1.21,1.26,1.81l1.83,2.67C184.74,392.07,184.74,393.17,184.76,394.09Z" transform="translate(-26.36 -19.6)" fill="#203c83"/><path d="M448.55,357.14l0,0c-.75-.64-1.26-1-1.35-1.12a1,1,0,0,1-.15-.09,5.7,5.7,0,0,0-5.2.07q-.13.69-.33,1.39v0A14.55,14.55,0,0,1,441,359a6.37,6.37,0,0,1,3.59-1.48,2.61,2.61,0,0,1,1.23.29c1,.82,12.11,9.88,12.46,18.13.11,2.54-.88,4.21-3,5-3.66,1.41-10.32-.4-14.38-5.34a15.25,15.25,0,0,1-3.77-7.83c-.26.51-.55,1-.84,1.54s-.51.93-.77,1.39a20,20,0,0,0,3.68,6.31,18.26,18.26,0,0,0,13.27,6.62,10.1,10.1,0,0,0,3.59-.64,6.31,6.31,0,0,0,3.95-4.08,8,8,0,0,0,.42-3.07C460.2,368,451.91,360,448.55,357.14Z" transform="translate(-26.36 -19.6)" fill="#203c83"/><path d="M423.79,411.43s0,0,0,0a.08.08,0,0,0,0-.07v0a22,22,0,0,0-6.51-10.69c-.09.13-.18.29-.26.44s-.2.35-.31.53-.4.64-.6,1a19.55,19.55,0,0,1,5.76,9.9v0a7.66,7.66,0,0,1-.29,4.65c-1.72,2.58-3.86,4-6.31,4.21-2.93.22-6-1.23-8.42-2.87-.18.31-.37.64-.57,1s-.37.62-.57.95a16.77,16.77,0,0,0,8.93,3.18c.26,0,.53,0,.79,0,3.15-.24,5.78-1.94,7.94-5.18,0,0,.07-.11.11-.15A10.55,10.55,0,0,0,423.79,411.43Z" transform="translate(-26.36 -19.6)" fill="#203c83"/><path d="M404.36,186.71l13.16,6.64c-.13.18-.26.37-.42.57a3.17,3.17,0,0,1-.24.33c-.2.31-.42.6-.64.9l-12.86-6.46a.72.72,0,0,0-.95.22c-.11.18-.24.37-.35.57-1.32,2.34-1.85,5.51,2,8.4a28.89,28.89,0,0,0,7.48,3.73l-.66.93c-.22.31-.44.62-.68.93a30.24,30.24,0,0,1-7.43-3.81c-5.4-4-4.06-8.64-2.71-11.09l.53-.86a2.92,2.92,0,0,1,1-.9A2.87,2.87,0,0,1,404.36,186.71Z" transform="translate(-26.36 -19.6)" fill="#203c83"/><path d="M396,365.34l-1.59,1.57-9.5-13.76c0-1.26,0-2.56.07-3.84Z" transform="translate(-26.36 -19.6)" fill="#203c83"/><g opacity="0.5"><path d="M315.19,139.3l-.55-.33s0,0,0,.07c-.35.66-.66,1.32-.95,1.94a1.19,1.19,0,0,1,.29.15c.22.13.44.26.66.42.29-.64.62-1.32,1-2C315.46,139.45,315.32,139.38,315.19,139.3Z" transform="translate(-26.36 -19.6)" fill="#203c83"/></g></g><g id="main-haut"><path d="M313.21,579.15a1.1,1.1,0,0,1-1.06-1.39c.56-2.1,13.93-51.59,22.22-63.2,2.12-3,6.62-8.57,12.32-15.67,14.09-17.55,37.66-46.94,53.74-72.13l.32-.5c.28-.44.57-.87.84-1.31,1.11-1.75,2.16-3.44,3.14-5.12l1.14-1.91c.45-.76.88-1.5,1.29-2.22l.47-.82c2.53-4.48,4.94-8.58,7.19-12.38.13-.21.21-.33.27-.46.24-.42.45-.76.65-1.07.08-.13.18-.28.25-.43s.24-.42.33-.56c4-6.66,7.54-12.28,10.66-17.24l3.26-5.21c.28-.5.61-1,.92-1.54l.22-.36c1.21-2,2.29-3.78,3.28-5.49.26-.45.51-.9.75-1.35l.32-.59.46-.85.06-.13a48.21,48.21,0,0,0,3.73-8.56,13.32,13.32,0,0,0,.42-1.5c.15-.54.25-1,.33-1.4.17-.91.3-1.8.38-2.72a15.22,15.22,0,0,1,.73-3.42,21.72,21.72,0,0,1,.91-2.53,100.64,100.64,0,0,1,7.51-13.58l.26-.41c1-1.6,2-3.25,3-4.81.34-.56.67-1.11,1-1.67l.43-.73c.85-1.42,1.64-2.86,2.34-4.29,1.81-3.82,1.52-5.1,1.19-5.54-.47-.62-1.87-.77-4-.43-1.12.19-2.27.41-3.42.67a46.29,46.29,0,0,0-22.49,11.88c-.51.51-1,1-1.51,1.57a40.34,40.34,0,0,0-8.84,16.14,46.65,46.65,0,0,0-1.42,6.83,1.1,1.1,0,1,1-2.18-.29,48.63,48.63,0,0,1,1.49-7.15,42.53,42.53,0,0,1,9.33-17c.52-.57,1-1.11,1.58-1.65a48.47,48.47,0,0,1,23.56-12.47c1.19-.27,2.38-.49,3.54-.7,3.08-.5,5.08-.08,6.1,1.28,1.16,1.54.88,3.91-.9,7.67-.8,1.65-1.62,3.14-2.5,4.62l-.43.72c-.34.57-.67,1.13-1,1.69-.95,1.57-2,3.23-3,4.87l-.13.21a99.89,99.89,0,0,0-7.45,13.42,19.92,19.92,0,0,0-.84,2.32,13.23,13.23,0,0,0-.65,3c-.09,1-.23,1.94-.41,2.93-.09.47-.2.93-.33,1.4v0a15.67,15.67,0,0,1-.47,1.73,50,50,0,0,1-3.84,8.83l-.05.12-.54,1-.31.56c-.24.46-.51.94-.79,1.41-1,1.73-2.08,3.57-3.31,5.55l-.22.36c-.3.49-.61,1-.91,1.52-1,1.68-2.13,3.42-3.29,5.25-3.11,5-6.64,10.56-10.66,17.24-.09.14-.16.26-.23.38s-.22.4-.35.6-.39.64-.58,1c-.05.11-.17.3-.28.48-2.27,3.83-4.67,7.93-7.21,12.4l-.47.82c-.42.73-.85,1.48-1.3,2.24l-.57,1-.34.56-.24.39c-1,1.7-2.06,3.41-3.17,5.16-.27.45-.56.9-.86,1.36l-.31.48c-16.14,25.29-39.76,54.73-53.87,72.32-5.67,7.07-10.16,12.66-12.24,15.58-8.06,11.28-21.75,62-21.89,62.49A1.1,1.1,0,0,1,313.21,579.15Z" transform="translate(-26.36 -19.6)" fill="#203c83"/><path d="M382.12,381.79a1.1,1.1,0,0,1-.94-1.68,39.76,39.76,0,0,1,3.86-4.93c2-2.3,4.65-5.09,8.6-9l1.59-1.57c4.31-4.24,8.84-8.47,11.87-11.28l.5-.46c.39-.36.76-.71,1.14-1,2.93-2.7,5.34-4.87,6.71-6.1l1-.92.93.64-.77-.79a1.1,1.1,0,0,1,1.55,1.56s-.09.09-.27.24l-1,.9c-1.36,1.23-3.77,3.39-6.71,6.1-.38.34-.74.67-1.11,1l-.5.47c-3,2.8-7.53,7-11.82,11.22l-1.58,1.56c-3.92,3.92-6.54,6.67-8.5,8.94a38.13,38.13,0,0,0-3.65,4.64A1.1,1.1,0,0,1,382.12,381.79Z" transform="translate(-26.36 -19.6)" fill="#203c83"/><path d="M388.73,400a1.1,1.1,0,0,1-1.08-.9c0-.1-1.76-9.78-2.88-23.08-.67-8-1-15.7-1-22.86l0-1.37c0-.83,0-1.67,0-2.49a156.47,156.47,0,0,1,1.22-16.45c.11-.9.25-1.8.41-2.69A75.52,75.52,0,0,1,391,310.22c2.27-5,4.78-10.56,7.43-16.34.32-.76.68-1.55,1.07-2.34,14.22-31.34,28.48-62.79,32.84-72.81,1-2.4,2.58-5.61,4.36-9.33,4.86-10.15,11.51-24.05,14-33.91,0,0,0-.07,0-.1,1.76-7,.76-9.59-.38-10.48-3.46-2.71-6.19-3.6-15.06,6.92-4.14,4.85-9.32,11.8-16.87,22.17l-.15.21-.29.4a2.63,2.63,0,0,1-.24.33c-.1.17-.27.4-.45.64l-.17.23c-.16.21-.3.41-.42.59l-4.91,6.8c-.23.32-.46.64-.71,1-.41.59-.87,1.24-1.34,1.89h0s-3.26,4.62-7.9,11.38c-.43.65-.92,1.36-1.41,2.07-9.66,14.16-22.23,33.16-27.24,43.17,0,0-.14.26-.17.3-.25.54-.61,1.23-1,2-5.18,9.62-15.61,25.39-31,46.89l-1.13,1.58a1.1,1.1,0,0,1-2-.79c2.44-17.22,9.15-37.43,19.94-60.08.33-.71.67-1.4,1-2.11,3.24-6.69,6.82-13.53,10.61-20.29a73.28,73.28,0,0,0,4.07-9.78c.65-1.77,1.32-3.61,2-5.43.09-.22.17-.45.25-.68l.85-2.11c3-7.42,7-17.13,12.07-28.84l.88-2c4.53-10.5,9-20.67,13.33-30.26a67.1,67.1,0,0,0,5-16.16c.58-3.36.6-5.59.06-7.21-.59-1.82-1.91-3.18-4.84-5-2.7-.68-6.51,1.08-11,5.12-4.37,3.86-9.27,9.68-14.63,17.36-3,4.34-7.84,12.41-14,23.35-.24.4-.45.8-.67,1.19l-.43.77c-6.77,12.13-13.62,24.95-17.1,31.51-.37.68-.72,1.33-1,1.94-2.11,4-3.36,6.36-3.65,7-.4.81-2,4-4.3,8.44l-3.88,7.62c-7.1,13.93-16.65,32.73-17.7,35.16-1.72,4-19.57,37.91-38.54,53.17a1.1,1.1,0,0,1-1.38-1.72c18.63-15,36.2-48.36,37.89-52.32,1.08-2.49,10.65-21.33,17.76-35.28l3.89-7.63c2.26-4.43,3.89-7.62,4.29-8.41s1.82-3.53,3.67-7c.3-.6.66-1.28,1-2,3.47-6.55,10.33-19.38,17.12-31.54l.42-.76c.23-.41.45-.82.69-1.22,6.15-11,11-19.11,14.07-23.51,5.46-7.82,10.48-13.78,14.93-17.71,5.31-4.74,9.77-6.6,13.3-5.59a1.12,1.12,0,0,1,.27.12c2.91,1.78,5,3.53,5.92,6.27.66,2,.67,4.48,0,8.27A69.52,69.52,0,0,1,405,151.87c-4.31,9.58-8.79,19.74-13.31,30.22l-.88,2c-5,11.71-9.1,21.39-12.05,28.8l-.84,2.07c-.08.22-.17.47-.26.71-.71,1.81-1.38,3.62-2,5.38a74.48,74.48,0,0,1-4.22,10.1c-3.77,6.72-7.32,13.51-10.55,20.18-.36.71-.68,1.38-1,2.08-9.74,20.45-16.12,38.86-19,54.82,14.46-20.28,24.3-35.22,29.25-44.41.37-.69.71-1.36,1-2,0-.05.09-.16.12-.21,5.06-10.13,17.69-29.21,27.4-43.44.49-.71,1-1.41,1.41-2.06,4.66-6.79,7.93-11.42,7.93-11.42.47-.64.92-1.28,1.36-1.91.27-.35.48-.64.69-.94l4.9-6.78c.12-.18.29-.42.46-.64l.16-.22c.15-.2.3-.4.43-.61s.19-.24.23-.3l.48-.66c7.58-10.4,12.78-17.38,16.94-22.26,8.36-9.91,12.59-11.59,18.13-7.25,2.44,1.91,2.83,6.06,1.18,12.68l0,.09c-2.51,10.08-9.23,24.14-14.15,34.4-1.77,3.7-3.3,6.89-4.32,9.25-4.36,10-18.63,41.5-32.87,72.87-.38.78-.72,1.54-1,2.29-2.66,5.8-5.17,11.34-7.44,16.36a73.41,73.41,0,0,0-5.36,19.36c-.16.89-.28,1.76-.39,2.62a154,154,0,0,0-1.2,16.23c0,.82,0,1.64,0,2.46l0,1.37c0,7.08.28,14.7.95,22.64,1.11,13.19,2.84,22.78,2.85,22.87a1.1,1.1,0,0,1-.89,1.28Z" transform="translate(-26.36 -19.6)" fill="#203c83"/><path d="M218.39,325a1.1,1.1,0,0,1-.28-2.17c1.86-.67,17.12-15.24,21.59-26.89,4.05-10.6,22.49-55,28.54-69.62a149.32,149.32,0,0,1,7.18-14.91c2.8-5.08,6.77-13.07,11-21.53l1.52-3.06c.33-.7.66-1.39,1-2.09.66-1.3,1.3-2.63,1.93-3.92l.11-.23c.36-.68.69-1.35,1-2,4.64-9.33,7.67-15.18,9.83-19,.79-1.38,1.58-2.78,2.37-4.19C307,150.31,310,145,313,140.52c.42-.64.85-1.25,1.27-1.86.61-.86,1.17-1.65,1.78-2.41,1.95-2.48,7.84-10,14.17-6.83a10.07,10.07,0,0,1,4.58,4.08c1.65,3.07,1.12,6.91-.17,11.72-.53,1.95-1,4-1.49,6.19l-1,4.63a137.29,137.29,0,0,1-3.61,14.44c-2.1,6.31-4.54,13.56-7,20.8-.24.68-.48,1.37-.7,2.07l-.79,2.29c-1.5,4.35-3,8.62-4.36,12.59l-.33.94c-.16.44-.31.87-.45,1.31-2.82,8-6.38,17.95-7.36,19.69-2.14,3.77-4.26,10-6.51,16.64-1.75,5.16-3.56,10.49-5.56,15.22-4.44,10.47-9.25,42.41-9.3,42.73a1.11,1.11,0,0,1-1.25.93,1.1,1.1,0,0,1-.93-1.25c.2-1.32,4.9-32.54,9.45-43.27,2-4.66,3.76-9.95,5.5-15.07,2.28-6.72,4.44-13.07,6.68-17,.69-1.23,3.32-8.27,7.19-19.31.14-.43.3-.89.47-1.35l.33-.92c1.39-4,2.86-8.24,4.36-12.59l.78-2.26c.21-.69.46-1.41.71-2.1,2.47-7.22,4.91-14.47,7-20.78A135.82,135.82,0,0,0,330,155.6l1-4.63c.5-2.22,1-4.34,1.52-6.31,1.16-4.31,1.66-7.68.36-10.11a7.88,7.88,0,0,0-3.63-3.15c-3.22-1.61-6.85.36-11.42,6.2-.61.76-1.15,1.52-1.73,2.34-.41.58-.82,1.17-1.23,1.79-2.94,4.42-5.92,9.7-8.79,14.8l-2.38,4.2c-2.14,3.77-5.15,9.59-9.76,18.86-.31.64-.65,1.34-1,2l-.09.19c-.63,1.3-1.28,2.64-2,4-.35.68-.67,1.35-1,2l-1.53,3.08c-4.21,8.48-8.18,16.5-11,21.61a147.13,147.13,0,0,0-7.07,14.68c-6.05,14.59-24.48,59-28.52,69.57-4.57,11.91-20.31,27.54-23.1,28.24A1.15,1.15,0,0,1,218.39,325Z" transform="translate(-26.36 -19.6)" fill="#203c83"/><path d="M182.55,543.69a1.1,1.1,0,0,1-.83-1.83c4.76-5.45,10.38-31.83,10-47-.1-3.86-.62-11.16-1.72-23.68l-.22-2.48c-.48-5.43-1-11.31-1.56-17.32-.43-4.79-.88-9.67-1.31-14.48l-.22-2.48c-1.38-15.5-2.71-31-3-39.71l0-.57c0-.92,0-2,0-3.3s.11-2.61.22-4.12a1,1,0,0,1,0-.2c0-.48.06-1,.1-1.47l.08-1.1c2.93-33.32,18.14-117.1,18.3-117.94.09-.3,4.82-14.12,6.61-24.55a94.66,94.66,0,0,1,6.7-22.69l.3-.67c2-4.37,6.61-14.6,13.7-27a41.76,41.76,0,0,1,2.38-3.71,2.75,2.75,0,0,1,.18-.22c3-4.2,6.07-6.22,9-5.88,1.87.22,4.56,1.56,6.71,6.74.3.71.57,1.47.83,2.28,2.33,7.32-1.23,21.28-10.9,42.66a351.05,351.05,0,0,1-3,36.4c2.18,12,5.17,30,5.2,30.16a1.1,1.1,0,0,1-2.17.36c0-.18-3-18.32-5.22-30.3a1.11,1.11,0,0,1,0-.37,343.2,343.2,0,0,0,3-36.54,1.08,1.08,0,0,1,.1-.41c9.37-20.68,13-34.57,10.89-41.28-.23-.74-.49-1.44-.76-2.09-1-2.32-2.59-5.13-4.93-5.4-2-.23-4.49,1.53-7.08,5.11a2.7,2.7,0,0,1-.2.24c-.63.9-1.39,2.09-2.12,3.36-7,12.3-11.65,22.47-13.61,26.8l-.3.67a92.28,92.28,0,0,0-6.53,22.16c-1.82,10.62-6.61,24.6-6.66,24.74-.11.68-15.31,84.36-18.22,117.56l-.08,1.1c0,.56-.09,1.11-.11,1.64a1.13,1.13,0,0,1,0,.24c-.1,1.4-.16,2.68-.2,3.82s0,2.29,0,3.2l0,.56c.34,8.57,1.66,24.09,3,39.57l.22,2.45c.43,4.83.87,9.71,1.31,14.49.55,6,1.08,11.9,1.56,17.34l.22,2.48c1.09,12.56,1.62,19.9,1.72,23.81.34,14.65-5.06,42.23-10.57,48.54A1.1,1.1,0,0,1,182.55,543.69Z" transform="translate(-26.36 -19.6)" fill="#203c83"/><path d="M220.19,373.25a.55.55,0,0,1-.19,0c-2.39-.84-1.34-18.85-.5-29.5a.54.54,0,0,1,.59-.51.55.55,0,0,1,.51.59c-1,13.14-1.38,27.35-.18,28.4a.53.53,0,0,1,.31.69A.56.56,0,0,1,220.19,373.25Z" transform="translate(-26.36 -19.6)" fill="#203c83"/><path d="M224.73,345.54h-.06a.55.55,0,0,1-.49-.61c.42-3.9,1.54-4.61,1.87-4.73a.55.55,0,0,1,.43,1c-.07,0-.86.67-1.2,3.83A.55.55,0,0,1,224.73,345.54Z" transform="translate(-26.36 -19.6)" fill="#203c83"/><path d="M242.92,369.8a.54.54,0,0,1-.36-.13.55.55,0,0,1-.06-.78c11.57-13.43,9.16-20.46,9.14-20.53a.55.55,0,0,1,1-.39c.12.31,2.74,7.64-9.33,21.64A.55.55,0,0,1,242.92,369.8Z" transform="translate(-26.36 -19.6)" fill="#203c83"/><path d="M287.85,377.79a.55.55,0,0,1-.43-.2c-3.31-4-.77-14.64-.66-15.09a.55.55,0,0,1,1.07.26c0,.1-2.52,10.53.44,14.13a.55.55,0,0,1-.43.9Z" transform="translate(-26.36 -19.6)" fill="#203c83"/><path d="M300.94,371.87h0a.55.55,0,0,1-.5-.59,17.68,17.68,0,0,0-.43-6.7c-.1-.4-.19-.78-.26-1.16a.74.74,0,0,0-.12-.37,1.65,1.65,0,0,0-.6.39.55.55,0,0,1-.78-.78c.15-.15.94-.91,1.73-.65.31.1.72.39.86,1.22.06.36.15.7.24,1.07a18.65,18.65,0,0,1,.45,7.05A.55.55,0,0,1,300.94,371.87Z" transform="translate(-26.36 -19.6)" fill="#203c83"/><path d="M224.31,228.26a.55.55,0,0,1-.41-.19c-2-2.29-9.09-3.12-9.16-3.13a.55.55,0,0,1-.49-.61.56.56,0,0,1,.61-.49c.31,0,7.54.88,9.86,3.49a.55.55,0,0,1-.41.92Z" transform="translate(-26.36 -19.6)" fill="#203c83"/><path d="M221.83,235c-1.14,0-8-2.32-9.41-2.79a.55.55,0,0,1,.35-1,88.06,88.06,0,0,0,9.06,2.73.55.55,0,1,1,0,1.1Z" transform="translate(-26.36 -19.6)" fill="#203c83"/><path d="M220.73,266.57a.55.55,0,0,1-.42-.19c-4.32-5.11-14.47-4.64-14.57-4.63a.54.54,0,0,1-.58-.52.55.55,0,0,1,.52-.58c.44,0,10.8-.5,15.47,5a.55.55,0,0,1-.42.91Z" transform="translate(-26.36 -19.6)" fill="#203c83"/><path d="M204.74,265.33a.55.55,0,0,1-.07-1.1c1.23-.16,12.09-1.5,14.25-.35a.55.55,0,1,1-.52,1c-1.39-.75-9.08-.1-13.59.47Z" transform="translate(-26.36 -19.6)" fill="#203c83"/><path d="M214.12,272.09a.55.55,0,0,1-.44-.22c-1.36-1.77-7.76-3-10.11-3.37a.55.55,0,1,1,.16-1.09c.91.13,9,1.34,10.83,3.79a.55.55,0,0,1-.44.89Z" transform="translate(-26.36 -19.6)" fill="#203c83"/><path d="M213,275a45.7,45.7,0,0,1-10.7-1.59.55.55,0,1,1,.3-1.06c.12,0,12.06,3.33,16.2.23a.55.55,0,1,1,.66.88C217.86,274.65,215.47,275,213,275Z" transform="translate(-26.36 -19.6)" fill="#203c83"/><path d="M304.8,184.57a.55.55,0,0,1-.49-.3,20.89,20.89,0,0,0-4.19-2.94.55.55,0,1,1,.56-1c1,.57,4.17,2.5,4.63,3.4a.55.55,0,0,1-.25.74A.53.53,0,0,1,304.8,184.57Z" transform="translate(-26.36 -19.6)" fill="#203c83"/><path d="M292.12,232a.55.55,0,0,1-.49-.3,27.69,27.69,0,0,0-3.34-5.23c-1-1-5-1.1-7.29-.94a.53.53,0,0,1-.59-.51.55.55,0,0,1,.51-.59c.66,0,6.5-.38,8.14,1.26a28,28,0,0,1,3.55,5.52.55.55,0,0,1-.25.74A.53.53,0,0,1,292.12,232Z" transform="translate(-26.36 -19.6)" fill="#203c83"/><path d="M285.64,231.29a.55.55,0,0,1-.33-.11,14,14,0,0,0-3.39-2.09,30,30,0,0,0-4.63,1.48.55.55,0,1,1-.39-1,30.15,30.15,0,0,1,5-1.55c.91,0,3.14,1.62,4.05,2.32a.55.55,0,0,1-.33,1Z" transform="translate(-26.36 -19.6)" fill="#203c83"/><path d="M280.35,235.28a2.7,2.7,0,0,1-1-.2,4.17,4.17,0,0,1-2.07-2.37.55.55,0,0,1,1-.35,3.09,3.09,0,0,0,1.44,1.7,2.09,2.09,0,0,0,1.78-.22.55.55,0,1,1,.51,1A3.67,3.67,0,0,1,280.35,235.28Z" transform="translate(-26.36 -19.6)" fill="#203c83"/><path d="M283.46,242.94c-2.07,0-4.69-2.83-5-3.15a.55.55,0,1,1,.82-.74c.71.78,2.82,2.79,4.16,2.79h0a.81.81,0,0,0,.64-.3.55.55,0,1,1,.84.72,1.91,1.91,0,0,1-1.47.68Z" transform="translate(-26.36 -19.6)" fill="#203c83"/><path d="M285,251.84a19.61,19.61,0,0,1-8.44-2.43.55.55,0,1,1,.54-1c.06,0,5.9,3.3,10.23,2a5.87,5.87,0,0,0,3.6-3.23.55.55,0,0,1,1,.48,6.93,6.93,0,0,1-4.27,3.81A8.93,8.93,0,0,1,285,251.84Z" transform="translate(-26.36 -19.6)" fill="#203c83"/><path d="M373.71,180.58h0c-1.6-.15-5.71-2.69-6.17-3a.55.55,0,0,1,.59-.93c1.73,1.08,4.67,2.72,5.68,2.81a.55.55,0,0,1,0,1.1Z" transform="translate(-26.36 -19.6)" fill="#203c83"/><path d="M371.1,188.86a8.7,8.7,0,0,1-5.64-2.38.55.55,0,0,1,.78-.78s2.73,2.67,6.1,1.92a.55.55,0,0,1,.24,1.08A6.89,6.89,0,0,1,371.1,188.86Z" transform="translate(-26.36 -19.6)" fill="#203c83"/><path d="M348.21,229.91a.55.55,0,0,1-.44-.22c-.81-1.08-6.65-2.64-10.14-3.37a.55.55,0,1,1,.22-1.08c1.58.33,9.5,2.06,10.8,3.79a.55.55,0,0,1-.44.88Z" transform="translate(-26.36 -19.6)" fill="#203c83"/><path d="M347,235.57a.55.55,0,0,1-.49-.3c-.5-1-1.55-2.72-2.23-3.06-1.28-.64-2-3.76-2.09-4.38a.55.55,0,0,1,.43-.65.54.54,0,0,1,.65.43c.31,1.53,1,3.35,1.5,3.61,1.23.62,2.58,3.25,2.73,3.55a.55.55,0,0,1-.49.8Z" transform="translate(-26.36 -19.6)" fill="#203c83"/><path d="M342.34,232.72a6.63,6.63,0,0,1-2-.35l-.11-.05a5.31,5.31,0,0,1-.67-.27.55.55,0,0,1,.49-1,4.94,4.94,0,0,0,.61.23h0l.11,0a3.5,3.5,0,0,0,2.87-.08.55.55,0,1,1,.65.89A3.23,3.23,0,0,1,342.34,232.72Z" transform="translate(-26.36 -19.6)" fill="#203c83"/><path d="M341.18,237.63c-1.46,0-4.57-1.41-4.92-1.57a.55.55,0,1,1,.46-1,17.09,17.09,0,0,0,4.46,1.47.55.55,0,0,1,0,1.1Z" transform="translate(-26.36 -19.6)" fill="#203c83"/><path d="M349.59,242.49a9.21,9.21,0,0,1-2.3-.33,20.77,20.77,0,0,1-4.29-1.7.55.55,0,0,1,.53-1,20,20,0,0,0,4,1.6,6.44,6.44,0,0,0,3,.19,2.63,2.63,0,0,0,.49-.16.55.55,0,0,1,.45,1,3.69,3.69,0,0,1-.7.23A5.34,5.34,0,0,1,349.59,242.49Z" transform="translate(-26.36 -19.6)" fill="#203c83"/><path d="M355.38,244.8a.55.55,0,0,1-.4-.92,9.82,9.82,0,0,0,2.08-3.5.54.54,0,0,1,.68-.38.55.55,0,0,1,.38.68,10.77,10.77,0,0,1-2.33,3.94A.54.54,0,0,1,355.38,244.8Z" transform="translate(-26.36 -19.6)" fill="#203c83"/><path d="M343.69,246.59c-2,0-4.43-2.77-4.71-3.09a.55.55,0,0,1,.84-.72c.94,1.09,2.91,2.76,3.95,2.71a.52.52,0,0,1,.59.51.55.55,0,0,1-.51.59Z" transform="translate(-26.36 -19.6)" fill="#203c83"/><path d="M344.84,252.12a16.42,16.42,0,0,1-11.23-4.76.55.55,0,0,1,.82-.74c.33.36,8.17,8.75,19.43,1.47a21.69,21.69,0,0,0,1.79-1.27l.35-.26a.55.55,0,1,1,.69.86l-.35.26a22.8,22.8,0,0,1-1.88,1.34A17.55,17.55,0,0,1,344.84,252.12Z" transform="translate(-26.36 -19.6)" fill="#203c83"/><path d="M423.87,204.14a.55.55,0,0,1-.44-.22,47.36,47.36,0,0,0-4-3.2.55.55,0,1,1,.65-.89,44.59,44.59,0,0,1,4.25,3.42.55.55,0,0,1-.44.88Z" transform="translate(-26.36 -19.6)" fill="#203c83"/><path d="M406.65,253.48h0a.55.55,0,0,1-.51-.59,5.44,5.44,0,0,0-1.52-4.3c-4-4.26-14.42-4.62-17.78-4.62a1.78,1.78,0,0,0-.66.07.65.65,0,0,0,.06.24.55.55,0,0,1-1,.49,1.45,1.45,0,0,1,0-1.32,1.68,1.68,0,0,1,1.51-.58c4.44,0,14.49.51,18.66,5A6.56,6.56,0,0,1,407.2,253,.55.55,0,0,1,406.65,253.48Z" transform="translate(-26.36 -19.6)" fill="#203c83"/><path d="M397.14,251.83a.54.54,0,0,1-.2,0,30.72,30.72,0,0,0-10.81-2.17.54.54,0,0,1-.57-.54.55.55,0,0,1,.54-.57,31.63,31.63,0,0,1,11.24,2.24.55.55,0,0,1-.2,1.06Z" transform="translate(-26.36 -19.6)" fill="#203c83"/><path d="M398.49,260c-2.54,0-5.69-3.9-6.06-4.37a.55.55,0,0,1,.87-.68c1.31,1.66,3.91,4.18,5.4,3.93a.54.54,0,0,1,.64.45.55.55,0,0,1-.45.64A2.2,2.2,0,0,1,398.49,260Z" transform="translate(-26.36 -19.6)" fill="#203c83"/><path d="M393.37,259.56a3.38,3.38,0,0,1-.5,0c-2.19-.33-3.85-2.73-3.91-2.84a.55.55,0,0,1,.91-.62s1.46,2.11,3.17,2.37a2.24,2.24,0,0,0,1.82-.55.55.55,0,1,1,.69.86A3.42,3.42,0,0,1,393.37,259.56Z" transform="translate(-26.36 -19.6)" fill="#203c83"/><path d="M396.25,266.91a9.39,9.39,0,0,1-1.42-.07c-1.62-.3-4.37-2.75-4.68-3a.55.55,0,0,1,.74-.82c.77.7,3,2.56,4.14,2.76s7.76-.23,10.19-.42a.51.51,0,0,1,.59.51.55.55,0,0,1-.51.59C404.57,266.49,399.08,266.91,396.25,266.91Z" transform="translate(-26.36 -19.6)" fill="#203c83"/><path d="M435.45,367.59a.55.55,0,0,1-.51-.34c-2.78-6.58-9.48-4.09-9.77-4a.55.55,0,0,1-.4-1c.08,0,8-3,11.18,4.57a.55.55,0,0,1-.51.77Z" transform="translate(-26.36 -19.6)" fill="#203c83"/><path d="M433.69,371.74c-2,0-4-4.89-4.55-6.43a.55.55,0,0,1,1-.38c1,2.75,2.67,5.72,3.49,5.72h0a.55.55,0,0,1,.17,1.09Z" transform="translate(-26.36 -19.6)" fill="#203c83"/><path d="M430.08,376.55a.55.55,0,0,1-.55-.55,27.4,27.4,0,0,0-4.35-4.12.55.55,0,0,1,.7-.85c3.15,2.58,4.75,4.25,4.75,5A.55.55,0,0,1,430.08,376.55Z" transform="translate(-26.36 -19.6)" fill="#203c83"/><path d="M428.56,379.31h-.06c-6.62-.73-6.69-6.42-6.69-6.47a.55.55,0,0,1,.55-.55h0a.55.55,0,0,1,.55.55c0,.19.09,4.76,5.71,5.38a.55.55,0,0,1-.06,1.1Z" transform="translate(-26.36 -19.6)" fill="#203c83"/><path d="M313.21,579.15a1.1,1.1,0,0,1-1.06-1.39c.56-2.1,13.93-51.59,22.22-63.2,2.12-3,6.62-8.57,12.32-15.67,14.09-17.55,37.66-46.94,53.74-72.13l.32-.5c.28-.44.57-.87.84-1.31,1.11-1.75,2.16-3.44,3.14-5.12l1.14-1.91c.45-.76.88-1.5,1.29-2.22l.47-.82c2.53-4.48,4.94-8.58,7.19-12.38.13-.21.21-.33.27-.46.24-.42.45-.76.65-1.07.08-.13.18-.28.25-.43s.24-.42.33-.56c4-6.66,7.54-12.28,10.66-17.24l3.26-5.21c.28-.5.61-1,.92-1.54l.22-.36c1.21-2,2.29-3.78,3.28-5.49.26-.45.51-.9.75-1.35l.32-.59.46-.85.06-.13a48.21,48.21,0,0,0,3.73-8.56,13.32,13.32,0,0,0,.42-1.5c.15-.54.25-1,.33-1.4.17-.91.3-1.8.38-2.72a15.22,15.22,0,0,1,.73-3.42,21.72,21.72,0,0,1,.91-2.53,100.64,100.64,0,0,1,7.51-13.58l.26-.41c1-1.6,2-3.25,3-4.81.34-.56.67-1.11,1-1.67l.43-.73c.85-1.42,1.64-2.86,2.34-4.29,1.81-3.82,1.52-5.1,1.19-5.54-.47-.62-1.87-.77-4-.43-1.12.19-2.27.41-3.42.67a46.29,46.29,0,0,0-22.49,11.88c-.51.51-1,1-1.51,1.57a40.34,40.34,0,0,0-8.84,16.14,46.65,46.65,0,0,0-1.42,6.83,1.1,1.1,0,1,1-2.18-.29,48.63,48.63,0,0,1,1.49-7.15,42.53,42.53,0,0,1,9.33-17c.52-.57,1-1.11,1.58-1.65a48.47,48.47,0,0,1,23.56-12.47c1.19-.27,2.38-.49,3.54-.7,3.08-.5,5.08-.08,6.1,1.28,1.16,1.54.88,3.91-.9,7.67-.8,1.65-1.62,3.14-2.5,4.62l-.43.72c-.34.57-.67,1.13-1,1.69-.95,1.57-2,3.23-3,4.87l-.13.21a99.89,99.89,0,0,0-7.45,13.42,19.92,19.92,0,0,0-.84,2.32,13.23,13.23,0,0,0-.65,3c-.09,1-.23,1.94-.41,2.93-.09.47-.2.93-.33,1.4v0a15.67,15.67,0,0,1-.47,1.73,50,50,0,0,1-3.84,8.83l-.05.12-.54,1-.31.56c-.24.46-.51.94-.79,1.41-1,1.73-2.08,3.57-3.31,5.55l-.22.36c-.3.49-.61,1-.91,1.52-1,1.68-2.13,3.42-3.29,5.25-3.11,5-6.64,10.56-10.66,17.24-.09.14-.16.26-.23.38s-.22.4-.35.6-.39.64-.58,1c-.05.11-.17.3-.28.48-2.27,3.83-4.67,7.93-7.21,12.4l-.47.82c-.42.73-.85,1.48-1.3,2.24l-.57,1-.34.56-.24.39c-1,1.7-2.06,3.41-3.17,5.16-.27.45-.56.9-.86,1.36l-.31.48c-16.14,25.29-39.76,54.73-53.87,72.32-5.67,7.07-10.16,12.66-12.24,15.58-8.06,11.28-21.75,62-21.89,62.49A1.1,1.1,0,0,1,313.21,579.15Z" transform="translate(-26.36 -19.6)" fill="#203c83"/><path d="M382.12,381.79a1.1,1.1,0,0,1-.94-1.68,39.76,39.76,0,0,1,3.86-4.93c2-2.3,4.65-5.09,8.6-9l1.59-1.57c4.31-4.24,8.84-8.47,11.87-11.28l.5-.46c.39-.36.76-.71,1.14-1,2.93-2.7,5.34-4.87,6.71-6.1l1-.92.93.64-.77-.79a1.1,1.1,0,0,1,1.55,1.56s-.09.09-.27.24l-1,.9c-1.36,1.23-3.77,3.39-6.71,6.1-.38.34-.74.67-1.11,1l-.5.47c-3,2.8-7.53,7-11.82,11.22l-1.58,1.56c-3.92,3.92-6.54,6.67-8.5,8.94a38.13,38.13,0,0,0-3.65,4.64A1.1,1.1,0,0,1,382.12,381.79Z" transform="translate(-26.36 -19.6)" fill="#203c83"/><path d="M388.73,400a1.1,1.1,0,0,1-1.08-.9c0-.1-1.76-9.78-2.88-23.08-.67-8-1-15.7-1-22.86l0-1.37c0-.83,0-1.67,0-2.49a156.47,156.47,0,0,1,1.22-16.45c.11-.9.25-1.8.41-2.69A75.52,75.52,0,0,1,391,310.22c2.27-5,4.78-10.56,7.43-16.34.32-.76.68-1.55,1.07-2.34,14.22-31.34,28.48-62.79,32.84-72.81,1-2.4,2.58-5.61,4.36-9.33,4.86-10.15,11.51-24.05,14-33.91,0,0,0-.07,0-.1,1.76-7,.76-9.59-.38-10.48-3.46-2.71-6.19-3.6-15.06,6.92-4.14,4.85-9.32,11.8-16.87,22.17l-.15.21-.29.4a2.63,2.63,0,0,1-.24.33c-.1.17-.27.4-.45.64l-.17.23c-.16.21-.3.41-.42.59l-4.91,6.8c-.23.32-.46.64-.71,1-.41.59-.87,1.24-1.34,1.89h0s-3.26,4.62-7.9,11.38c-.43.65-.92,1.36-1.41,2.07-9.66,14.16-22.23,33.16-27.24,43.17,0,0-.14.26-.17.3-.25.54-.61,1.23-1,2-5.18,9.62-15.61,25.39-31,46.89l-1.13,1.58a1.1,1.1,0,0,1-2-.79c2.44-17.22,9.15-37.43,19.94-60.08.33-.71.67-1.4,1-2.11,3.24-6.69,6.82-13.53,10.61-20.29a73.28,73.28,0,0,0,4.07-9.78c.65-1.77,1.32-3.61,2-5.43.09-.22.17-.45.25-.68l.85-2.11c3-7.42,7-17.13,12.07-28.84l.88-2c4.53-10.5,9-20.67,13.33-30.26a67.1,67.1,0,0,0,5-16.16c.58-3.36.6-5.59.06-7.21-.59-1.82-1.91-3.18-4.84-5-2.7-.68-6.51,1.08-11,5.12-4.37,3.86-9.27,9.68-14.63,17.36-3,4.34-7.84,12.41-14,23.35-.24.4-.45.8-.67,1.19l-.43.77c-6.77,12.13-13.62,24.95-17.1,31.51-.37.68-.72,1.33-1,1.94-2.11,4-3.36,6.36-3.65,7-.4.81-2,4-4.3,8.44l-3.88,7.62c-7.1,13.93-16.65,32.73-17.7,35.16-1.72,4-19.57,37.91-38.54,53.17a1.1,1.1,0,0,1-1.38-1.72c18.63-15,36.2-48.36,37.89-52.32,1.08-2.49,10.65-21.33,17.76-35.28l3.89-7.63c2.26-4.43,3.89-7.62,4.29-8.41s1.82-3.53,3.67-7c.3-.6.66-1.28,1-2,3.47-6.55,10.33-19.38,17.12-31.54l.42-.76c.23-.41.45-.82.69-1.22,6.15-11,11-19.11,14.07-23.51,5.46-7.82,10.48-13.78,14.93-17.71,5.31-4.74,9.77-6.6,13.3-5.59a1.12,1.12,0,0,1,.27.12c2.91,1.78,5,3.53,5.92,6.27.66,2,.67,4.48,0,8.27A69.52,69.52,0,0,1,405,151.87c-4.31,9.58-8.79,19.74-13.31,30.22l-.88,2c-5,11.71-9.1,21.39-12.05,28.8l-.84,2.07c-.08.22-.17.47-.26.71-.71,1.81-1.38,3.62-2,5.38a74.48,74.48,0,0,1-4.22,10.1c-3.77,6.72-7.32,13.51-10.55,20.18-.36.71-.68,1.38-1,2.08-9.74,20.45-16.12,38.86-19,54.82,14.46-20.28,24.3-35.22,29.25-44.41.37-.69.71-1.36,1-2,0-.05.09-.16.12-.21,5.06-10.13,17.69-29.21,27.4-43.44.49-.71,1-1.41,1.41-2.06,4.66-6.79,7.93-11.42,7.93-11.42.47-.64.92-1.28,1.36-1.91.27-.35.48-.64.69-.94l4.9-6.78c.12-.18.29-.42.46-.64l.16-.22c.15-.2.3-.4.43-.61s.19-.24.23-.3l.48-.66c7.58-10.4,12.78-17.38,16.94-22.26,8.36-9.91,12.59-11.59,18.13-7.25,2.44,1.91,2.83,6.06,1.18,12.68l0,.09c-2.51,10.08-9.23,24.14-14.15,34.4-1.77,3.7-3.3,6.89-4.32,9.25-4.36,10-18.63,41.5-32.87,72.87-.38.78-.72,1.54-1,2.29-2.66,5.8-5.17,11.34-7.44,16.36a73.41,73.41,0,0,0-5.36,19.36c-.16.89-.28,1.76-.39,2.62a154,154,0,0,0-1.2,16.23c0,.82,0,1.64,0,2.46l0,1.37c0,7.08.28,14.7.95,22.64,1.11,13.19,2.84,22.78,2.85,22.87a1.1,1.1,0,0,1-.89,1.28Z" transform="translate(-26.36 -19.6)" fill="#203c83"/><path d="M218.39,325a1.1,1.1,0,0,1-.28-2.17c1.86-.67,17.12-15.24,21.59-26.89,4.05-10.6,22.49-55,28.54-69.62a149.32,149.32,0,0,1,7.18-14.91c2.8-5.08,6.77-13.07,11-21.53l1.52-3.06c.33-.7.66-1.39,1-2.09.66-1.3,1.3-2.63,1.93-3.92l.11-.23c.36-.68.69-1.35,1-2,4.64-9.33,7.67-15.18,9.83-19,.79-1.38,1.58-2.78,2.37-4.19C307,150.31,310,145,313,140.52c.42-.64.85-1.25,1.27-1.86.61-.86,1.17-1.65,1.78-2.41,1.95-2.48,7.84-10,14.17-6.83a10.07,10.07,0,0,1,4.58,4.08c1.65,3.07,1.12,6.91-.17,11.72-.53,1.95-1,4-1.49,6.19l-1,4.63a137.29,137.29,0,0,1-3.61,14.44c-2.1,6.31-4.54,13.56-7,20.8-.24.68-.48,1.37-.7,2.07l-.79,2.29c-1.5,4.35-3,8.62-4.36,12.59l-.33.94c-.16.44-.31.87-.45,1.31-2.82,8-6.38,17.95-7.36,19.69-2.14,3.77-4.26,10-6.51,16.64-1.75,5.16-3.56,10.49-5.56,15.22-4.44,10.47-9.25,42.41-9.3,42.73a1.11,1.11,0,0,1-1.25.93,1.1,1.1,0,0,1-.93-1.25c.2-1.32,4.9-32.54,9.45-43.27,2-4.66,3.76-9.95,5.5-15.07,2.28-6.72,4.44-13.07,6.68-17,.69-1.23,3.32-8.27,7.19-19.31.14-.43.3-.89.47-1.35l.33-.92c1.39-4,2.86-8.24,4.36-12.59l.78-2.26c.21-.69.46-1.41.71-2.1,2.47-7.22,4.91-14.47,7-20.78A135.82,135.82,0,0,0,330,155.6l1-4.63c.5-2.22,1-4.34,1.52-6.31,1.16-4.31,1.66-7.68.36-10.11a7.88,7.88,0,0,0-3.63-3.15c-3.22-1.61-6.85.36-11.42,6.2-.61.76-1.15,1.52-1.73,2.34-.41.58-.82,1.17-1.23,1.79-2.94,4.42-5.92,9.7-8.79,14.8l-2.38,4.2c-2.14,3.77-5.15,9.59-9.76,18.86-.31.64-.65,1.34-1,2l-.09.19c-.63,1.3-1.28,2.64-2,4-.35.68-.67,1.35-1,2l-1.53,3.08c-4.21,8.48-8.18,16.5-11,21.61a147.13,147.13,0,0,0-7.07,14.68c-6.05,14.59-24.48,59-28.52,69.57-4.57,11.91-20.31,27.54-23.1,28.24A1.15,1.15,0,0,1,218.39,325Z" transform="translate(-26.36 -19.6)" fill="#203c83"/><path d="M182.55,543.69a1.1,1.1,0,0,1-.83-1.83c4.76-5.45,10.38-31.83,10-47-.1-3.86-.62-11.16-1.72-23.68l-.22-2.48c-.48-5.43-1-11.31-1.56-17.32-.43-4.79-.88-9.67-1.31-14.48l-.22-2.48c-1.38-15.5-2.71-31-3-39.71l0-.57c0-.92,0-2,0-3.3s.11-2.61.22-4.12a1,1,0,0,1,0-.2c0-.48.06-1,.1-1.47l.08-1.1c2.93-33.32,18.14-117.1,18.3-117.94.09-.3,4.82-14.12,6.61-24.55a94.66,94.66,0,0,1,6.7-22.69l.3-.67c2-4.37,6.61-14.6,13.7-27a41.76,41.76,0,0,1,2.38-3.71,2.75,2.75,0,0,1,.18-.22c3-4.2,6.07-6.22,9-5.88,1.87.22,4.56,1.56,6.71,6.74.3.71.57,1.47.83,2.28,2.33,7.32-1.23,21.28-10.9,42.66a351.05,351.05,0,0,1-3,36.4c2.18,12,5.17,30,5.2,30.16a1.1,1.1,0,0,1-2.17.36c0-.18-3-18.32-5.22-30.3a1.11,1.11,0,0,1,0-.37,343.2,343.2,0,0,0,3-36.54,1.08,1.08,0,0,1,.1-.41c9.37-20.68,13-34.57,10.89-41.28-.23-.74-.49-1.44-.76-2.09-1-2.32-2.59-5.13-4.93-5.4-2-.23-4.49,1.53-7.08,5.11a2.7,2.7,0,0,1-.2.24c-.63.9-1.39,2.09-2.12,3.36-7,12.3-11.65,22.47-13.61,26.8l-.3.67a92.28,92.28,0,0,0-6.53,22.16c-1.82,10.62-6.61,24.6-6.66,24.74-.11.68-15.31,84.36-18.22,117.56l-.08,1.1c0,.56-.09,1.11-.11,1.64a1.13,1.13,0,0,1,0,.24c-.1,1.4-.16,2.68-.2,3.82s0,2.29,0,3.2l0,.56c.34,8.57,1.66,24.09,3,39.57l.22,2.45c.43,4.83.87,9.71,1.31,14.49.55,6,1.08,11.9,1.56,17.34l.22,2.48c1.09,12.56,1.62,19.9,1.72,23.81.34,14.65-5.06,42.23-10.57,48.54A1.1,1.1,0,0,1,182.55,543.69Z" transform="translate(-26.36 -19.6)" fill="#203c83"/><path d="M220.19,373.25a.55.55,0,0,1-.19,0c-2.39-.84-1.34-18.85-.5-29.5a.54.54,0,0,1,.59-.51.55.55,0,0,1,.51.59c-1,13.14-1.38,27.35-.18,28.4a.53.53,0,0,1,.31.69A.56.56,0,0,1,220.19,373.25Z" transform="translate(-26.36 -19.6)" fill="#203c83"/><path d="M224.73,345.54h-.06a.55.55,0,0,1-.49-.61c.42-3.9,1.54-4.61,1.87-4.73a.55.55,0,0,1,.43,1c-.07,0-.86.67-1.2,3.83A.55.55,0,0,1,224.73,345.54Z" transform="translate(-26.36 -19.6)" fill="#203c83"/><path d="M242.92,369.8a.54.54,0,0,1-.36-.13.55.55,0,0,1-.06-.78c11.57-13.43,9.16-20.46,9.14-20.53a.55.55,0,0,1,1-.39c.12.31,2.74,7.64-9.33,21.64A.55.55,0,0,1,242.92,369.8Z" transform="translate(-26.36 -19.6)" fill="#203c83"/><path d="M287.85,377.79a.55.55,0,0,1-.43-.2c-3.31-4-.77-14.64-.66-15.09a.55.55,0,0,1,1.07.26c0,.1-2.52,10.53.44,14.13a.55.55,0,0,1-.43.9Z" transform="translate(-26.36 -19.6)" fill="#203c83"/><path d="M300.94,371.87h0a.55.55,0,0,1-.5-.59,17.68,17.68,0,0,0-.43-6.7c-.1-.4-.19-.78-.26-1.16a.74.74,0,0,0-.12-.37,1.65,1.65,0,0,0-.6.39.55.55,0,0,1-.78-.78c.15-.15.94-.91,1.73-.65.31.1.72.39.86,1.22.06.36.15.7.24,1.07a18.65,18.65,0,0,1,.45,7.05A.55.55,0,0,1,300.94,371.87Z" transform="translate(-26.36 -19.6)" fill="#203c83"/><path d="M224.31,228.26a.55.55,0,0,1-.41-.19c-2-2.29-9.09-3.12-9.16-3.13a.55.55,0,0,1-.49-.61.56.56,0,0,1,.61-.49c.31,0,7.54.88,9.86,3.49a.55.55,0,0,1-.41.92Z" transform="translate(-26.36 -19.6)" fill="#203c83"/><path d="M221.83,235c-1.14,0-8-2.32-9.41-2.79a.55.55,0,0,1,.35-1,88.06,88.06,0,0,0,9.06,2.73.55.55,0,1,1,0,1.1Z" transform="translate(-26.36 -19.6)" fill="#203c83"/><path d="M220.73,266.57a.55.55,0,0,1-.42-.19c-4.32-5.11-14.47-4.64-14.57-4.63a.54.54,0,0,1-.58-.52.55.55,0,0,1,.52-.58c.44,0,10.8-.5,15.47,5a.55.55,0,0,1-.42.91Z" transform="translate(-26.36 -19.6)" fill="#203c83"/><path d="M204.74,265.33a.55.55,0,0,1-.07-1.1c1.23-.16,12.09-1.5,14.25-.35a.55.55,0,1,1-.52,1c-1.39-.75-9.08-.1-13.59.47Z" transform="translate(-26.36 -19.6)" fill="#203c83"/><path d="M214.12,272.09a.55.55,0,0,1-.44-.22c-1.36-1.77-7.76-3-10.11-3.37a.55.55,0,1,1,.16-1.09c.91.13,9,1.34,10.83,3.79a.55.55,0,0,1-.44.89Z" transform="translate(-26.36 -19.6)" fill="#203c83"/><path d="M213,275a45.7,45.7,0,0,1-10.7-1.59.55.55,0,1,1,.3-1.06c.12,0,12.06,3.33,16.2.23a.55.55,0,1,1,.66.88C217.86,274.65,215.47,275,213,275Z" transform="translate(-26.36 -19.6)" fill="#203c83"/><path d="M304.8,184.57a.55.55,0,0,1-.49-.3,20.89,20.89,0,0,0-4.19-2.94.55.55,0,1,1,.56-1c1,.57,4.17,2.5,4.63,3.4a.55.55,0,0,1-.25.74A.53.53,0,0,1,304.8,184.57Z" transform="translate(-26.36 -19.6)" fill="#203c83"/><path d="M292.12,232a.55.55,0,0,1-.49-.3,27.69,27.69,0,0,0-3.34-5.23c-1-1-5-1.1-7.29-.94a.53.53,0,0,1-.59-.51.55.55,0,0,1,.51-.59c.66,0,6.5-.38,8.14,1.26a28,28,0,0,1,3.55,5.52.55.55,0,0,1-.25.74A.53.53,0,0,1,292.12,232Z" transform="translate(-26.36 -19.6)" fill="#203c83"/><path d="M285.64,231.29a.55.55,0,0,1-.33-.11,14,14,0,0,0-3.39-2.09,30,30,0,0,0-4.63,1.48.55.55,0,1,1-.39-1,30.15,30.15,0,0,1,5-1.55c.91,0,3.14,1.62,4.05,2.32a.55.55,0,0,1-.33,1Z" transform="translate(-26.36 -19.6)" fill="#203c83"/><path d="M280.35,235.28a2.7,2.7,0,0,1-1-.2,4.17,4.17,0,0,1-2.07-2.37.55.55,0,0,1,1-.35,3.09,3.09,0,0,0,1.44,1.7,2.09,2.09,0,0,0,1.78-.22.55.55,0,1,1,.51,1A3.67,3.67,0,0,1,280.35,235.28Z" transform="translate(-26.36 -19.6)" fill="#203c83"/><path d="M283.46,242.94c-2.07,0-4.69-2.83-5-3.15a.55.55,0,1,1,.82-.74c.71.78,2.82,2.79,4.16,2.79h0a.81.81,0,0,0,.64-.3.55.55,0,1,1,.84.72,1.91,1.91,0,0,1-1.47.68Z" transform="translate(-26.36 -19.6)" fill="#203c83"/><path d="M285,251.84a19.61,19.61,0,0,1-8.44-2.43.55.55,0,1,1,.54-1c.06,0,5.9,3.3,10.23,2a5.87,5.87,0,0,0,3.6-3.23.55.55,0,0,1,1,.48,6.93,6.93,0,0,1-4.27,3.81A8.93,8.93,0,0,1,285,251.84Z" transform="translate(-26.36 -19.6)" fill="#203c83"/><path d="M373.71,180.58h0c-1.6-.15-5.71-2.69-6.17-3a.55.55,0,0,1,.59-.93c1.73,1.08,4.67,2.72,5.68,2.81a.55.55,0,0,1,0,1.1Z" transform="translate(-26.36 -19.6)" fill="#203c83"/><path d="M371.1,188.86a8.7,8.7,0,0,1-5.64-2.38.55.55,0,0,1,.78-.78s2.73,2.67,6.1,1.92a.55.55,0,0,1,.24,1.08A6.89,6.89,0,0,1,371.1,188.86Z" transform="translate(-26.36 -19.6)" fill="#203c83"/><path d="M348.21,229.91a.55.55,0,0,1-.44-.22c-.81-1.08-6.65-2.64-10.14-3.37a.55.55,0,1,1,.22-1.08c1.58.33,9.5,2.06,10.8,3.79a.55.55,0,0,1-.44.88Z" transform="translate(-26.36 -19.6)" fill="#203c83"/><path d="M347,235.57a.55.55,0,0,1-.49-.3c-.5-1-1.55-2.72-2.23-3.06-1.28-.64-2-3.76-2.09-4.38a.55.55,0,0,1,.43-.65.54.54,0,0,1,.65.43c.31,1.53,1,3.35,1.5,3.61,1.23.62,2.58,3.25,2.73,3.55a.55.55,0,0,1-.49.8Z" transform="translate(-26.36 -19.6)" fill="#203c83"/><path d="M342.34,232.72a6.63,6.63,0,0,1-2-.35l-.11-.05a5.31,5.31,0,0,1-.67-.27.55.55,0,0,1,.49-1,4.94,4.94,0,0,0,.61.23h0l.11,0a3.5,3.5,0,0,0,2.87-.08.55.55,0,1,1,.65.89A3.23,3.23,0,0,1,342.34,232.72Z" transform="translate(-26.36 -19.6)" fill="#203c83"/><path d="M341.18,237.63c-1.46,0-4.57-1.41-4.92-1.57a.55.55,0,1,1,.46-1,17.09,17.09,0,0,0,4.46,1.47.55.55,0,0,1,0,1.1Z" transform="translate(-26.36 -19.6)" fill="#203c83"/><path d="M349.59,242.49a9.21,9.21,0,0,1-2.3-.33,20.77,20.77,0,0,1-4.29-1.7.55.55,0,0,1,.53-1,20,20,0,0,0,4,1.6,6.44,6.44,0,0,0,3,.19,2.63,2.63,0,0,0,.49-.16.55.55,0,0,1,.45,1,3.69,3.69,0,0,1-.7.23A5.34,5.34,0,0,1,349.59,242.49Z" transform="translate(-26.36 -19.6)" fill="#203c83"/><path d="M355.38,244.8a.55.55,0,0,1-.4-.92,9.82,9.82,0,0,0,2.08-3.5.54.54,0,0,1,.68-.38.55.55,0,0,1,.38.68,10.77,10.77,0,0,1-2.33,3.94A.54.54,0,0,1,355.38,244.8Z" transform="translate(-26.36 -19.6)" fill="#203c83"/><path d="M343.69,246.59c-2,0-4.43-2.77-4.71-3.09a.55.55,0,0,1,.84-.72c.94,1.09,2.91,2.76,3.95,2.71a.52.52,0,0,1,.59.51.55.55,0,0,1-.51.59Z" transform="translate(-26.36 -19.6)" fill="#203c83"/><path d="M344.84,252.12a16.42,16.42,0,0,1-11.23-4.76.55.55,0,0,1,.82-.74c.33.36,8.17,8.75,19.43,1.47a21.69,21.69,0,0,0,1.79-1.27l.35-.26a.55.55,0,1,1,.69.86l-.35.26a22.8,22.8,0,0,1-1.88,1.34A17.55,17.55,0,0,1,344.84,252.12Z" transform="translate(-26.36 -19.6)" fill="#203c83"/><path d="M423.87,204.14a.55.55,0,0,1-.44-.22,47.36,47.36,0,0,0-4-3.2.55.55,0,1,1,.65-.89,44.59,44.59,0,0,1,4.25,3.42.55.55,0,0,1-.44.88Z" transform="translate(-26.36 -19.6)" fill="#203c83"/><path d="M406.65,253.48h0a.55.55,0,0,1-.51-.59,5.44,5.44,0,0,0-1.52-4.3c-4-4.26-14.42-4.62-17.78-4.62a1.78,1.78,0,0,0-.66.07.65.65,0,0,0,.06.24.55.55,0,0,1-1,.49,1.45,1.45,0,0,1,0-1.32,1.68,1.68,0,0,1,1.51-.58c4.44,0,14.49.51,18.66,5A6.56,6.56,0,0,1,407.2,253,.55.55,0,0,1,406.65,253.48Z" transform="translate(-26.36 -19.6)" fill="#203c83"/><path d="M397.14,251.83a.54.54,0,0,1-.2,0,30.72,30.72,0,0,0-10.81-2.17.54.54,0,0,1-.57-.54.55.55,0,0,1,.54-.57,31.63,31.63,0,0,1,11.24,2.24.55.55,0,0,1-.2,1.06Z" transform="translate(-26.36 -19.6)" fill="#203c83"/><path d="M398.49,260c-2.54,0-5.69-3.9-6.06-4.37a.55.55,0,0,1,.87-.68c1.31,1.66,3.91,4.18,5.4,3.93a.54.54,0,0,1,.64.45.55.55,0,0,1-.45.64A2.2,2.2,0,0,1,398.49,260Z" transform="translate(-26.36 -19.6)" fill="#203c83"/><path d="M393.37,259.56a3.38,3.38,0,0,1-.5,0c-2.19-.33-3.85-2.73-3.91-2.84a.55.55,0,0,1,.91-.62s1.46,2.11,3.17,2.37a2.24,2.24,0,0,0,1.82-.55.55.55,0,1,1,.69.86A3.42,3.42,0,0,1,393.37,259.56Z" transform="translate(-26.36 -19.6)" fill="#203c83"/><path d="M396.25,266.91a9.39,9.39,0,0,1-1.42-.07c-1.62-.3-4.37-2.75-4.68-3a.55.55,0,0,1,.74-.82c.77.7,3,2.56,4.14,2.76s7.76-.23,10.19-.42a.51.51,0,0,1,.59.51.55.55,0,0,1-.51.59C404.57,266.49,399.08,266.91,396.25,266.91Z" transform="translate(-26.36 -19.6)" fill="#203c83"/><path d="M435.45,367.59a.55.55,0,0,1-.51-.34c-2.78-6.58-9.48-4.09-9.77-4a.55.55,0,0,1-.4-1c.08,0,8-3,11.18,4.57a.55.55,0,0,1-.51.77Z" transform="translate(-26.36 -19.6)" fill="#203c83"/><path d="M433.69,371.74c-2,0-4-4.89-4.55-6.43a.55.55,0,0,1,1-.38c1,2.75,2.67,5.72,3.49,5.72h0a.55.55,0,0,1,.17,1.09Z" transform="translate(-26.36 -19.6)" fill="#203c83"/><path d="M430.08,376.55a.55.55,0,0,1-.55-.55,27.4,27.4,0,0,0-4.35-4.12.55.55,0,0,1,.7-.85c3.15,2.58,4.75,4.25,4.75,5A.55.55,0,0,1,430.08,376.55Z" transform="translate(-26.36 -19.6)" fill="#203c83"/><path d="M428.56,379.31h-.06c-6.62-.73-6.69-6.42-6.69-6.47a.55.55,0,0,1,.55-.55h0a.55.55,0,0,1,.55.55c0,.19.09,4.76,5.71,5.38a.55.55,0,0,1-.06,1.1Z" transform="translate(-26.36 -19.6)" fill="#203c83"/><path d="M229.33,209.09a5.15,5.15,0,0,1-2.46-.55c-1.46-.79-2.93-2.68-1.65-7.22,2.68-9.5,14.35-24.94,15.06-25.87s2.81-2.52,5.79-.91a7.24,7.24,0,0,1,3.74,6.34c.09,8.74-9.24,21.22-11.74,24.09A12.94,12.94,0,0,1,229.33,209.09ZM243.5,176a1.75,1.75,0,0,0-1.43.69l0,0c-.12.16-12.12,16-14.71,25.15-.49,1.73-.78,3.94.58,4.68,1.87,1,6.31-.6,8.48-3.08,3.54-4.05,11.27-15.37,11.2-22.62a5.1,5.1,0,0,0-2.58-4.42A3.18,3.18,0,0,0,243.5,176Zm-2.34.06h0Z" transform="translate(-26.36 -19.6)" fill="#203c83"/><g opacity="0.5"><path d="M245.53,175.5c-2.69-1.46-4.12.29-4.34.6h0s-12.22,16-14.88,25.51,7.41,6.66,10.94,2.62c3.07-3.51,11.55-15.3,11.47-23.35A6.22,6.22,0,0,0,245.53,175.5Zm-9.15,28c-2.16,2.49-6.59,4.1-8.47,3.09-1.37-.73-1.06-3-.57-4.67,2.58-9.2,14.58-25,14.71-25.16a.08.08,0,0,0,0,0,1.79,1.79,0,0,1,1.43-.68,3.11,3.11,0,0,1,1.5.44,5.1,5.1,0,0,1,2.58,4.43C247.67,188.14,239.93,199.45,236.38,203.51Z" transform="translate(-26.36 -19.6)" fill="#203c83"/><path d="M246.06,174.53c-3-1.61-5.07-.11-5.8.9s-12.37,16.38-15,25.89c-1.28,4.52.18,6.42,1.63,7.21a5.29,5.29,0,0,0,2.47.55,13,13,0,0,0,8.73-4.12c2.49-2.87,11.82-15.35,11.73-24.08A7.25,7.25,0,0,0,246.06,174.53ZM227.91,206.6c-1.37-.73-1.06-3-.57-4.67,2.58-9.2,14.58-25,14.71-25.16a.08.08,0,0,0,0,0,1.79,1.79,0,0,1,1.43-.68,3.11,3.11,0,0,1,1.5.44,5.1,5.1,0,0,1,2.58,4.43c.09,7.23-7.65,18.54-11.2,22.6C234.22,206,229.79,207.61,227.91,206.6Z" transform="translate(-26.36 -19.6)" fill="#203c83"/></g><path d="M229.33,209.09a5.15,5.15,0,0,1-2.46-.55c-1.46-.79-2.93-2.68-1.65-7.22,2.68-9.5,14.35-24.94,15.06-25.87s2.81-2.52,5.79-.91a7.24,7.24,0,0,1,3.74,6.34c.09,8.74-9.24,21.22-11.74,24.09A12.94,12.94,0,0,1,229.33,209.09ZM243.5,176a1.75,1.75,0,0,0-1.43.69l0,0c-.12.16-12.12,16-14.71,25.15-.49,1.73-.78,3.94.58,4.68,1.87,1,6.31-.6,8.48-3.08,3.54-4.05,11.27-15.37,11.2-22.62a5.1,5.1,0,0,0-2.58-4.42A3.18,3.18,0,0,0,243.5,176Zm-2.34.06h0Z" transform="translate(-26.36 -19.6)" fill="#203c83"/><g opacity="0.5"><path d="M315.92,162.91a4.29,4.29,0,0,1-1.33-.2c-1.92-.62-2.78-2.47-3.32-4-.8-2.33-2.47-7.15,2.33-17.61.29-.65.63-1.35,1-2.05s.87-1.72,1.39-2.64l.07-.11a130,130,0,0,1,9.09-13.92,5.43,5.43,0,0,1,7-2.16c4.41,2,5.82,6.07,3.78,10.91a32.18,32.18,0,0,0-1,3.21l-.62,2.17a120.48,120.48,0,0,1-4.3,13.19c-.29.72-.59,1.42-.9,2.1-1.78,3.82-3.64,6.38-5.7,7.82C320.17,161.85,317.8,162.91,315.92,162.91Zm1.93-25.34c-.48.85-.9,1.67-1.29,2.46s-.67,1.34-1,2c-4.43,9.66-3,13.76-2.26,16,.55,1.58,1.15,2.39,1.92,2.64,1.28.42,3.59-.53,6.86-2.81,1.71-1.2,3.38-3.54,5-6.95.3-.65.58-1.31.86-2a119.83,119.83,0,0,0,4.22-12.95l.62-2.18a34.27,34.27,0,0,1,1.12-3.44h0c1.59-3.76.67-6.55-2.66-8a3.31,3.31,0,0,0-4.28,1.36,128.81,128.81,0,0,0-9,13.86Z" transform="translate(-26.36 -19.6)" fill="#fff"/></g><path d="M315.92,162.91a4.29,4.29,0,0,1-1.33-.2c-1.92-.62-2.78-2.47-3.32-4-.8-2.33-2.47-7.15,2.33-17.61.29-.65.63-1.35,1-2.05s.87-1.72,1.39-2.64l.07-.11a130,130,0,0,1,9.09-13.92,5.43,5.43,0,0,1,7-2.16c4.41,2,5.82,6.07,3.78,10.91a32.18,32.18,0,0,0-1,3.21l-.62,2.17a120.48,120.48,0,0,1-4.3,13.19c-.29.72-.59,1.42-.9,2.1-1.78,3.82-3.64,6.38-5.7,7.82C320.17,161.85,317.8,162.91,315.92,162.91Zm1.93-25.34c-.48.85-.9,1.67-1.29,2.46s-.67,1.34-1,2c-4.43,9.66-3,13.76-2.26,16,.55,1.58,1.15,2.39,1.92,2.64,1.28.42,3.59-.53,6.86-2.81,1.71-1.2,3.38-3.54,5-6.95.3-.65.58-1.31.86-2a119.83,119.83,0,0,0,4.22-12.95l.62-2.18a34.27,34.27,0,0,1,1.12-3.44h0c1.59-3.76.67-6.55-2.66-8a3.31,3.31,0,0,0-4.28,1.36,128.81,128.81,0,0,0-9,13.86Z" transform="translate(-26.36 -19.6)" fill="#203c83"/><g opacity="0.5"><path d="M331.71,121.21A4.45,4.45,0,0,0,326,123,127.31,127.31,0,0,0,317,136.92l0,0c-.51.9-.95,1.76-1.37,2.6-.35.68-.68,1.37-1,2-4.45,9.7-3.2,14.16-2.29,16.78,1.37,3.9,3.57,5.18,10.45.37,2.07-1.46,3.84-4.17,5.34-7.39.31-.66.6-1.35.88-2.05A145.63,145.63,0,0,0,333.85,134a33.32,33.32,0,0,1,1.08-3.33C336.84,126.15,335.37,122.87,331.71,121.21Zm2.21,9.06a30,30,0,0,0-1.12,3.44l-.62,2.18A118.64,118.64,0,0,1,328,148.84c-.29.68-.57,1.37-.86,2-1.59,3.42-3.26,5.76-5,6.95-3.26,2.29-5.58,3.24-6.86,2.82-.77-.26-1.37-1.08-1.92-2.65-.75-2.21-2.16-6.33,2.27-16,.26-.62.6-1.28.95-2s.82-1.61,1.28-2.45a.46.46,0,0,0,.09-.13,132.3,132.3,0,0,1,9-13.87,3.31,3.31,0,0,1,4.28-1.35c2.27,1,3.42,2.65,3.42,4.76A8.45,8.45,0,0,1,333.91,130.28Z" transform="translate(-26.36 -19.6)" fill="#203c83"/><path d="M332.17,120.2a5.44,5.44,0,0,0-7,2.16,125.15,125.15,0,0,0-9.08,13.94s-.07.07-.09.09c-.51.93-.95,1.81-1.37,2.65s-.71,1.41-1,2.05c-4.81,10.45-3.15,15.28-2.34,17.62.53,1.54,1.41,3.4,3.33,4a4.17,4.17,0,0,0,1.32.2c1.87,0,4.26-1.06,7.48-3.31,2.05-1.46,3.93-4,5.69-7.83.33-.68.62-1.37.9-2.09a119.87,119.87,0,0,0,4.3-13.19l.62-2.16a31.49,31.49,0,0,1,1-3.22C338,126.29,336.58,122.21,332.17,120.2Zm1.74,10.08a30,30,0,0,0-1.12,3.44l-.62,2.18A118.64,118.64,0,0,1,328,148.84c-.29.68-.57,1.37-.86,2-1.59,3.42-3.26,5.76-5,6.95-3.26,2.29-5.58,3.24-6.86,2.82-.77-.26-1.37-1.08-1.92-2.65-.75-2.21-2.16-6.33,2.27-16,.26-.62.6-1.28.95-2s.82-1.61,1.28-2.45a.46.46,0,0,0,.09-.13,132.3,132.3,0,0,1,9-13.87,3.31,3.31,0,0,1,4.28-1.35c2.27,1,3.42,2.65,3.42,4.76A8.45,8.45,0,0,1,333.91,130.28Z" transform="translate(-26.36 -19.6)" fill="#203c83"/></g><path d="M315.92,162.91a4.29,4.29,0,0,1-1.33-.2c-1.92-.62-2.78-2.47-3.32-4-.8-2.33-2.47-7.15,2.33-17.61.29-.65.63-1.35,1-2.05s.87-1.72,1.39-2.64l.07-.11a130,130,0,0,1,9.09-13.92,5.43,5.43,0,0,1,7-2.16c4.41,2,5.82,6.07,3.78,10.91a32.18,32.18,0,0,0-1,3.21l-.62,2.17a120.48,120.48,0,0,1-4.3,13.19c-.29.72-.59,1.42-.9,2.1-1.78,3.82-3.64,6.38-5.7,7.82C320.17,161.85,317.8,162.91,315.92,162.91Zm1.93-25.34c-.48.85-.9,1.67-1.29,2.46s-.67,1.34-1,2c-4.43,9.66-3,13.76-2.26,16,.55,1.58,1.15,2.39,1.92,2.64,1.28.42,3.59-.53,6.86-2.81,1.71-1.2,3.38-3.54,5-6.95.3-.65.58-1.31.86-2a119.83,119.83,0,0,0,4.22-12.95l.62-2.18a34.27,34.27,0,0,1,1.12-3.44h0c1.59-3.76.67-6.55-2.66-8a3.31,3.31,0,0,0-4.28,1.36,128.81,128.81,0,0,0-9,13.86Z" transform="translate(-26.36 -19.6)" fill="#203c83"/><g opacity="0.5"><path d="M391.13,153.21a9.65,9.65,0,0,1-1.64-.14,8.53,8.53,0,0,1-6.46-5c-2.42-5.6,9.1-28.83,17.79-32.77,3-1.36,5.47-1.48,7.4-.36,2.85,1.65,3.23,5.36,3.24,5.52.59,6-8.44,24.59-12.93,29.42A10.12,10.12,0,0,1,391.13,153.21Zm14.13-36.79a8.76,8.76,0,0,0-3.52.92c-8.08,3.67-18.52,25.61-16.67,29.89a6.25,6.25,0,0,0,4.81,3.66,7.82,7.82,0,0,0,7-2.48c4.46-4.8,12.85-22.72,12.35-27.7l1.1-.11-1.1.11s-.3-2.75-2.16-3.83A3.64,3.64,0,0,0,405.26,116.43Z" transform="translate(-26.36 -19.6)" fill="#fff"/></g><path d="M391.13,153.21a9.65,9.65,0,0,1-1.64-.14,8.53,8.53,0,0,1-6.46-5c-2.42-5.6,9.1-28.83,17.79-32.77,3-1.36,5.47-1.48,7.4-.36,2.85,1.65,3.23,5.36,3.24,5.52.59,6-8.44,24.59-12.93,29.42A10.12,10.12,0,0,1,391.13,153.21Zm14.13-36.79a8.76,8.76,0,0,0-3.52.92c-8.08,3.67-18.52,25.61-16.67,29.89a6.25,6.25,0,0,0,4.81,3.66,7.82,7.82,0,0,0,7-2.48c4.46-4.8,12.85-22.72,12.35-27.7l1.1-.11-1.1.11s-.3-2.75-2.16-3.83A3.64,3.64,0,0,0,405.26,116.43Z" transform="translate(-26.36 -19.6)" fill="#203c83"/><g opacity="0.5"><path d="M401.28,116.34c-8.34,3.79-19.4,26.26-17.22,31.33s9.37,6.11,13.67,1.5,13.19-23,12.64-28.58C410.36,120.6,409.61,112.55,401.28,116.34Zm-4.37,32.08a7.82,7.82,0,0,1-7,2.47,6.22,6.22,0,0,1-4.81-3.66c-1.85-4.28,8.58-26.22,16.67-29.9a9,9,0,0,1,3.53-.9,3.75,3.75,0,0,1,1.83.44c1.87,1.08,2.16,3.81,2.16,3.84C409.77,125.69,401.39,143.62,396.91,148.43Z" transform="translate(-26.36 -19.6)" fill="#203c83"/><path d="M411.47,120.51c0-.18-.4-3.88-3.24-5.53-1.94-1.1-4.41-1-7.41.35-8.67,3.95-20.2,27.17-17.77,32.79a8.52,8.52,0,0,0,6.46,5,10,10,0,0,0,1.63.13,10.11,10.11,0,0,0,7.39-3.29C403,145.1,412.06,126.53,411.47,120.51ZM389.88,150.9a6.22,6.22,0,0,1-4.81-3.66c-1.85-4.28,8.58-26.22,16.67-29.9a9,9,0,0,1,3.53-.9,3.75,3.75,0,0,1,1.83.44c1.87,1.08,2.16,3.81,2.16,3.84.51,5-7.87,22.91-12.35,27.72A7.82,7.82,0,0,1,389.88,150.9Z" transform="translate(-26.36 -19.6)" fill="#203c83"/></g><path d="M391.13,153.21a9.65,9.65,0,0,1-1.64-.14,8.53,8.53,0,0,1-6.46-5c-2.42-5.6,9.1-28.83,17.79-32.77,3-1.36,5.47-1.48,7.4-.36,2.85,1.65,3.23,5.36,3.24,5.52.59,6-8.44,24.59-12.93,29.42A10.12,10.12,0,0,1,391.13,153.21Zm14.13-36.79a8.76,8.76,0,0,0-3.52.92c-8.08,3.67-18.52,25.61-16.67,29.89a6.25,6.25,0,0,0,4.81,3.66,7.82,7.82,0,0,0,7-2.48c4.46-4.8,12.85-22.72,12.35-27.7l1.1-.11-1.1.11s-.3-2.75-2.16-3.83A3.64,3.64,0,0,0,405.26,116.43Z" transform="translate(-26.36 -19.6)" fill="#203c83"/><g opacity="0.5"><path d="M437.23,191.24a6.43,6.43,0,0,1-3.66-1.14c-8.94-6.06.69-20.93,1.1-21.56.28-.43,6.93-10.6,12-13l.1,0c.23-.08,5.52-1.89,9,2.36a8.7,8.7,0,0,1,1.35,7.93c-2.67,8.77-9.82,22.33-17.36,25A7.52,7.52,0,0,1,437.23,191.24Zm10.33-33.68c-4.5,2.18-11,12.08-11,12.18s-8.86,13.68-1.71,18.53a4.41,4.41,0,0,0,4.18.44c6.11-2.16,13.06-13.91,16-23.56a6.46,6.46,0,0,0-1-5.9C451.69,156.36,448,157.4,447.56,157.56Z" transform="translate(-26.36 -19.6)" fill="#fff"/></g><path d="M437.23,191.24a6.43,6.43,0,0,1-3.66-1.14c-8.94-6.06.69-20.93,1.1-21.56.28-.43,6.93-10.6,12-13l.1,0c.23-.08,5.52-1.89,9,2.36a8.7,8.7,0,0,1,1.35,7.93c-2.67,8.77-9.82,22.33-17.36,25A7.52,7.52,0,0,1,437.23,191.24Zm10.33-33.68c-4.5,2.18-11,12.08-11,12.18s-8.86,13.68-1.71,18.53a4.41,4.41,0,0,0,4.18.44c6.11-2.16,13.06-13.91,16-23.56a6.46,6.46,0,0,0-1-5.9C451.69,156.36,448,157.4,447.56,157.56Z" transform="translate(-26.36 -19.6)" fill="#203c83"/><g opacity="0.5"><path d="M454.88,158.55c-3-3.68-7.74-2-7.74-2-4.85,2.29-11.55,12.59-11.55,12.59s-9.55,14.53-1.39,20c7.56,5.14,18.1-11.44,21.83-23.7A7.56,7.56,0,0,0,454.88,158.55Zm.09,6.59c-2.93,9.66-9.88,21.41-16,23.57a4.4,4.4,0,0,1-4.17-.44c-7.17-4.85,1.61-18.39,1.7-18.52s6.55-10,11-12.19c.49-.15,4.12-1.19,6.46,1.7A6.38,6.38,0,0,1,455,165.14Z" transform="translate(-26.36 -19.6)" fill="#203c83"/><path d="M455.74,157.86c-3.44-4.26-8.73-2.45-9-2.36a.17.17,0,0,0-.09,0c-5.07,2.38-11.73,12.57-12,13-.4.62-10,15.5-1.08,21.57a6.38,6.38,0,0,0,3.64,1.12,7.38,7.38,0,0,0,2.51-.44c7.54-2.67,14.69-16.23,17.35-25A8.68,8.68,0,0,0,455.74,157.86Zm-.77,7.28c-2.93,9.66-9.88,21.41-16,23.57a4.4,4.4,0,0,1-4.17-.44c-7.17-4.85,1.61-18.39,1.7-18.52s6.55-10,11-12.19c.49-.15,4.12-1.19,6.46,1.7A6.38,6.38,0,0,1,455,165.14Z" transform="translate(-26.36 -19.6)" fill="#203c83"/></g><path d="M437.23,191.24a6.43,6.43,0,0,1-3.66-1.14c-8.94-6.06.69-20.93,1.1-21.56.28-.43,6.93-10.6,12-13l.1,0c.23-.08,5.52-1.89,9,2.36a8.7,8.7,0,0,1,1.35,7.93c-2.67,8.77-9.82,22.33-17.36,25A7.52,7.52,0,0,1,437.23,191.24Zm10.33-33.68c-4.5,2.18-11,12.08-11,12.18s-8.86,13.68-1.71,18.53a4.41,4.41,0,0,0,4.18.44c6.11-2.16,13.06-13.91,16-23.56a6.46,6.46,0,0,0-1-5.9C451.69,156.36,448,157.4,447.56,157.56Z" transform="translate(-26.36 -19.6)" fill="#203c83"/><path d="M443.36,342.11a4.8,4.8,0,0,1-3.87-1.6c-1.61-2-1.41-5.34.6-10,4.46-10.48,10.45-18,18.86-23.73.47-.31,2.86-1.83,4.58-.8,1,.62,1.46,1.88,1.27,3.75-.47,4.6-14.31,31.1-19.52,32.21A9.28,9.28,0,0,1,443.36,342.11Zm18.8-34.33a4.32,4.32,0,0,0-2,.78h0c-8,5.46-13.79,12.69-18.07,22.76-2.17,5.11-1.51,7.07-.92,7.78.85,1,2.64.84,3.63.63,3.5-.75,17.3-25.5,17.78-30.27.12-1.17-.11-1.58-.2-1.64A.5.5,0,0,0,462.16,307.78Zm-2.59-.13h0Z" transform="translate(-26.36 -19.6)" fill="#203c83"/><g opacity="0.5"><path d="M459.56,307.63c-9.39,6.39-14.77,14.62-18.46,23.26s-.37,10.83,3.95,9.92,18.19-26.75,18.66-31.25S460.51,307,459.56,307.63Zm3,1.83c-.49,4.76-14.27,29.53-17.77,30.28-1,.2-2.78.4-3.64-.64-.6-.71-1.26-2.67.93-7.78a56.19,56.19,0,0,1,7.63-13.1,46.41,46.41,0,0,1,10.45-9.66,4.21,4.21,0,0,1,2-.79.4.4,0,0,1,.24.07C462.49,307.88,462.73,308.29,462.6,309.46Z" transform="translate(-26.36 -19.6)" fill="#203c83"/><path d="M463.53,305.94c-1.72-1-4.12.49-4.59.79-8.4,5.71-14.4,13.25-18.85,23.73-2,4.72-2.21,8.09-.6,10.06a4.76,4.76,0,0,0,3.86,1.59,10.17,10.17,0,0,0,1.94-.2c5.2-1.12,19.05-27.61,19.51-32.22C465,307.81,464.56,306.55,463.53,305.94ZM441.19,339.1c-.6-.71-1.26-2.67.93-7.78a56.19,56.19,0,0,1,7.63-13.1,46.41,46.41,0,0,1,10.45-9.66,4.21,4.21,0,0,1,2-.79.4.4,0,0,1,.24.07c.09,0,.33.46.2,1.63-.49,4.76-14.27,29.53-17.77,30.28C443.84,339.94,442,340.14,441.19,339.1Z" transform="translate(-26.36 -19.6)" fill="#203c83"/></g><path d="M443.36,342.11a4.8,4.8,0,0,1-3.87-1.6c-1.61-2-1.41-5.34.6-10,4.46-10.48,10.45-18,18.86-23.73.47-.31,2.86-1.83,4.58-.8,1,.62,1.46,1.88,1.27,3.75-.47,4.6-14.31,31.1-19.52,32.21A9.28,9.28,0,0,1,443.36,342.11Zm18.8-34.33a4.32,4.32,0,0,0-2,.78h0c-8,5.46-13.79,12.69-18.07,22.76-2.17,5.11-1.51,7.07-.92,7.78.85,1,2.64.84,3.63.63,3.5-.75,17.3-25.5,17.78-30.27.12-1.17-.11-1.58-.2-1.64A.5.5,0,0,0,462.16,307.78Zm-2.59-.13h0Z" transform="translate(-26.36 -19.6)" fill="#203c83"/></g><g id="main-dessous"><path d="M181.69,386.35c.42.62.84,1.21,1.26,1.81-.57.4-1.19.79-1.81,1.21A336.14,336.14,0,0,1,147.76,409c-8,4-15,6-20.79,6a22.89,22.89,0,0,1-4.34-.4c-6.31-1.3-8.49-5.09-8.86-5.84-1.57-3.13-2.4-11.44,5-17.07,5.38-4.08,32-22.54,43.4-30.39L164,360c.4.62.82,1.21,1.21,1.83l-1.81,1.26c-8.62,6-26,18-36.25,25.23-3.24,2.29-5.76,4.1-7,5.07-.15.11-.31.24-.44.35a14.15,14.15,0,0,0-2.07,2.07l-.07.09a12.26,12.26,0,0,0-2.05,11.14,2.94,2.94,0,0,0,.26.71,7,7,0,0,0,1.52,1.87,11.8,11.8,0,0,0,5.8,2.76,20.43,20.43,0,0,0,5.89.29h0c5.07-.42,11.11-2.34,17.82-5.69a333.32,333.32,0,0,0,33.12-19.43Z" transform="translate(-26.36 -19.6)" fill="#203c83"/><path d="M191.13,471.05c-2,1.28-3.86,2.38-5.27,3.2a20.82,20.82,0,0,1-10.28,2.6c-5.38,0-10.47-1.92-12.7-5.45-3.7-5.87-1.1-12,2.71-19.29,2.73-5.29,14.75-13.23,22.23-17.82.07.82.15,1.63.22,2.45v0c-7.3,4.52-18.1,11.78-20.51,16.38-.44.84-.84,1.65-1.21,2.43l0,0q-.69,1.42-1.26,2.71c-1.28,3.09-1.92,5.58-1.72,7.83a8.79,8.79,0,0,0,1.41,4.1c1.54,2.43,5,3.9,9,4.28h0a19.24,19.24,0,0,0,11-2.16c1.59-.93,3.77-2.25,6.15-3.77C191,469.42,191.07,470.24,191.13,471.05Z" transform="translate(-26.36 -19.6)" fill="#203c83"/><g opacity="0.5"><path d="M139.91,390.9c-3.33-4.81-9-4.12-12.77-2.56a15.1,15.1,0,0,0-2.32,1.15l-.07.07a52.88,52.88,0,0,0-5.09,4.21c-.75.68-1.43,1.39-2.07,2.07l-.07.09a22.53,22.53,0,0,0-3,4.06,5.87,5.87,0,0,0-.13,4.63,12.23,12.23,0,0,0,1.08,2.45,12.89,12.89,0,0,0,1.79,2.58,11.64,11.64,0,0,0,3.62,2.91,8.47,8.47,0,0,0,3.75.79,16.45,16.45,0,0,0,4.32-.66h0a26.37,26.37,0,0,0,7.74-3.73C139.69,406.77,145,398.22,139.91,390.9Zm-4.5,16.27c-2.87,2.12-9.81,5.29-13.56,3.4a11.66,11.66,0,0,1-5.36-6.59,4.14,4.14,0,0,1,0-2.89c1.74-3.07,4.87-6.24,9.57-9.75.68-.4,8.25-4.72,12.08.82C142.25,398.15,137.81,405.43,135.41,407.17Z" transform="translate(-26.36 -19.6)" fill="#fff"/></g><g opacity="0.5"><path d="M183.44,450a7.19,7.19,0,0,0-5.56-1.72c-5.14.49-10.08,5.6-11.55,7.25l0,0c-.13.15-.24.26-.31.35a14.18,14.18,0,0,0-3.26,3.51l-.18.35c-2.51,9.88,3.79,12.66,8,14.51a4.7,4.7,0,0,0,1.85.35,5.5,5.5,0,0,0,1.3-.15h0c5.87-1.17,13.43-9.37,13.52-9.48a8,8,0,0,0,1.52-5.73C188.57,456.94,187.49,453.41,183.44,450Zm-12,22.25c-4.94-2.16-8.58-4.41-6.77-11.75a11.54,11.54,0,0,1,2.69-2.84l.26-.22c0-.07,5.38-6.48,10.47-7a5.14,5.14,0,0,1,3.95,1.23c3.46,2.89,4.37,5.8,4.52,7.74a6,6,0,0,1-.95,4.08C183.13,466.31,174.9,473.83,171.42,472.29Z" transform="translate(-26.36 -19.6)" fill="#fff"/></g><path d="M139.91,390.9c-3.33-4.81-9-4.12-12.77-2.56a15.1,15.1,0,0,0-2.32,1.15l-.07.07a52.88,52.88,0,0,0-5.09,4.21c-.75.68-1.43,1.39-2.07,2.07l-.07.09a22.53,22.53,0,0,0-3,4.06,5.87,5.87,0,0,0-.13,4.63,12.23,12.23,0,0,0,1.08,2.45,12.89,12.89,0,0,0,1.79,2.58,11.64,11.64,0,0,0,3.62,2.91,8.47,8.47,0,0,0,3.75.79,16.45,16.45,0,0,0,4.32-.66h0a26.37,26.37,0,0,0,7.74-3.73C139.69,406.77,145,398.22,139.91,390.9Zm-4.5,16.27c-2.87,2.12-9.81,5.29-13.56,3.4a11.66,11.66,0,0,1-5.36-6.59,4.14,4.14,0,0,1,0-2.89c1.74-3.07,4.87-6.24,9.57-9.75.68-.4,8.25-4.72,12.08.82C142.25,398.15,137.81,405.43,135.41,407.17Z" transform="translate(-26.36 -19.6)" fill="#203c83"/><path d="M183.44,450a7.19,7.19,0,0,0-5.56-1.72c-5.14.49-10.08,5.6-11.55,7.25l0,0c-.13.15-.24.26-.31.35a14.18,14.18,0,0,0-3.26,3.51l-.18.35c-2.51,9.88,3.79,12.66,8,14.51a4.7,4.7,0,0,0,1.85.35,5.5,5.5,0,0,0,1.3-.15h0c5.87-1.17,13.43-9.37,13.52-9.48a8,8,0,0,0,1.52-5.73C188.57,456.94,187.49,453.41,183.44,450Zm-12,22.25c-4.94-2.16-8.58-4.41-6.77-11.75a11.54,11.54,0,0,1,2.69-2.84l.26-.22c0-.07,5.38-6.48,10.47-7a5.14,5.14,0,0,1,3.95,1.23c3.46,2.89,4.37,5.8,4.52,7.74a6,6,0,0,1-.95,4.08C183.13,466.31,174.9,473.83,171.42,472.29Z" transform="translate(-26.36 -19.6)" fill="#203c83"/><path d="M403.42,155.89l-.71-2.09c.9-.3,90.19-30.62,112.25-43.64l1.12,1.9C493.82,125.2,407.1,154.65,403.42,155.89Z" transform="translate(-26.36 -19.6)" fill="#203c83"/><path d="M446.35,345l-1.3-1.78c.36-.26,36.07-26.53,46.18-36.64s64.68-52.68,67-54.48l1.36,1.74c-.57.44-56.66,44.18-66.79,54.3S447.82,343.93,446.35,345Z" transform="translate(-26.36 -19.6)" fill="#203c83"/></g></svg>