<svg id="main-vase" xmlns="http://www.w3.org/2000/svg" viewBox="0 0 409.77 643.55"><title>main - vase</title><path d="M384.93,586.67l-1.59-1.61,22.42-22.15c3.09-3,8.27-7.7,13.76-12.63,7.53-6.76,16.06-14.42,17.15-16.24a30.92,30.92,0,0,1,2-2.67c4.2-5.19,14-17.34,13.82-29a9,9,0,0,0-3.92-7.38,8.89,8.89,0,0,0-8.15-1c-5.81,2.09-12.57,6.93-17.66,12.64a124.42,124.42,0,0,1-29.62,24.62c-12,7.08-21.89,10.05-29.33,8.81-68.55-11.53-100.76,16.44-101.08,16.73a1.13,1.13,0,0,1-1.51-1.69c.32-.29,33.25-29,103-17.28,6.9,1.15,16.26-1.72,27.81-8.52a122.25,122.25,0,0,0,29.08-24.17c5.32-6,12.44-11.06,18.58-13.27a11.15,11.15,0,0,1,10.21,1.3,11.29,11.29,0,0,1,4.89,9.21c.22,12.53-10,25.13-14.33,30.51-.9,1.12-1.61,2-1.87,2.42-1.18,2-7.72,7.9-17.58,16.75-5.23,4.7-10.64,9.55-13.69,12.56C401.11,570.69,384.93,586.67,384.93,586.67Z" transform="translate(-140 -34.6)" fill="#203c83"/><path d="M223.61,678.15a1.13,1.13,0,0,1-.94-1.77c.42-.61,42.12-60.83,88.9-53.94,48.6,7.17,90.58-4.27,111.28-11.72,4.49-1.61,10-3.39,15.94-5.27,27-8.63,64.07-20.46,72.68-39.26,1.41-3.07,3.12-6.71,5-10.77,12.68-27,33.9-72.12,30.7-87.6-1-4.9-3.87-7.89-8-8.41-5.24-.65-12.55,2.95-16.51,11.09-.56,1.16-2.42,5.2-5,10.72-8.25,18-22.07,48-25.08,52.54-4,6-30.76,16.29-33.8,17.44a1.13,1.13,0,0,1-.8-2.12c8.07-3.06,29.67-12,32.72-16.58,2.91-4.37,17.22-35.5,24.9-52.23,2.55-5.54,4.41-9.59,5-10.76,4-8.15,11.69-13.22,18.82-12.34,5.12.64,8.76,4.36,10,10.2,3.36,16.22-18.06,61.8-30.87,89-1.9,4.05-3.61,7.69-5,10.75-9,19.71-46.61,31.71-74.05,40.47-5.87,1.87-11.41,3.64-15.86,5.25-20.9,7.52-63.29,19.06-112.38,11.83-45.38-6.71-86.28,52.38-86.69,53A1.13,1.13,0,0,1,223.61,678.15Z" transform="translate(-140 -34.6)" fill="#203c83"/><path d="M486,494.19a1.12,1.12,0,0,1-.46-.1,1.13,1.13,0,0,1-.58-1.49s8.66-19.55,20.41-45.92c5-11.14,13.76-14.66,19.84-13.25,4.76,1.12,7.59,5,7.37,10.21v.26a6.08,6.08,0,0,1-.17,1.45c-4.36,15.88-5.24,18.29-5.28,18.38a1.13,1.13,0,0,1-2.12-.79c0-.1.93-2.57,5.21-18.19a4.07,4.07,0,0,0,.09-.91v-.3c.17-4.08-1.93-7-5.62-7.91-5.21-1.22-12.81,2-17.25,12-11.75,26.37-20.41,45.92-20.41,45.92A1.13,1.13,0,0,1,486,494.19Z" transform="translate(-140 -34.6)" fill="#203c83"/><path d="M165.74,582.51a1.13,1.13,0,0,1-.83-1.9c1.78-1.93,43.79-47.26,61.16-55.68,28.76-13.93,82.06-19,82.59-19a1.13,1.13,0,1,1,.21,2.26c-.53,0-53.42,5.06-81.81,18.81-17,8.22-60,54.7-60.48,55.17A1.13,1.13,0,0,1,165.74,582.51Z" transform="translate(-140 -34.6)" fill="#203c83"/><path d="M311.78,280.64a1.13,1.13,0,0,1-.91-1.8c1-1.4,25.21-34.28,35-39.45,2.72-1.44,7.75-3.12,13.58-5.08,14.29-4.79,35.89-12,35.15-20.47a8,8,0,0,0-3-5.9c-6.05-4.68-20.07-2.44-31.33-.64-3.3.53-6.42,1-9.16,1.33-14.94,1.66-48,17.87-48.38,18a1.13,1.13,0,1,1-1-2c1.37-.68,33.8-16.55,49.13-18.25,2.68-.3,5.78-.79,9-1.32,12.3-2,26.25-4.19,33.08,1.09a10.28,10.28,0,0,1,3.92,7.48c.9,10.24-19.94,17.22-36.69,22.83-5.73,1.92-10.68,3.58-13.24,4.93-9.3,4.93-34,38.45-34.2,38.79A1.13,1.13,0,0,1,311.78,280.64Z" transform="translate(-140 -34.6)" fill="#203c83"/><path d="M141.13,303.88a1.13,1.13,0,0,1-.49-2.15c33.42-16.14,84.3-41.47,87.52-45.09,4.55-5.12,24.51-20.64,42.52-25.29,17.1-4.41,36.74-22.24,36.94-22.42,1.09-.84,24.86-19.09,26.57-20.23a1.13,1.13,0,0,1,1.26,1.89c-1.32.88-17.83,13.52-26.37,20.08-.74.69-20.18,18.32-37.83,22.88-16.71,4.31-36.59,19.2-41.39,24.6-4.55,5.12-79.68,41.49-88.23,45.62A1.12,1.12,0,0,1,141.13,303.88Z" transform="translate(-140 -34.6)" fill="#203c83"/><path d="M164.94,404.8a1.13,1.13,0,0,1-.73-2c3.09-2.58,75.92-63.17,99.21-66.58,23-3.37,54.8-4.54,55.12-4.55a1.15,1.15,0,0,1,1.17,1.09,1.13,1.13,0,0,1-1.09,1.17c-.32,0-32,1.17-54.87,4.52-22.67,3.32-97.33,65.45-98.09,66.08A1.13,1.13,0,0,1,164.94,404.8Z" transform="translate(-140 -34.6)" fill="#203c83"/><path d="M466.79,212.49a3.72,3.72,0,0,1-.89-.11c-.55-.14-1.09-.24-1.6-.34-3-.58-6.07-1.18-5.68-7.63s1.51-14.19,1.52-14.27l0-.31.2-.24c1.29-1.56,4.84-3.72,9.08-.78,4.54,3.16,7.31,6.07,7.1,10.81-.16,3.59-3.34,9.23-6.54,11.61A5.5,5.5,0,0,1,466.79,212.49Zm-4.45-21.67c-.22,1.58-1.13,8.19-1.45,13.73-.26,4.46.94,4.7,3.86,5.27.55.11,1.12.22,1.71.37a3,3,0,0,0,2.22-.77c2.84-2.11,5.52-7.3,5.64-9.9.15-3.28-1.46-5.59-6.13-8.85C465.12,188.54,463,190.19,462.34,190.82Z" transform="translate(-140 -34.6)" fill="#203c83"/><path d="M455.24,254.42a7.73,7.73,0,0,1-3.61-.75,4.32,4.32,0,0,1-2.25-3c-1.61-7.78.85-15,7.3-21.44,1-1.11,1.47-4,1.56-5l0-.28.15-.23c.18-.27,4.46-6.75,10.11-7.06q4.18-.2,7.59,3.94c2.54,3.09,3.17,7.25,1.88,12.36-2.14,8.48-9.37,17.74-12.15,18.88C463.64,252.74,459,254.42,455.24,254.42Zm5.22-29.69c-.13,1.06-.63,4.32-2.14,6-5.92,5.93-8.17,12.45-6.73,19.43a2,2,0,0,0,1.1,1.5c2.44,1.29,8.15-.23,12.29-1.94,1.69-.7,8.74-9.09,10.82-17.34,1.1-4.38.62-7.86-1.44-10.37-1.78-2.17-3.71-3.26-5.7-3.11C464.66,219.12,461.21,223.68,460.47,224.73Z" transform="translate(-140 -34.6)" fill="#203c83"/><path d="M455.87,288.77a6.75,6.75,0,0,1-3.16-.75,8,8,0,0,1-4.46-6c-.77-5.11,2.77-11.85,10-19,.54-1.37,3.22-7.48,9.25-7.16a9.93,9.93,0,0,1,7.74,4.89,11.93,11.93,0,0,1,.91,11c-2.12,5-9.69,13.85-16.71,16.37A10.47,10.47,0,0,1,455.87,288.77Zm11.2-30.67c-4.71,0-6.79,5.85-6.81,5.91l-.09.25-.19.18c-6.69,6.6-10.15,12.88-9.49,17.23a5.72,5.72,0,0,0,3.26,4.35,6,6,0,0,0,4.87-.05c6.35-2.28,13.47-10.61,15.39-15.12a9.66,9.66,0,0,0-.74-8.9,7.68,7.68,0,0,0-5.92-3.84Zm-7.88,5.54h0Z" transform="translate(-140 -34.6)" fill="#203c83"/><path d="M472.9,314.57c-1.06,0-2.8-.46-3.86-3.19-3.7-9.53-4.3-15.64-4.33-15.9l0-.3.13-.28a8.17,8.17,0,0,1,4.89-4.11c2.68-.76,5.75,0,9.1,2.23s4.32,6.26,3,11.24c-1.32,4.81-5,10.13-8.67,10.31Zm-5.89-19a67.51,67.51,0,0,0,4.14,15c.7,1.8,1.54,1.74,1.81,1.74,2-.1,5.3-3.9,6.6-8.65.52-1.88,1.36-6.5-2-8.75-2.78-1.85-5.22-2.5-7.23-1.93A5.9,5.9,0,0,0,467,295.6Z" transform="translate(-140 -34.6)" fill="#203c83"/><path d="M409.72,62.64c-26.93,0-61.31-1.08-77.85-6-8.15-2.42-12-5.14-11.82-8.3.36-5.85,14.74-8.54,17.62-9,31-5.17,94-8.7,130.95,3.82,9.74,3.3,14,6.09,13.75,9.06-.33,4.2-9.5,6.12-21.46,8.2l-1.33.23A97.92,97.92,0,0,1,446.3,62C442.75,62.15,427.94,62.64,409.72,62.64ZM338,41.56C329.23,43,322.47,46,322.31,48.49c0,.68.57,3.12,10.2,6,27.4,8.15,105,5.6,113.7,5.28a95.72,95.72,0,0,0,13-1.35l1.33-.23c6.29-1.09,19.38-3.37,19.59-6.14,0-.43-.4-2.74-12.21-6.74C431.3,32.91,368.83,36.43,338,41.56Z" transform="translate(-140 -34.6)" fill="#203c83"/><path d="M457.87,230.63h-.07a1.13,1.13,0,0,1-1.06-1.2c3.64-59.85,23.8-176.12,24-177.28a1.13,1.13,0,1,1,2.23.39c-.2,1.17-20.35,117.31-24,177A1.13,1.13,0,0,1,457.87,230.63Z" transform="translate(-140 -34.6)" fill="#203c83"/><path d="M384,586.79a1.13,1.13,0,0,1-.24-2.24c17.83-3.9,53-12.36,58.53-16.43s47.11-52.69,51.34-122.75c2.34-39.2-10-81.92-20.94-119.61-4.12-14.22-8-27.65-11-40.37a1.13,1.13,0,0,1,.84-1.36,1.11,1.11,0,0,1,1.36.84c3,12.67,6.87,26.07,11,40.26,11,37.86,23.39,80.78,21,120.37-4,66.41-42.72,117.4-52.25,124.44-7.28,5.37-57.27,16.35-59.39,16.82Z" transform="translate(-140 -34.6)" fill="#203c83"/><path d="M458.66,265.31a1.13,1.13,0,0,1-1.12-1c-.56-3.73-1-7.49-1.19-11.16a1.13,1.13,0,0,1,1.06-1.2,1.1,1.1,0,0,1,1.2,1.06c.23,3.61.62,7.3,1.17,11a1.13,1.13,0,0,1-1,1.29Z" transform="translate(-140 -34.6)" fill="#203c83"/><path d="M336.07,211.8h0a1.13,1.13,0,0,1-1.09-1.17c.56-16.17-15.61-159.16-15.77-160.61a1.13,1.13,0,0,1,2.25-.25c.67,5.9,16.35,144.6,15.79,160.94A1.13,1.13,0,0,1,336.07,211.8Z" transform="translate(-140 -34.6)" fill="#203c83"/><path d="M321.65,537.54a1.13,1.13,0,0,1-1-.6c-11-20.42-24.4-53.14-25.68-93.06-1.27-39.65,12.37-82.34,24.41-120C328.45,295.44,337,268.6,338,247.14a1.18,1.18,0,0,1,1.18-1.09,1.14,1.14,0,0,1,1.08,1.18c-.93,21.76-9.56,48.75-18.69,77.32-12,37.49-25.56,80-24.3,119.25,1.27,39.48,14.52,71.85,25.41,92.06a1.13,1.13,0,0,1-.46,1.54A1.15,1.15,0,0,1,321.65,537.54Z" transform="translate(-140 -34.6)" fill="#203c83"/><path d="M381.11,223.06a4.91,4.91,0,0,1-2.61-.7c-2.09-1.27-3.43-4.24-4.34-9.63-.13-.59-1.24-6.08,3-7.88,2.32-1,10.8-3.08,16.13-.82a6.61,6.61,0,0,1,3.8,3.72,7.91,7.91,0,0,1-.36,6.49c-1.6,3.25-5.22,6-9.44,7.28-.55.16-1.09.34-1.62.51A15.55,15.55,0,0,1,381.11,223.06Zm6.34-17.77a28.6,28.6,0,0,0-9.37,1.65c-2.67,1.12-1.71,5.26-1.7,5.3l0,.08c.77,4.58,1.84,7.23,3.28,8.1,1.28.78,3.06.19,5.32-.54.54-.18,1.1-.36,1.68-.53,3.58-1.06,6.74-3.45,8.05-6.11a5.64,5.64,0,0,0,.28-4.68,4.38,4.38,0,0,0-2.57-2.45A13.08,13.08,0,0,0,387.45,205.29Z" transform="translate(-140 -34.6)" fill="#203c83"/><path d="M441.06,519.47h0a12.55,12.55,0,0,1-10.44-5.58,8,8,0,0,1-.3-8.07A74.73,74.73,0,0,1,437,495.76h0a11.72,11.72,0,0,1,7.94-4.55,10.53,10.53,0,0,1,8,2.31,11.5,11.5,0,0,1,1,.94c2.79,2.95.35,9.6-.83,12.33C450.44,512.9,445.56,519.47,441.06,519.47Zm5.16-26.07a9.28,9.28,0,0,0-1,.06,9.43,9.43,0,0,0-6.39,3.67h0a73.33,73.33,0,0,0-6.46,9.73,5.74,5.74,0,0,0,.22,5.85,10.22,10.22,0,0,0,8.52,4.49h0c2.83,0,7.19-5,9.94-11.31,2-4.53,2.48-8.59,1.27-9.87a8.8,8.8,0,0,0-.8-.75A8.18,8.18,0,0,0,446.22,493.4Zm-8.34,3h0Z" transform="translate(-140 -34.6)" fill="#203c83"/><path d="M473.15,208.67a1.26,1.26,0,0,1-.69-.21c-1.45-1,.27-5.19.29-5.23s.21-.42.36-.69a6.57,6.57,0,0,0,.74-5.73,16.73,16.73,0,0,0-4.08-6.18l-.81-.74.71-.83a2.6,2.6,0,0,1,2.09-.79c1.66.13,3.34,1.63,5.13,4.57,4,6.5-1.48,14.14-2.72,15.38A1.43,1.43,0,0,1,473.15,208.67Z" transform="translate(-140 -34.6)" fill="#203c83"/><path d="M481.3,307.5a1.19,1.19,0,0,1-.34,0c-1.61-.47-1.21-4.57-1.19-4.74s.06-.42.12-.7a6.56,6.56,0,0,0-.79-5.21,15.44,15.44,0,0,0-4.7-4.54l-.85-.49.37-.91a2.22,2.22,0,0,1,1.63-1.28c1.42-.28,3.2.69,5.39,3,4.71,4.87,2.23,12.82,1.54,14.18A1.29,1.29,0,0,1,481.3,307.5Z" transform="translate(-140 -34.6)" fill="#203c83"/><path d="M455.13,254.31a10.37,10.37,0,0,1-2.72-.34,6.24,6.24,0,0,1-4.5-3.92c-1.69-4.71,2.66-8.37,6.15-11.31.59-.49,1.17-1,1.71-1.46a7.16,7.16,0,0,1,6.24-1.84,8.18,8.18,0,0,1,5.64,4.57c2.15,4.5-2.13,8.68-2.31,8.86l0,0s-2,1.8-4.33,3.71A9.66,9.66,0,0,1,455.13,254.31Zm5.53-16.74a5.06,5.06,0,0,0-3.38,1.4c-.56.5-1.15,1-1.76,1.51-3.26,2.75-6.64,5.59-5.48,8.81a4,4,0,0,0,3,2.49,8.48,8.48,0,0,0,6.52-.92c2.12-1.76,4-3.44,4.25-3.64s3.22-3.32,1.82-6.23a6,6,0,0,0-4-3.32A4.67,4.67,0,0,0,460.66,237.57ZM464.55,248h0Z" transform="translate(-140 -34.6)" fill="#203c83"/><path d="M453.07,288.68a5,5,0,0,1-3.7-1.59c-3.42-3.52-.1-7.73,1.68-10,.27-.34.51-.64.7-.91h0c2.8-3.93,6.52-4.93,10-2.68a6.32,6.32,0,0,1,2.85,4.87,6.5,6.5,0,0,1-2.13,5.32C460.82,285.12,456.79,288.68,453.07,288.68Zm.52-11.18c-.21.29-.47.62-.76,1-2,2.59-3.72,5.07-1.84,7s5.16.7,9.93-3.51a4.23,4.23,0,0,0,1.37-3.46,4,4,0,0,0-1.84-3.13C457.44,273.42,455.06,275.45,453.59,277.5Z" transform="translate(-140 -34.6)" fill="#203c83"/></svg>