<svg id="main-interview" xmlns="http://www.w3.org/2000/svg" viewBox="0 0 239.17 900.09"><title>main - interview</title><path d="M286.31,730.83a1.39,1.39,0,0,1-.52-2.68c.35-.14,35.29-15.21,34.39-96.12a319.83,319.83,0,0,0-7.11-66.35c-4.66-23.4-7.23-36.28,8.14-73.84,3.41-8.33,5.88-13.7,9.18-18.23a53.14,53.14,0,0,0,7.23-12.89,98.09,98.09,0,0,0,3.94-13.64c.95-5.7,3.35-11.78,5.67-17.66,3.37-8.54,6.56-16.6,5-22.54A15.72,15.72,0,0,0,343,396.2a16.33,16.33,0,0,0-14.74,1.31c-7.47,4.36-15,21.16-21,34.67-2.61,5.84-5.07,11.37-7.28,15.38-5.14,9.31-14.65,31.15-21,45.6-2.76,6.33-4.75,10.9-5.47,12.34-.36.72-.87,1.79-1.49,3.08-3.51,7.33-10,21-14.2,24.3a1.39,1.39,0,0,1-1.74-2.17c3.66-2.93,10.26-16.71,13.43-23.33.63-1.31,1.14-2.39,1.51-3.12.69-1.38,2.77-6.16,5.41-12.21,6.32-14.5,15.87-36.41,21.06-45.83,2.15-3.9,4.59-9.38,7.17-15.17,6.5-14.59,13.86-31.12,22.11-35.94a19,19,0,0,1,17.21-1.48,18.47,18.47,0,0,1,10.82,12.54c1.78,6.81-1.57,15.29-5.12,24.26-2.27,5.75-4.62,11.69-5.53,17.15a100.36,100.36,0,0,1-4.07,14.09,55.72,55.72,0,0,1-7.58,13.57c-3.13,4.3-5.52,9.52-8.85,17.64-15,36.78-12.54,49.38-8,72.25A322.52,322.52,0,0,1,323,632c.93,83.05-34.62,98.14-36.14,98.74A1.42,1.42,0,0,1,286.31,730.83Z" transform="translate(-161.04 -16.79)" fill="#203c83"/><path d="M298.37,916.88h-.05a1.39,1.39,0,0,1-1.34-1.44c.21-6,5.14-147.36,7.9-165.33C307.62,732.3,309,702.3,309,702l.07-1.54,1.53.23a47.61,47.61,0,0,0,33.88-7.44l-.22-18.31a1.39,1.39,0,0,1,1.38-1.41,1.48,1.48,0,0,1,1.41,1.38l.24,19.7-.53.42c-.58.47-14.21,11.2-35.05,8.62-.33,6.37-1.71,31.24-4.12,46.88-2.74,17.81-7.82,163.54-7.87,165A1.39,1.39,0,0,1,298.37,916.88Z" transform="translate(-161.04 -16.79)" fill="#203c83"/><path d="M162.43,909.46l-.22,0a1.39,1.39,0,0,1-1.15-1.6c2.58-16.14,6.69-36.05,11-57.14,11.49-55.75,24.52-118.94,18.2-151.16-6.36-30.9-13.5-155.16-11.61-169.79,1.8-14,14.46-21.29,19.87-24.43l1.21-.71c2.52-1.69,21.53-29.64,36.79-52.09,13.31-19.57,25.88-38.06,29.23-41.83,2.86-3.22,5.85-4.86,8.89-4.89a9.5,9.5,0,0,1,6.17,2.56,1.39,1.39,0,0,1-2,1.89,6.48,6.48,0,0,0-4.14-1.66c-2.2,0-4.49,1.37-6.79,4-3.23,3.64-15.75,22.05-29,41.54-21.66,31.86-35,51.32-37.66,52.91l-1.25.73c-5.48,3.18-16.88,9.79-18.5,22.38C179.56,544.65,186.69,668.23,193,699c6.42,32.79-6.66,96.27-18.21,152.27-4.34,21-8.44,40.93-11,57A1.39,1.39,0,0,1,162.43,909.46Z" transform="translate(-161.04 -16.79)" fill="#203c83"/><path d="M359.24,452.55a69.9,69.9,0,0,1-9.31-.82l-.55-.07a1.39,1.39,0,0,1,.36-2.76l.55.07c8.2,1.09,14.13,1.88,25.67-3.35,4.41-2,6.8-4.2,6.73-6.19-.09-2.47-3.8-5-6.27-5.85-3.85-1.39-22.64-10.11-23.44-10.49a1.39,1.39,0,0,1,1.17-2.52c.19.09,19.47,9,23.21,10.39,2.2.8,7.93,3.86,8.1,8.36.13,3.29-2.69,6.26-8.36,8.83C369.6,451.57,364.21,452.55,359.24,452.55Z" transform="translate(-161.04 -16.79)" fill="#203c83"/><path d="M342.23,587.16a8.08,8.08,0,0,1-4.12-1c-2.72-1.57-4.53-4.89-5.39-9.88-2.46-14.42,2-27.58,14-41.38h0l.35-.42c.85-1,1.75-1.92,2.68-2.9,14.09-14.76,15.12-14.34,16.1-13.95l.88.35,0,1a1.39,1.39,0,0,1-1.37,1.39c-.78.48-3.69,2.72-13.63,13.13-.79.83-1.56,1.66-2.29,2.47l-.31.38c-11.7,13.26-16.06,25.8-13.73,39.46.71,4.13,2.07,6.8,4,7.94,2.17,1.25,4.92.53,7.31-.36l1.8-.67c1-.39,4.86-4.59,8.24-8.3,1.79-2,3.76-4.13,5.85-6.35,4-4.25,10-10.4,15.8-14.75,8.15-6.06,14.53-16.21,14.53-23.1s-.51-11.76-10.45-20.68c-7.19-6.43-24.59-19.22-34.32-26.27a1.39,1.39,0,1,1,1.63-2.26c9.78,7.08,27.27,19.94,34.55,26.45,10.59,9.49,11.38,15.17,11.38,22.75,0,7.81-6.73,18.71-15.65,25.34-5.64,4.21-11.51,10.25-15.43,14.42-2.08,2.21-4,4.36-5.82,6.31-5.24,5.75-7.82,8.53-9.4,9.06l-1.75.66A16.24,16.24,0,0,1,342.23,587.16Z" transform="translate(-161.04 -16.79)" fill="#203c83"/><path d="M348.82,584.1a1.39,1.39,0,0,1-1.39-1.31,8,8,0,0,0-1.22-2.18c-2.33-3.43-6.74-8.23-7.6-8.76a1.9,1.9,0,0,1-.89-1.34c-.22-1.35.64-3.38,5.59-9.34l.36-.43a30.24,30.24,0,0,1,2.7-3h0l.46-.44c2.35-2.09,4.48-2.76,6.37-2,5.12,2.12,10.26,10.44,11.71,12.95l-1.12.86-1.25.62c-2.68-4.63-7-10.44-10.42-11.86-.88-.37-2.09.36-3.06,1.15l-.39.36a25.33,25.33,0,0,0-2.82,3l-.41.49c-3.68,4.42-4.65,6.2-4.9,6.89a60.1,60.1,0,0,1,8,9.22c1.18,1.76,1.65,2.77,1.69,3.59a1.39,1.39,0,0,1-1.32,1.45Z" transform="translate(-161.04 -16.79)" fill="#203c83"/><path d="M324.31,651.93l-.52,0a4.13,4.13,0,0,1-2.94-1.44,1.39,1.39,0,1,1,2.14-1.78,1.39,1.39,0,0,0,1,.45c7.55.66,33.17-20.86,45.43-31.21l1.49-1.25c13.08-11,12.51-17,11.37-29l-.2-2.19c-1.22-13.42,2.3-35.43,2.45-36.36a1.39,1.39,0,1,1,2.75.45c0,.22-3.61,22.6-2.42,35.67l.2,2.17c1.15,12.1,1.84,19.4-12.35,31.37l-1.48,1.26C352.95,635.52,332.79,651.93,324.31,651.93Z" transform="translate(-161.04 -16.79)" fill="#203c83"/><path d="M321.91,628.18a1.37,1.37,0,0,1-1-.38,1.39,1.39,0,0,1-.06-2c.23-.25,23.71-25.07,36.52-35.11a1.39,1.39,0,1,1,1.72,2.19c-12.65,9.91-36,34.58-36.21,34.83A1.38,1.38,0,0,1,321.91,628.18Z" transform="translate(-161.04 -16.79)" fill="#203c83"/><path d="M343,641a1.39,1.39,0,0,1-1.36-1.11c0-.06-1.35-6.37-5.34-9.14-4.19-2.9-5.95-1.27-6.53-.73-1.23,1.14-6.85,5.93-7.09,6.13a1.39,1.39,0,1,1-1.81-2.12c.06,0,5.82-5,7-6,1.48-1.38,4.75-3.15,10,.48,4.93,3.41,6.43,10.57,6.49,10.87a1.39,1.39,0,0,1-1.09,1.64Z" transform="translate(-161.04 -16.79)" fill="#203c83"/><path d="M327.83,649.84a1.39,1.39,0,0,1-1.25-.78c-1.61-3.3-6-7.57-6.07-7.61a1.39,1.39,0,1,1,1.93-2c.2.19,4.81,4.65,6.64,8.4a1.39,1.39,0,0,1-1.25,2Z" transform="translate(-161.04 -16.79)" fill="#203c83"/><path d="M323.43,682.46a11.08,11.08,0,0,1-3-.36,5.74,5.74,0,0,1-4.13-3.71,1.39,1.39,0,0,1,2.64-.9,3,3,0,0,0,2.25,1.92c6.33,1.79,22.37-5.2,33.64-14.64s17.05-17.93,18-26.22c.76-7-.08-21.81-.09-22a1.39,1.39,0,0,1,1.31-1.47,1.37,1.37,0,0,1,1.47,1.31c0,.62.87,15.16.08,22.41-1,9-7.17,18.22-18.93,28.06C347.11,674.9,332.2,682.46,323.43,682.46Z" transform="translate(-161.04 -16.79)" fill="#203c83"/><path d="M320.44,664.37a1.39,1.39,0,0,1-.58-2.66h0c.07,0,6.85-3.31,22.06-21a1.39,1.39,0,1,1,2.11,1.82c-15.77,18.29-22.73,21.54-23,21.67A1.38,1.38,0,0,1,320.44,664.37Z" transform="translate(-161.04 -16.79)" fill="#203c83"/><path d="M327.88,682.17a2.4,2.4,0,0,1-1.86-.67,39.82,39.82,0,0,1-2.73-4.82l-1.8-3.07a4.24,4.24,0,0,1-.31-3.47c1.09-3.53,6-7.2,10.05-9.11a4.35,4.35,0,0,1,3.83,0c3.85,1.81,5.69,8.32,6,9.61.79,3.05-1.32,6.17-3.81,7.67h0C333,680.87,329.86,682.17,327.88,682.17Zm5.27-18.8a1.71,1.71,0,0,0-.73.18c-4.12,1.94-7.89,5.2-8.58,7.42a1.42,1.42,0,0,0,.05,1.24l1.84,3.13c.82,1.6,1.81,3.42,2.22,4.09,1,0,4-1.18,7.89-3.51h0c1.56-.94,3-3,2.55-4.59-.82-3.2-2.64-6.91-4.51-7.79A1.7,1.7,0,0,0,333.15,663.36Zm3.41,13.74h0Z" transform="translate(-161.04 -16.79)" fill="#203c83"/><path d="M337.54,427.27a7.83,7.83,0,0,1-1.87-.26c-1.64-.41-11.45-3.58-15.94-5.08a5.12,5.12,0,0,1-3.48-2.81c-.7-1.85.38-3.67,1-4.76.11-.18.2-.34.28-.48h0c.57-1.1,1.13-2.55,1.73-4.08,1.25-3.22,2.8-7.22,5.39-10.42,4.63-5.73,11.47-2.68,17-.22,9.79,4.69,5.3,15,2.62,21.14C341.9,425.67,339.93,427.27,337.54,427.27ZM320,415.17c-.09.18-.21.39-.35.61-.41.7-1,1.76-.81,2.37.15.42.78.82,1.75,1.15,4.9,1.63,14.28,4.65,15.73,5s2.81.7,5.35-5.12c3.34-7.65,5.54-14.25-1.24-17.5-7.14-3.19-10.81-4-13.63-.55-2.31,2.86-3.71,6.48-5,9.68a45.38,45.38,0,0,1-1.85,4.36Z" transform="translate(-161.04 -16.79)" fill="#203c83"/><path d="M398.82,304a1.39,1.39,0,0,1-1.39-1.39V190.31a8.3,8.3,0,0,0-1.76-5.27l-24.28-31.21a8.7,8.7,0,0,0-7-1.54L235.82,163.62c-.82.22-3.21,2.94-3.11,12.53.15,14.46,0,102.59,0,103.48a1.39,1.39,0,0,1-1.39,1.39h0a1.39,1.39,0,0,1-1.39-1.39c0-.89.15-89,0-103.45-.15-14,4.66-15.24,5.63-15.33l128.37-11.29a11.33,11.33,0,0,1,9.29,2.19l.24.24,24.31,31.26a10.94,10.94,0,0,1,2.42,7.08V302.59A1.39,1.39,0,0,1,398.82,304Z" transform="translate(-161.04 -16.79)" fill="#203c83"/><path d="M368.2,268.38a1.36,1.36,0,0,1-.41-.06,1.39,1.39,0,0,1-.92-1.73c1-3.64.49-71-.06-115.45a1.39,1.39,0,0,1,1.38-1.41h0a1.39,1.39,0,0,1,1.39,1.37c.14,11.42,1.35,111.7-.06,116.3A1.39,1.39,0,0,1,368.2,268.38Z" transform="translate(-161.04 -16.79)" fill="#203c83"/><path d="M277.72,160.5a1.38,1.38,0,0,1-.86-.3c-16.9-13.44-21.64-57-20.44-93.24a54.44,54.44,0,0,1,2.18-14c10.19-33.57,44.65-36.18,55-36.18C333.11,16.79,367,26.88,370,64.7,372.28,92.48,372.9,141,352,153.92a1.39,1.39,0,1,1-1.46-2.37c14.35-8.86,20.45-40.44,16.74-86.63-2.88-35.8-35.12-45.35-53.71-45.35-9.84,0-42.68,2.47-52.31,34.2a51.68,51.68,0,0,0-2.06,13.27c-1.47,44.72,6.14,80.43,19.39,91a1.39,1.39,0,0,1-.87,2.48Z" transform="translate(-161.04 -16.79)" fill="#203c83"/><path d="M368.33,76.64a1.39,1.39,0,0,1-.63-.15l-1.07-.55c-18.4-9.52-35.54-14.67-51-15.31-24.51-1-57.21,12.8-57.54,12.94A1.39,1.39,0,1,1,257,71c1.36-.58,33.68-14.26,58.74-13.16,15.82.66,33.36,5.91,52.12,15.62l1,.54a1.39,1.39,0,0,1-.63,2.63Z" transform="translate(-161.04 -16.79)" fill="#203c83"/><path d="M369.5,92.21a1.38,1.38,0,0,1-.63-.15c-15.51-7.93-33-12.36-52.07-13.16-28-1.15-58,10.23-58.3,10.34a1.39,1.39,0,1,1-1-2.6c.3-.12,30.76-11.74,59.41-10.52,19.45.82,37.35,5.35,53.22,13.46a1.39,1.39,0,0,1-.63,2.63Z" transform="translate(-161.04 -16.79)" fill="#203c83"/><path d="M350.32,401.4h0a1.39,1.39,0,0,1-1.37-1.41c.58-42.11.85-73.32.78-90.25,0-.68,0-1.33,0-1.95a1.39,1.39,0,0,1,1.32-1.45,1.37,1.37,0,0,1,1.45,1.32c0,.66,0,1.35,0,2.07.07,16.94-.2,48.17-.78,90.3A1.39,1.39,0,0,1,350.32,401.4Z" transform="translate(-161.04 -16.79)" fill="#203c83"/><path d="M279.11,491.76a1.39,1.39,0,0,1-1.39-1.39l.07-5.14c1.55-92,2.49-137.7,3-159.8l.11-4.33c.06-2.56.12-5,.2-7.26a1.39,1.39,0,1,1,2.78.09c-.07,2.26-.13,4.69-.2,7.25l-.11,4.33c-.52,22.09-1.47,67.75-3,159.78l-.07,5.09A1.39,1.39,0,0,1,279.11,491.76Z" transform="translate(-161.04 -16.79)" fill="#203c83"/><path d="M347.76,559.75a1.38,1.38,0,0,1-1.39-1.38v0a1.39,1.39,0,1,1,1.39,1.41Z" transform="translate(-161.04 -16.79)" fill="#203c83"/><path d="M347,602.78h0a1.39,1.39,0,0,1-1.37-1.42s.11-6.15.33-16.74a1.39,1.39,0,0,1,1.39-1.36h0a1.39,1.39,0,0,1,1.36,1.42c-.22,10.57-.33,16.72-.33,16.72A1.39,1.39,0,0,1,347,602.78Z" transform="translate(-161.04 -16.79)" fill="#203c83"/><path d="M348.15,536.76h0a1.38,1.38,0,0,1-1.38-1.38c.31-16.25.61-34.4.92-53.3l.5-31.62c.14-7.92.25-15.63.35-23.26v-.91a1.41,1.41,0,0,1,1.39-1.39h0a1.38,1.38,0,0,1,1.38,1.38v1c-.11,7.64-.21,15.35-.35,23.06l-.5,31.82c-.31,18.9-.61,37.05-.92,53.26A1.4,1.4,0,0,1,348.15,536.76Z" transform="translate(-161.04 -16.79)" fill="#203c83"/><path d="M262.92,317a6.71,6.71,0,0,1-5.17-2.38l-27.3-32.14a2.39,2.39,0,0,1-.37-2.48,2.32,2.32,0,0,1,2-1.39l133.48-12.27a6.93,6.93,0,0,1,5.68,2.27L399.61,301a2.39,2.39,0,0,1,.6,1.56,2.35,2.35,0,0,1-2.15,2.33l-48.37,4.31v-1.51c0-6.07-.1-10-.22-11.84-15.11-11.69-32.28-11.67-44.07-9.56-12.32,2.19-20.13,6.85-20.81,8,0,.24-.25,3-.68,19.63l0,1.24L263.48,317Zm-29.82-35.7,26.78,31.53a4,4,0,0,0,3.37,1.38l17.9-1.59c.48-18.09.7-18.84.8-19.21.69-2.32,7.44-5.55,13.75-7.54,9.79-3.1,34.84-8.5,56,8.23l.46.37.06.59c.15,1.54.24,5.2.27,11.17l44.5-4-27.83-31.82a4.11,4.11,0,0,0-3.35-1.34Zm164.41,21.59h0ZM232.29,281.35h0Z" transform="translate(-161.04 -16.79)" fill="#203c83"/></svg>