<svg id="main-soufflage" xmlns="http://www.w3.org/2000/svg" viewBox="0 0 1148 416.26"><title>soufflage - main</title><path d="M949.68,210.52q-.18,1.59-.36,3.09c-1.45,12.57-2.85,21.72-3,22.84a1.5,1.5,0,0,1-1.48,1.27.75.75,0,0,1-.24,0,1.47,1.47,0,0,1-1.24-1.73c0-.27,1.42-9.36,2.91-22.14.12-1,.24-2,.36-3.06,1.88-16.93,3.76-39.1,3-55.95,0-1-.09-2-.15-3-.52-7.69-1.64-14-3.7-17.84-5.66-10.51-15.05-17.66-25.17-19.14a1.47,1.47,0,0,0-.36,0,20,20,0,0,0-3-.24,20.93,20.93,0,0,0-15.27,6.12c-3.54,3.57-7.36,5.3-11.36,5.18-5.24-.15-9.54-3.45-12.39-6.51-.24-.27-.48-.51-.7-.76a13.06,13.06,0,0,0-1.12-1.12,15.28,15.28,0,0,0-7.24-4.12,13.21,13.21,0,0,0-13.33,4.27c-5.94,6.39-9.9,8.84-13.54,8.39-3.3-.36-6.09-3-9.33-8.66-1.58-2.76-4.33-4.39-8.18-4.91-7.81-1.06-17.36,2.85-20.51,6a32.81,32.81,0,0,1-27,8.78c-10.15-1.48-23.84,8.54-28.65,21-3.57,9.21-5.36,14.84-6.09,17.45a17.59,17.59,0,0,0-.48,1.79,1.5,1.5,0,0,1-1.82,1.12,1.47,1.47,0,0,1-1.12-1.79,7.73,7.73,0,0,1,.21-.91,185.46,185.46,0,0,1,6.45-18.75c5.39-13.87,20.35-24.57,31.93-22.93a30.12,30.12,0,0,0,24.47-7.88c4.12-4.15,14.87-8,23-6.85,4.79.64,8.36,2.85,10.39,6.39,2.7,4.69,4.88,6.91,7.06,7.18,2.54.27,5.94-2,11-7.45,5.63-6,11.93-6.15,16.24-5.15a19.23,19.23,0,0,1,10,6.18c2,2.27,6.09,6.12,10.93,6.24,3.06.12,6.15-1.33,9.12-4.27,5.51-5.54,13-7.91,21.2-6.72,11,1.61,21.26,9.36,27.38,20.69,2.24,4.15,3.45,10.93,4,19.11.09,1,.12,2,.18,3C953.38,171.62,951.56,193.61,949.68,210.52Z" transform="translate(-13.9 -109.21)" fill="#203c83"/><path d="M782,523.9a1.52,1.52,0,0,1-1.45,1.58h-.06A1.51,1.51,0,0,1,779,524c-.06-1.09-5.45-111.38-10.63-174a355.11,355.11,0,0,0-7.54-47.53c-4.09-18.33-5.88-48.28-6.63-75.91,0-1,0-2-.06-3-.58-23.63-.39-45.13-.24-55.61,0-1.15,0-2.18.06-3.06,0-2.24.06-3.51.06-3.63a1.63,1.63,0,0,1,1.54-1.48,1.52,1.52,0,0,1,1.48,1.54c0,.09,0,1.3-.06,3.39,0,.85,0,1.88-.06,3-.15,10.33-.33,31.93.24,55.64,0,1,0,2,.06,3,.73,27.5,2.51,57.28,6.54,75.45a350.61,350.61,0,0,1,7.6,47.92C776.54,412.46,781.93,522.78,782,523.9Z" transform="translate(-13.9 -109.21)" fill="#203c83"/><path d="M888.77,335.4a1.51,1.51,0,0,1-.88-2.75c12.93-9.16,37.76-36.84,54.19-55.15,6.55-7.3,11.73-13.07,14.52-15.86,9.47-9.47,14.68-30,14-35.85-.57-4.55-7-11.84-9.41-14.26a1.51,1.51,0,1,1,2.14-2.14c.39.39,9.46,9.53,10.28,16,.87,7-4.92,28.47-14.82,38.36-2.74,2.74-7.89,8.48-14.41,15.74-16.52,18.42-41.5,46.25-54.7,55.6A1.52,1.52,0,0,1,888.77,335.4Z" transform="translate(-13.9 -109.21)" fill="#203c83"/><path d="M920.57,481.55a1.51,1.51,0,0,1-1.41-1c-.17-.44-17.54-44.43-22.8-75.27s.69-79.47.75-80a1.51,1.51,0,0,1,3,.38c-.06.49-6,48.6-.77,79.07S921.81,479,922,479.48a1.52,1.52,0,0,1-.85,2A1.49,1.49,0,0,1,920.57,481.55Z" transform="translate(-13.9 -109.21)" fill="#203c83"/><path d="M873.74,139.45a.79.79,0,0,1-.64.33.72.72,0,0,1-.42-.15.77.77,0,0,1-.18-1.06,30.3,30.3,0,0,0,3.88-21.14c-.12-.73-.27-1.45-.45-2.21a.75.75,0,1,1,1.45-.36,31.58,31.58,0,0,1,.82,4.45A31,31,0,0,1,873.74,139.45Z" transform="translate(-13.9 -109.21)" fill="#203c83"/><path d="M831,129.43a.77.77,0,0,1-.76.76.75.75,0,0,1-.76-.76c0-3.79-4.39-11.15-4.45-11.24a.75.75,0,0,1,1.3-.76C826.49,117.74,831,125.22,831,129.43Z" transform="translate(-13.9 -109.21)" fill="#203c83"/><path d="M776.94,136.33a.78.78,0,0,1-.58.91h-.18a.74.74,0,0,1-.73-.58l-1.51-6.57a.76.76,0,0,1,.58-.91.77.77,0,0,1,.91.58Z" transform="translate(-13.9 -109.21)" fill="#203c83"/><path d="M929.78,141.45a.71.71,0,0,1-.64.33.67.67,0,0,1-.39-.12.74.74,0,0,1-.24-1c8.18-13,1.7-19.69,1.64-19.75a.77.77,0,0,1,0-1.09.79.79,0,0,1,1.06,0C931.51,120.1,938.6,127.46,929.78,141.45Z" transform="translate(-13.9 -109.21)" fill="#203c83"/><path d="M921.27,113.5a.77.77,0,0,1-.42,1l-.64.27c-11.87,4.94-12,17.05-12,17.17a.77.77,0,0,1-.76.76.75.75,0,0,1-.76-.76c0-.12.12-11.51,10.51-17.42a24.37,24.37,0,0,1,3.09-1.45A.74.74,0,0,1,921.27,113.5Z" transform="translate(-13.9 -109.21)" fill="#203c83"/><path d="M357.12,190.74a1.52,1.52,0,0,1-1.79-1.18l-.24-1.21-6-27.81a22.31,22.31,0,0,0-2.64-4.21,34.68,34.68,0,0,0-9.3-8.45c-10.12-6.39-39.68-21.48-43.62-21.48a20.11,20.11,0,0,1-4.12-.76c-7.21-1.79-19.29-4.76-24.23,10.81-4.76,14.93-6.85,41.62-7.63,56.64,0,1.09-.09,2.09-.12,3-.18,3.76-.24,6.42-.24,7.51v1.3c-.45,32.59,4.42,42.47,7.39,45.47a5,5,0,0,0,3.73,1.7c12.81,0,18.17-3.15,18.17-22.72,0-19.2-2.45-28.81-2.48-28.9a1.65,1.65,0,0,1,0-.67c.06-.27.42-2.18,1.06-5,.21-.94.42-2,.7-3.09,1.73-7.54,4.48-18.57,7.33-25.26,0-.09.06-.15.09-.24a1.51,1.51,0,0,1,2.91.58v.06a1.11,1.11,0,0,1-.12.55c-.73,1.7-1.45,3.7-2.18,5.91v0c-1.85,5.82-3.6,12.84-4.88,18.26-.24,1.09-.48,2.12-.67,3.06-.64,2.7-1,4.66-1.18,5.42.45,1.94,2.48,11.51,2.48,29.32,0,16-3.48,23.08-13.63,25.11a35.36,35.36,0,0,1-5.76.61h0c-.58,0-1.18,0-1.79,0-.3,0-.61,0-.91-.06l-.39,0a8.53,8.53,0,0,1-4.57-2.51c-5.85-5.91-8.63-21.93-8.27-47.65v-1.24c0-1.06.06-3.7.24-7.33,0-.94.06-2,.15-3.06.45-9.45,1.48-23.6,3.36-36.59.18-1.27.36-2.54.58-3.79a123.39,123.39,0,0,1,3.82-17.33c5.79-18.3,20.69-14.6,27.84-12.84a22,22,0,0,0,3.39.67c5.15,0,36.29,16.3,45.22,21.93,9.9,6.27,13.09,14,13.24,14.36l6.09,28.53.15.76A1.49,1.49,0,0,1,357.12,190.74Z" transform="translate(-13.9 -109.21)" fill="#203c83"/><path d="M260.79,307.53a6,6,0,0,1-2.15.39c-9.09,0-19.36-20.29-27.69-36.83-.12-.21-.21-.45-.33-.67v0c-1.85-3.67-3.48-6.88-4.91-9.39-.21-.36-.39-.73-.61-1.09-.36-.61-.7-1.21-1-1.85-.61-1.09-1.15-2.24-1.67-3.36v0a115.66,115.66,0,0,1-8.12-26.56c0-.33-.7-14.15-1.33-29.78-.06-1-.09-2-.15-3-.55-13.72-1.06-28.26-1.06-36.11,0-9.45,4.21-14.24,9.72-16.66a24.71,24.71,0,0,1,5.39-1.64,64.87,64.87,0,0,1,12.66-.88c9.21,0,16.42,9.09,19,12.84.58.85.94,1.42,1,1.54a1.49,1.49,0,0,1-.51,2.06,1.63,1.63,0,0,1-1.06.18,1.46,1.46,0,0,1-1-.7c-.06-.15-7.75-12.9-17.36-12.9-10.45,0-24.75,0-24.75,16.14,0,7.81.48,22.29,1,36,.06,1,.09,2,.15,3,.64,15.6,1.3,29.35,1.33,29.62,0,0,3,17.36,10.12,30a3.46,3.46,0,0,0,.3.58c.42.73.85,1.51,1.3,2.36,1.36,2.54,2.88,5.57,4.6,9,7.12,14.08,19.08,37.65,26,35,9.78-3.73,15.11-6.91,11.18-28.62l-3.27-18h0l-.55-3V255l-.21-1.15a1.53,1.53,0,0,1,1.24-1.76.84.84,0,0,1,.27,0,1.5,1.5,0,0,1,1.48,1.24l.27,1.54,0,.21h0l.48,2.79,3.21,17.66C278.12,299.05,271.46,303.48,260.79,307.53Z" transform="translate(-13.9 -109.21)" fill="#203c83"/><path d="M235.2,299c-1.57,1.85-4.12,2.73-8.12,2.73a45.2,45.2,0,0,1-6.94-.64c-10.72-1.64-18.75-14.21-27.26-27.5-2.09-3.27-4.24-6.66-6.42-9.81-.39-.58-.76-1.12-1.15-1.67-.18-.24-.36-.51-.51-.76a4.62,4.62,0,0,1-.33-.48,69.25,69.25,0,0,1-8.78-18.23.23.23,0,0,1-.06-.12c-.67-2.15-1.18-4.12-1.58-5.82,0,0,0-.06,0-.12a56.29,56.29,0,0,1-1.09-7.06c0-.21-.45-11.87-.73-25.11v0c-.06-1.33-.09-2.64-.09-4,0-1-.06-2.06-.09-3.06-.06-4.82-.12-9.57-.12-13.87,0-12.9,3.12-24.05,9.3-33.26.55-.85,1.15-1.7,1.79-2.51a49.18,49.18,0,0,1,3.48-4.12c8-8.51,19.9-7.6,20.42-7.54l19.39,4.57a1.3,1.3,0,0,1,.64.33,1.42,1.42,0,0,1,.48,1.48,1.48,1.48,0,0,1-1.82,1.12l-4.06-1L206.39,139a5.52,5.52,0,0,1-.82,0c-2.64,0-11.15.48-16.93,6.63-9.09,9.72-13.72,22.45-13.72,37.83,0,4.27.06,9,.12,13.75,0,1,.06,2,.06,3,0,1.48.06,3,.09,4.45.3,13.06.73,24.5.76,24.66a67.13,67.13,0,0,0,11.81,31l.18.27c.7.94,1.36,1.94,2,2.91,1.88,2.76,3.7,5.63,5.48,8.42,8.12,12.72,15.78,24.72,25.14,26.14,6.85,1.06,10.78.73,12.33-1.06s1.3-5.15-.36-10.63c-2.64-8.48-6.12-19-8.24-25.26-.39-1.15-.73-2.15-1-3-.51-1.54-.85-2.48-.85-2.51a1.34,1.34,0,0,1,0-.91v0a1.48,1.48,0,0,1,1-1,1.5,1.5,0,0,1,1.91.94c0,.06.42,1.27,1.09,3.27h0c.27.85.61,1.85,1,3,.94,2.67,2,6,3.21,9.51v0c1.61,4.91,3.36,10.3,4.82,15.05C237.53,292.21,237.44,296.39,235.2,299Z" transform="translate(-13.9 -109.21)" fill="#203c83"/><path d="M178.25,283.7a10.5,10.5,0,0,1-5.45,1.51,14.08,14.08,0,0,1-4.3-.73c-5.21-1.73-10.69-6.3-15.84-12q-1.23-1.32-2.36-2.73c-.94-1.09-1.88-2.21-2.76-3.36-.76-.94-1.48-1.91-2.21-2.88-8.3-11.21-14.75-23.35-16.24-27-2.39-6-1.67-20.87-.3-34,.09-1,.21-2.06.33-3.06,1.06-9.21,2.33-17,2.94-19.42,1.54-6.18,19.36-31.5,28.14-35.35,8.18-3.57,21.05,2.18,22.78,3a.47.47,0,0,0,.18.09,1.51,1.51,0,0,1,.7,2,1.48,1.48,0,0,1-2,.7s-.24-.12-.67-.3c-2.73-1.18-13.39-5.48-19.78-2.7-7.72,3.36-25,27.75-26.41,33.29-.61,2.48-1.82,9.87-2.79,18.54-.12,1-.24,2-.33,3.06-1.36,12.93-2.12,27.65,0,33s9,17.39,17.11,27.9h0c.73,1,1.48,2,2.24,2.91h0c6,7.36,12.51,13.54,18.14,15.42,2.79.91,5.15.76,7.21-.51,6.79-4.15,7.45-10.51,5.72-17.08a25.78,25.78,0,0,0-.91-3A87.06,87.06,0,0,0,175,247.77c-.73-1.27-1.39-2.48-2-3.54-5.21-9.9-1.09-38.59-.91-39.8,0,0,0,0,0-.06v0a1.45,1.45,0,0,1,1.7-1.18,1.53,1.53,0,0,1,1.3,1.51c0,.06,0,.12,0,.21s-2.85,19.78-1.15,31.65c0,.06,0,.09,0,.12a20.63,20.63,0,0,0,1.58,5.82.23.23,0,0,0,.06.12c0,.06.06.15.09.21.55,1.06,1.21,2.24,1.91,3.48a88.64,88.64,0,0,1,6.94,14.51c.06.18.12.33.18.51a25.39,25.39,0,0,1,.7,2.48C187.34,271.25,186.43,278.67,178.25,283.7Z" transform="translate(-13.9 -109.21)" fill="#203c83"/><path d="M357.69,231.9c0,5.72-.09,11.51-.21,17,0,1,0,2-.06,3-.42,17.3-1.24,31.35-1.24,31.53s0,.24-.06.33c-.21.67-4.91,16.39-18.45,23.14-5.48,2.73-20.08,9.51-35.17,16.42-1.45.67-2.88,1.33-4.33,2-19.23,8.84-38,17.36-38.32,17.51a1.36,1.36,0,0,1-.61.12,1.53,1.53,0,0,1-1.39-.88,1.57,1.57,0,0,1,.76-2c.64-.27,64.73-29.32,77.69-35.8,11.72-5.85,16.33-19.54,16.84-21.14.09-1.7.82-14.87,1.24-31,0-1,.06-2,.06-3.06.12-5.57.21-11.42.21-17.2,0-17.72-1.18-25.56-10-40-.61-.94-1.21-1.94-1.88-3-3.12-4.88-7.09-10.51-12.06-17.45-11.15-15.57-21.17-23.35-27.47-21.48-4.27,1.3-6.82,7.24-7.15,16.78v.06c-.24,7.12,4.06,16.05,8.57,24,.58,1,1.15,2,1.7,3,.85,1.42,1.67,2.76,2.42,4.06,3,4.91,5.09,8.48,5.48,10.6,2.91,13.15-1.06,33-3.63,43.68h0c-.27,1.15-.55,2.18-.79,3.09-.61,2.39-1.06,3.88-1.15,4.15a1.51,1.51,0,1,1-2.91-.85c0-.06.33-1.18.85-3.06.21-.88.48-1.94.79-3.12,2.51-10.15,6.75-30.44,3.91-43.32-.3-1.64-2.64-5.51-5.12-9.6-1-1.73-2.12-3.54-3.24-5.48-.55-1-1.12-2-1.7-3-3.15-5.69-6.09-11.84-7.45-17.63v0a26.1,26.1,0,0,1-.73-6.54,1,1,0,0,1,0-.3c.51-13.81,5.33-18.14,9.27-19.33,7.75-2.36,18.69,5.66,30.8,22.57,5.51,7.69,9.78,13.81,13.12,19.08.64,1,1.24,2,1.82,3C356.54,205.85,357.69,214,357.69,231.9Z" transform="translate(-13.9 -109.21)" fill="#203c83"/><path d="M201.69,509.06a1.5,1.5,0,0,1-1-.36c-6.7-5.74-26.6-60.38-59.15-162.4l-1.88-5.89c-5.13-15.91,9.94-68.33,10.59-70.55a1.52,1.52,0,0,1,2.91.84c-.16.54-15.46,53.75-10.61,68.78l1.89,5.9c42.45,133.06,54.71,158,58.24,161a1.52,1.52,0,0,1-1,2.67Z" transform="translate(-13.9 -109.21)" fill="#203c83"/><path d="M329.41,467.16a1.51,1.51,0,0,1-1.36-.84c-.24-.49-24.41-49.51-33.43-84.09-9.14-35,4.62-59.2,5.2-60.21a1.52,1.52,0,0,1,2.62,1.53c-.14.24-13.7,24.15-4.89,57.92,8.94,34.29,33,83,33.21,83.51a1.51,1.51,0,0,1-1.36,2.19Z" transform="translate(-13.9 -109.21)" fill="#203c83"/><path d="M129.12,199.46c1-.06,2.06-.09,3.09-.15-.12,1-.24,2-.33,3.06-1,0-2.06.09-3.09.15-64.21,3.18-112,5.6-113.32,5.66h-.06a1.52,1.52,0,0,1-.09-3C16.59,205.09,64.67,202.67,129.12,199.46Z" transform="translate(-13.9 -109.21)" fill="#203c83"/><path d="M175.1,200.22c-1,0-2,.09-3,.15,0-1-.06-2.06-.09-3.06,1,0,2-.09,3-.12C175.07,198.19,175.1,199.22,175.1,200.22Z" transform="translate(-13.9 -109.21)" fill="#203c83"/><path d="M216,198.19c-1,0-2,.09-3,.15-.06-1-.09-2-.15-3,1-.06,2-.12,3-.15C215.9,196.19,215.93,197.19,216,198.19Z" transform="translate(-13.9 -109.21)" fill="#203c83"/><path d="M257.58,193.1c0,1.09-.09,2.09-.12,3l-3,.18c0-.94.06-2,.15-3.06C255.58,193.19,256.58,193.16,257.58,193.1Z" transform="translate(-13.9 -109.21)" fill="#203c83"/><path d="M306.35,193.76c-1.15,0-2.27.09-3.42.15l-14.69.73c-1.06,0-2.12.09-3.18.15.21-.94.42-2,.7-3.09,1.06,0,2.09-.09,3.15-.12l12.33-.64c1.15,0,2.27-.09,3.42-.15C305.23,191.8,305.8,192.8,306.35,193.76Z" transform="translate(-13.9 -109.21)" fill="#203c83"/><path d="M753.92,164.84l3-.18c0,.85,0,1.88-.06,3-1,.06-2,.12-3,.21C615.73,177,486.52,185.31,448.62,187c-21.84,1-58.07,2.7-100.53,4.76-1.15,0-2.3.09-3.45.15-.61-.94-1.21-1.94-1.88-3,1.18,0,2.33-.09,3.51-.15,3-.15,5.91-.27,8.81-.42,1-.06,2-.09,3-.15,38-1.82,70.27-3.36,90.36-4.24,36.59-1.61,158.21-9.39,290.82-18.14,1.06-.06,2.12-.15,3.21-.21C746.28,165.35,750.1,165.08,753.92,164.84Z" transform="translate(-13.9 -109.21)" fill="#203c83"/><path d="M1161.89,138.91a1.55,1.55,0,0,1-1.42,1.64c-2.33.15-92.23,6.3-207.88,14.08l-3,.18c0-1-.09-2-.15-3l3-.18c115.65-7.78,205.52-13.93,207.85-14.08A1.55,1.55,0,0,1,1161.89,138.91Z" transform="translate(-13.9 -109.21)" fill="#203c83"/><path d="M149.05,263.28c.73,1,1.48,2,2.24,2.91-1.27.06-2.51.15-3.76.24-44.86,3.12-73.73,5.15-74.94,5.24h-.09a1.52,1.52,0,0,1-.12-3c1.21-.09,29.2-2.06,72.94-5.09l3.7-.27Z" transform="translate(-13.9 -109.21)" fill="#203c83"/><path d="M190,263.49c-1.18.06-2.36.15-3.51.24l-1,.06c-1,.06-2.06.15-3.09.21a25.78,25.78,0,0,0-.91-3c1-.06,2-.15,3-.21a.33.33,0,0,0,.15,0c1.09-.06,2.21-.12,3.33-.21C188.64,261.52,189.31,262.52,190,263.49Z" transform="translate(-13.9 -109.21)" fill="#203c83"/><path d="M229,260.77c-.55.06-1.09.09-1.64.12s-1.12.09-1.7.12l-1.39.09c-.39-1.15-.73-2.15-1-3,.24,0,.51,0,.79-.06.76-.06,1.51-.09,2.3-.15h0l1-.09a3.46,3.46,0,0,0,.3.58C228.17,259.13,228.6,259.92,229,260.77Z" transform="translate(-13.9 -109.21)" fill="#203c83"/><path d="M310.59,252.1c-.27,1.15-.55,2.18-.79,3.09-1.06.09-2.12.18-3.21.24-12.18.85-24.2,1.67-36,2.45-1,.09-2,.15-3,.21h0l-.55-3a1.86,1.86,0,0,0,.39,0l2.67-.18c1.94-.12,3.88-.24,5.82-.39,10.33-.7,20.84-1.42,31.47-2.18C308.44,252.26,309.53,252.19,310.59,252.1Z" transform="translate(-13.9 -109.21)" fill="#203c83"/><path d="M757.13,223.33c0,1,0,2,.06,3l-3,.18c-20.63,1.27-39.2,2.33-54.28,3.09-49.1,2.48-200.64,12.63-342.46,22.32-1,.06-2,.15-3,.21,0-1,.06-2,.06-3.06l3-.18c141.76-9.72,293.15-19.84,342.25-22.32,15.11-.76,33.71-1.82,54.37-3.09Z" transform="translate(-13.9 -109.21)" fill="#203c83"/><path d="M1054.3,204.67a1.52,1.52,0,0,1-1.42,1.61c-1,.06-36.92,2.67-86.78,6.18-1.24.06-2.51.15-3.79.24l-13,.91c-1,.06-2.06.15-3.09.21.12-1,.24-2,.36-3.06,1-.09,2.06-.15,3.09-.24,3.82-.24,7.57-.51,11.24-.76l2.54-.18c51.1-3.57,88.27-6.27,89.2-6.33A1.51,1.51,0,0,1,1054.3,204.67Z" transform="translate(-13.9 -109.21)" fill="#203c83"/><path d="M168.75,257.17s-6.11-7.53-11.87-5.48-12.95,6.16-6.11,15.4,18.34,24,26.26,21.57S176.66,266.75,168.75,257.17Z" transform="translate(-13.9 -109.21)" fill="none" stroke="#203c83" stroke-miterlimit="10" stroke-width="3"/><path d="M224.9,281.62s-5.28-10.59-12.78-10.07S196,277.09,200.19,282.8s18.36,25.1,26.27,21.32S230.76,290.65,224.9,281.62Z" transform="translate(-13.9 -109.21)" fill="none" stroke="#203c83" stroke-miterlimit="10" stroke-width="3"/><path d="M238,282.32s1.73-5.4,7.24-6.74,11.27,2.35,12.64,6.17,7.42,14,8,24.16S252.89,310.1,238,282.32Z" transform="translate(-13.9 -109.21)" fill="none" stroke="#203c83" stroke-miterlimit="10" stroke-width="3"/><path d="M273.41,226.36a10.91,10.91,0,0,0-8.91-7.86c-7.29-1.07-9.57,2.84-8.54,12.63s5.72,27.76,11.3,26.31S275.16,243,273.41,226.36Z" transform="translate(-13.9 -109.21)" fill="none" stroke="#203c83" stroke-miterlimit="10" stroke-width="3"/><path d="M328,165.41s4.23,5.26-3.76,5.75-25-14.52-26-24.8S325.79,157.26,328,165.41Z" transform="translate(-13.9 -109.21)" fill="none" stroke="#203c83" stroke-miterlimit="10" stroke-width="3"/></svg>