<svg id="taille-machine" xmlns="http://www.w3.org/2000/svg" viewBox="0 0 564.42 484.84"><title>taille -machine</title><path d="M504.07,348.89H502.7a1,1,0,0,1-1-1.07,1.12,1.12,0,0,1,1.07-1c19.18.38,32.79-6.29,33.13-16.09.35-10-4.22-15.57-15.27-18.49-11.58-3.07-102.09-1.38-103-1.36h0a1,1,0,0,1,0-2.09c3.74-.07,91.71-1.71,103.57,1.43s17.21,9.68,16.83,20.59S523.72,348.89,504.07,348.89Z" transform="translate(-13.5 -76.89)" fill="#1f3d81"/><path d="M183.78,561.73a1,1,0,0,1-.56-1.93c28.49-18.13,101.3-67.72,130.06-90.66,26.78-21.36,49.86-29.47,77.16-27.09a196.33,196.33,0,0,0,66.27-6.25c11.35-3.18,15-10.33,17.71-15.55,1.41-2.75,2.53-4.93,4.39-6,4.44-2.54,7.37-10.68,6.19-13.32-1.63-3.66.68-12.59,6-15.64,3.3-1.89,4.32-5.44,5.06-8a14.74,14.74,0,0,1,.8-2.35,9,9,0,0,1,1.6-2c2.23-2.32,5-5.21,1.95-9.91-4.77-7.34.37-21.28.59-21.87a1,1,0,0,1,2,.74c0,.13-5,13.55-.8,20,4,6.09,0,10.26-2.19,12.5a8.81,8.81,0,0,0-1.24,1.45,13.68,13.68,0,0,0-.66,2c-.79,2.77-2,7-6,9.27-4.49,2.57-6.26,10.47-5.14,13,1.67,3.76-1.83,13-7.07,16-1.31.75-2.31,2.68-3.56,5.12-2.7,5.25-6.78,13.19-19,16.61a198.52,198.52,0,0,1-67,6.32c-26.73-2.31-49.35,5.65-75.67,26.64-28.81,23-101.72,72.64-130.25,90.79A1,1,0,0,1,183.78,561.73Z" transform="translate(-13.5 -76.89)" fill="#1f3d81"/><path d="M149.59,423.9a1,1,0,0,1-.27-2.06c.73-.2,73.3-20.13,115.61-43.87a312.6,312.6,0,0,1,37.53-18.1c13.37-5.53,22.2-9.19,41.17-25.06,32.66-27.34,52.5-40,76.82-38.27,23.16,1.68,29.32-8.45,29.38-8.55a1,1,0,0,1,.24-.28c.21-.18,5.27-4.34,9.64-2.77,2.52.9,4.19,3.45,5,7.57,2.58,13.63-7.9,17.54-8,17.58a1,1,0,0,1-.71-2c.36-.13,8.89-3.39,6.66-15.22-.63-3.33-1.85-5.35-3.62-6-2.93-1-6.75,1.75-7.47,2.31-1,1.51-8.16,11.09-31.22,9.41-23.61-1.73-43.1,10.82-75.32,37.79-19.21,16.08-28.65,20-41.71,25.39a310.73,310.73,0,0,0-37.31,18c-42.54,23.86-115.35,43.86-116.09,44.06A1.07,1.07,0,0,1,149.59,423.9Z" transform="translate(-13.5 -76.89)" fill="#1f3d81"/><path d="M272.06,300.72a1,1,0,1,1,0-2.09c2.78,0,4.77-.72,10.7-2.85,3.19-1.14,7.55-2.71,13.75-4.78,3.11-1,6-1.89,8.6-2.69,12.45-3.75,20-6,29.26-19.25,7.76-11.06,5-15.42,4-16.49a4.29,4.29,0,0,0-5.34-.52c-4.88,3.14-18.37,9.24-25.69,9.24-6.81,0-48.25,7.58-48.66,7.66a1,1,0,0,1-.38-2.06c1.71-.31,42-7.69,49-7.69,6.64,0,19.67-5.77,24.56-8.91a6.34,6.34,0,0,1,8,.83c1.68,1.75,4.67,7.12-3.77,19.14-9.72,13.84-17.93,16.31-30.37,20.05-2.62.79-5.45,1.64-8.54,2.67-6.17,2.06-10.53,3.62-13.7,4.76C277.46,299.91,275.21,300.72,272.06,300.72Z" transform="translate(-13.5 -76.89)" fill="#1f3d81"/><path d="M14.55,331.43a1,1,0,0,1,0-2.09c.56,0,56.4-1.81,83.21-7.65,6.87-1.5,15.26-3,24.14-4.5,26-4.52,58.3-10.14,72.47-20.45,3.36-2.44,6.91-5.32,10.66-8.37,17.71-14.38,42-34.07,86.8-41,16.83-2.61,29.07-4.47,36.37-5.54,8.6-1.26,8.61-1.26,8.79-.15s-.81,1.24-1.77,1.41a1,1,0,0,1-.58-.06c-3,.39-12.7,1.79-42.5,6.41-44.28,6.86-68.28,26.34-85.8,40.57-3.78,3.07-7.35,6-10.75,8.44C181,309,148.41,314.69,122.22,319.24c-8.86,1.54-17.23,3-24.06,4.48-27,5.88-83,7.68-83.59,7.7Z" transform="translate(-13.5 -76.89)" fill="#1f3d81"/><path d="M227.18,343.32c-1,0-1.55,0-1.59,0a1,1,0,0,1-1-1.11,1,1,0,0,1,1.11-1c.44,0,43.69,2.25,57.22-37a1,1,0,0,1,2,.68C272.38,341.27,235.34,343.32,227.18,343.32Z" transform="translate(-13.5 -76.89)" fill="#1f3d81"/><path d="M78.4,437.5a1,1,0,0,1-.42-2c5.5-2.42,135-59.15,161.14-53.8l13.61,2.79a1,1,0,0,1-.42,2.05l-13.61-2.79c-25.52-5.23-158.54,53.08-159.88,53.67A1.06,1.06,0,0,1,78.4,437.5Z" transform="translate(-13.5 -76.89)" fill="#1f3d81"/><path d="M512.48,310.14a1,1,0,0,1-.55-1.93s2.78-1.85,8.79-9.86c1.41-1.88,1.88-3.67,1.4-5.31-1.11-3.8-6.8-6-6.86-6-.78-.32-75.19-30.78-86.58-35.61-6.91-2.93-7.61-2.41-8.6-1.7a6.9,6.9,0,0,1-4.19,1.43h-.15c-6.48,0-55.73-20.66-64.2-24.22L324.78,256a1,1,0,0,1-1.54-1.42L350.5,225a1,1,0,0,1,1.18-.25c23.47,9.92,59.93,24.65,64.09,24.34a4.89,4.89,0,0,0,3.08-1c1.89-1.36,3.38-1.61,10.65,1.47,11.38,4.83,85.77,35.28,86.52,35.59.24.09,6.69,2.53,8.11,7.35.68,2.31.1,4.72-1.73,7.16-6.33,8.43-9.24,10.3-9.36,10.38A1,1,0,0,1,512.48,310.14Z" transform="translate(-13.5 -76.89)" fill="#1f3d81"/><path d="M297.89,363.88a1,1,0,0,1-.41-.09c-.83-.36-20.38-8.79-24.59-11.6-4.41-2.94-7.75-17.49-8.12-19.14a1,1,0,1,1,2-.45c.95,4.25,4.09,15.75,7.23,17.85,4.06,2.71,24.06,11.34,24.26,11.43a1,1,0,0,1-.41,2Z" transform="translate(-13.5 -76.89)" fill="#1f3d81"/><path d="M487.78,257.9a57.3,57.3,0,0,1-17-2.57,152.25,152.25,0,0,1-38.54-18.26c-.44-.31-43.78-31.84-40.18-83.21,2.15-30.7,14.25-56.28,35-74a1,1,0,0,1,1.36,1.59C408.13,98.8,396.29,123.89,394.18,154c-3.52,50.18,38.87,81,39.3,81.35a150.09,150.09,0,0,0,38,18,54.94,54.94,0,0,0,23.87,2,87.21,87.21,0,0,0,33-11.48c13.81-8.65,24.83-18.93,32.74-30.56a1,1,0,1,1,1.73,1.18c-8.08,11.87-19.3,22.35-33.37,31.16a89.32,89.32,0,0,1-33.76,11.77A55.84,55.84,0,0,1,487.78,257.9Z" transform="translate(-13.5 -76.89)" fill="#1f3d81"/><path d="M570.24,185.11" transform="translate(-13.5 -76.89)" fill="none" stroke="#1f3d81" stroke-linecap="round" stroke-linejoin="round"/><path d="M544,153.85" transform="translate(-13.5 -76.89)" fill="none" stroke="#1f3d81" stroke-linecap="round" stroke-linejoin="round"/><path d="M528.64,155.38" transform="translate(-13.5 -76.89)" fill="none" stroke="#1f3d81" stroke-linecap="round" stroke-linejoin="round"/><path d="M493,159.44" transform="translate(-13.5 -76.89)" fill="none" stroke="#1f3d81" stroke-linecap="round" stroke-linejoin="round"/><path d="M482.58,159.25" transform="translate(-13.5 -76.89)" fill="none" stroke="#1f3d81" stroke-linecap="round" stroke-linejoin="round"/><path d="M454.5,154" transform="translate(-13.5 -76.89)" fill="none" stroke="#1f3d81" stroke-linecap="round" stroke-linejoin="round"/><path d="M486.79,275.71a1,1,0,0,1,0-2.09c.14,0,14.43-.54,40.12-14.18,22.45-11.92,38.49-30,49-55.17a1,1,0,1,1,1.93.81c-10.73,25.66-27.07,44.05-50,56.21-26.2,13.91-40.46,14.41-41.05,14.43Z" transform="translate(-13.5 -76.89)" fill="#1f3d81"/><path d="M413,250.67a1,1,0,0,1-.61-.19c-5.29-3.75-51.5-38.36-47.22-98.4,2.12-29.78,11.67-55,28.36-74.82a1,1,0,0,1,1.6,1.35c-16.4,19.52-25.78,44.29-27.87,73.62-4.2,58.9,41.16,92.86,46.34,96.54a1,1,0,0,1-.61,1.9Z" transform="translate(-13.5 -76.89)" fill="#1f3d81"/><path d="M487.3,250.94a49.08,49.08,0,0,1-15-2.38A134.1,134.1,0,0,1,438,231.91c-.39-.29-38.93-29.11-35.75-76,2-28.83,13.26-52.64,32.66-68.86a1,1,0,1,1,1.34,1.61c-19,15.84-30,39.15-31.91,67.4-3.11,45.72,34.51,73.88,34.89,74.16a131.92,131.92,0,0,0,33.7,16.35,46.56,46.56,0,0,0,21.16,1.78,76.37,76.37,0,0,0,29.22-10.44c20.4-13.13,33.75-30.28,39.66-51a1,1,0,1,1,2,.57c-6.06,21.21-19.7,38.77-40.55,52.18a78.46,78.46,0,0,1-30,10.75A48.58,48.58,0,0,1,487.3,250.94Z" transform="translate(-13.5 -76.89)" fill="#1f3d81"/><path d="M489.21,211.5a32.37,32.37,0,0,1-9.23-1.35,81.33,81.33,0,0,1-20.83-9.5c-.24-.16-23.74-16.63-21.79-43.46a63.9,63.9,0,0,1,1.85-11.41,1,1,0,1,1,2,.53,62,62,0,0,0-1.79,11c-1.86,25.62,20.66,41.43,20.88,41.58a80.82,80.82,0,0,0,20.25,9.22,30,30,0,0,0,12.6,1,47,47,0,0,0,17.51-5.87c18.21-11,26.71-26.44,26-47.28a1,1,0,0,1,1-1.08,1,1,0,0,1,1.08,1c.77,21.67-8.06,37.74-27,49.15a49.12,49.12,0,0,1-18.3,6.15A30.9,30.9,0,0,1,489.21,211.5Z" transform="translate(-13.5 -76.89)" fill="#1f3d81"/><path d="M528.64,155.38" transform="translate(-13.5 -76.89)" fill="none" stroke="#1f3d81" stroke-linecap="round" stroke-linejoin="round"/><path d="M493,159.44" transform="translate(-13.5 -76.89)" fill="none" stroke="#1f3d81" stroke-linecap="round" stroke-linejoin="round"/><path d="M482.58,159.25" transform="translate(-13.5 -76.89)" fill="none" stroke="#1f3d81" stroke-linecap="round" stroke-linejoin="round"/><path d="M456.52,176.7a23.24,23.24,0,0,1-2.06-6.16,57.39,57.39,0,0,1-.72-15.75c.1-.81,2.68-19.79,19.57-26.75,1.05-.42,2.29-.9,3.57-1.28a1,1,0,0,1,.6,2c-1.2.36-2.38.82-3.38,1.22-15.73,6.49-18.25,24.89-18.28,25.07a56.43,56.43,0,0,0,.71,15.11,20.94,20.94,0,0,0,3.25,7.94,32.94,32.94,0,0,0,8.82,8.92c11.93,7.7,23.52,8.37,35.41,2a1,1,0,0,1,1.42.43v0a1,1,0,0,1-.44,1.39c-12.62,6.73-24.91,6-37.54-2.12a35.06,35.06,0,0,1-9.41-9.49A22.69,22.69,0,0,1,456.52,176.7Z" transform="translate(-13.5 -76.89)" fill="#1f3d81"/><path d="M493,159.44" transform="translate(-13.5 -76.89)" fill="none" stroke="#1f3d81" stroke-linecap="round" stroke-linejoin="round"/><path d="M482.58,159.25" transform="translate(-13.5 -76.89)" fill="none" stroke="#1f3d81" stroke-linecap="round" stroke-linejoin="round"/><path d="M488,165a4.69,4.69,0,0,1-1.23-.17,9.83,9.83,0,0,1-2.46-1.1,6.59,6.59,0,0,1-2.72-4.36,1,1,0,0,1,.92-1.16,1,1,0,0,1,1.16.93,4.51,4.51,0,0,0,1.8,2.85,7.79,7.79,0,0,0,1.87.83,2.35,2.35,0,0,0,.94.07,4.15,4.15,0,0,0,1.51-.48,4.08,4.08,0,0,0,2.22-3.1,1,1,0,1,1,2.07.28A6.42,6.42,0,0,1,488.5,165,4.07,4.07,0,0,1,488,165Z" transform="translate(-13.5 -76.89)" fill="#1f3d81"/><path d="M449.63,302.05a6.06,6.06,0,0,1-4.42-2c-3.14-3.33-3.33-5.5-3.34-5.73a1,1,0,0,1,1-1.09h0a1,1,0,0,1,1,1h0s.2,1.66,2.77,4.39a3.9,3.9,0,0,0,3.65,1.25c2-.4,3.75-2.22,4.82-5a6.45,6.45,0,0,0-2-7.83,1,1,0,0,1,1.17-1.74,8.54,8.54,0,0,1,2.84,10.32c-1.33,3.47-3.65,5.77-6.36,6.31A5.85,5.85,0,0,1,449.63,302.05Z" transform="translate(-13.5 -76.89)" fill="#1f3d81"/><path d="M321.45,265.65a8.28,8.28,0,0,1-1.88-.21c-4.42-1-6.38-5.34-6.46-5.53a1,1,0,0,1,1.91-.85s1.64,3.57,5,4.34c2.65.61,5.75-.57,9.21-3.49,5.64-4.76,5.39-6.5,5.29-6.81-.22-.63-1.57-.87-2.14-.88a1,1,0,0,1,0-2.09h0c.34,0,3.31.1,4.08,2.27s-1.1,5.06-5.91,9.11C327.35,264.26,324.28,265.65,321.45,265.65Z" transform="translate(-13.5 -76.89)" fill="#1f3d81"/></svg>