<?xml version="1.0" encoding="utf-8"?>
<!-- Generator: Adobe Illustrator 21.1.0, SVG Export Plug-In . SVG Version: 6.00 Build 0)  -->
<svg version="1.1" id="Calque_1" xmlns="http://www.w3.org/2000/svg" xmlns:xlink="http://www.w3.org/1999/xlink" x="0px" y="0px"
	 viewBox="0 0 1280 800" style="enable-background:new 0 0 1280 800;" xml:space="preserve">
<style type="text/css">
	.st0{display:none;}
	.st1{display:inline;fill:url(#XMLID_6_);}
	.st2{display:inline;fill:url(#XMLID_10_);}
	.st3{display:inline;fill:url(#XMLID_11_);}
	.st4{display:inline;fill:url(#XMLID_12_);}
	.st5{display:inline;fill:url(#XMLID_13_);}
	.st6{fill:url(#XMLID_14_);}
</style>
<g id="Calque_1_1_" class="st0">
	
		<image style="display:inline;overflow:visible;enable-background:new    ;" width="1280" height="4233" id="XMLID_1_" xlink:href="33D90D09.png"  transform="matrix(1 0 0 1 -226.777 -3632.7339)">
	</image>
</g>
<g id="Calque_2" class="st0">
	
		<linearGradient id="XMLID_6_" gradientUnits="userSpaceOnUse" x1="56.78" y1="388.7999" x2="56.78" y2="785.4221" gradientTransform="matrix(1 0 0 -1 0 802)">
		<stop  offset="0" style="stop-color:#F8C477"/>
		<stop  offset="0.2512" style="stop-color:#F09682"/>
		<stop  offset="0.5025" style="stop-color:#DA6E91"/>
		<stop  offset="0.7537" style="stop-color:#A15D9A"/>
		<stop  offset="1" style="stop-color:#03579C"/>
	</linearGradient>
	<path id="XMLID_5_" class="st1" d="M-6.6,44.1c0,0,117.6-86.5,198.5,47.2S100.5,460.9-6.6,404.7S-145.6,148.6-6.6,44.1z"/>
</g>
<g id="Calque_3" class="st0">
	
		<linearGradient id="XMLID_10_" gradientUnits="userSpaceOnUse" x1="977.2679" y1="602.7935" x2="821.2916" y2="670.7982" gradientTransform="matrix(-0.9308 -0.3656 -0.3656 0.9308 1382.1481 -155.9383)">
		<stop  offset="0" style="stop-color:#DA6E91"/>
		<stop  offset="0.4877" style="stop-color:#F09682"/>
		<stop  offset="1" style="stop-color:#F8C477"/>
	</linearGradient>
	<path id="XMLID_4_" class="st2" d="M234.6,99.8c-1.1-2.3-9.7-19.1,3.6-37.3c29.1-39.5,122-28,139.9,17.7c0,0,22.9,63.1-13,95.2
		S289.8,219.9,234.6,99.8z"/>
</g>
<g id="Calque_4" class="st0">
	
		<linearGradient id="XMLID_11_" gradientUnits="userSpaceOnUse" x1="33.6082" y1="857.7928" x2="196.7757" y2="951.9977" gradientTransform="matrix(1 0 0 -1 0 802)">
		<stop  offset="0" style="stop-color:#03579C"/>
		<stop  offset="0.5074" style="stop-color:#DA6E91"/>
		<stop  offset="1" style="stop-color:#F8C477"/>
	</linearGradient>
	<path id="XMLID_7_" class="st3" d="M30.6-62.9c0,0-35-114.4,56.5-116.9c91.5-2.6,119.4,38.4,124,58.5
		C231.1-33.9,77.6,49.1,30.6-62.9z"/>
</g>
<g id="Calque_5" class="st0">
	
		<linearGradient id="XMLID_12_" gradientUnits="userSpaceOnUse" x1="294.9048" y1="1074.5428" x2="48.6386" y2="1501.0884" gradientTransform="matrix(1 0 0 -1 0 802)">
		<stop  offset="0" style="stop-color:#03579C"/>
		<stop  offset="0.5074" style="stop-color:#DA6E91"/>
		<stop  offset="1" style="stop-color:#F8C477"/>
	</linearGradient>
	<path id="XMLID_8_" class="st4" d="M292.2-673.1c0,0-58-67-161-58c-55.4,4.8-193,76-181,221s125.8,266,246.4,266
		s187.7-109.5,188.6-192C385.9-498.1,375.2-592.1,292.2-673.1z"/>
</g>
<g id="Calque_6" class="st0">
	
		<linearGradient id="XMLID_13_" gradientUnits="userSpaceOnUse" x1="319.6927" y1="160.2072" x2="319.6927" y2="482.4497" gradientTransform="matrix(1 0 0 -1 0 802)">
		<stop  offset="0" style="stop-color:#DA6E91"/>
		<stop  offset="0.5123" style="stop-color:#F09682"/>
		<stop  offset="1" style="stop-color:#F8C477"/>
	</linearGradient>
	<path id="XMLID_9_" class="st5" d="M261,639.7c0,0,203.3,27.3,204-115.3c0.7-141.2-77.3-192.7-111.3-201.4
		c-34.5-8.8-76.7-1.3-121.3,28.7c-40.4,27.1-58.7,62.7-58,149.3C175,587.7,219,632.3,261,639.7z"/>
</g>
<g id="Calque_5_1_">
	
		<linearGradient id="XMLID_14_" gradientUnits="userSpaceOnUse" x1="1049.0033" y1="56.56" x2="653.6814" y2="741.2777" gradientTransform="matrix(1 0 0 -1 0 802)">
		<stop  offset="0" style="stop-color:#03579C"/>
		<stop  offset="0.5074" style="stop-color:#DA6E91"/>
		<stop  offset="1" style="stop-color:#F8C477"/>
	</linearGradient>
	<path id="XMLID_2_" class="st6" d="M1044.7,102.4c0,0-93.1-107.6-258.4-93.1c-88.9,7.7-309.8,122-290.6,354.8
		c19.3,232.8,201.9,427,395.5,427s301.3-175.8,302.8-308.2C1195.1,383.4,1177.9,232.5,1044.7,102.4z"/>
</g>
</svg>
