<?xml version="1.0" encoding="utf-8"?>
<!-- Generator: Adobe Illustrator 21.1.0, SVG Export Plug-In . SVG Version: 6.00 Build 0)  -->
<svg version="1.1" id="Calque_1" xmlns="http://www.w3.org/2000/svg" xmlns:xlink="http://www.w3.org/1999/xlink" x="0px" y="0px"
	 viewBox="0 0 800.4 800" style="enable-background:new 0 0 800.4 800;" xml:space="preserve">
<style type="text/css">
	.st0{display:none;}
	.st1{display:inline;fill:url(#XMLID_3_);}
	.st2{display:inline;fill:url(#XMLID_6_);}
	.st3{display:inline;fill:url(#XMLID_11_);}
	.st4{display:inline;fill:url(#XMLID_12_);}
	.st5{display:inline;fill:url(#XMLID_13_);}
	.st6{fill:url(#XMLID_14_);}
</style>
<g id="Calque_1_1_" class="st0">
	
		<image style="display:inline;overflow:visible;enable-background:new    ;" width="1280" height="4233" id="XMLID_1_" xlink:href="B07C6817.png"  transform="matrix(1 0 0 1 -706.3755 -3632.7339)">
	</image>
</g>
<g id="Calque_2" class="st0">
	
		<linearGradient id="XMLID_3_" gradientUnits="userSpaceOnUse" x1="-422.8185" y1="388.7999" x2="-422.8185" y2="785.4221" gradientTransform="matrix(1 0 0 -1 0 802)">
		<stop  offset="0" style="stop-color:#F8C477"/>
		<stop  offset="0.2512" style="stop-color:#F09682"/>
		<stop  offset="0.5025" style="stop-color:#DA6E91"/>
		<stop  offset="0.7537" style="stop-color:#A15D9A"/>
		<stop  offset="1" style="stop-color:#03579C"/>
	</linearGradient>
	<path id="XMLID_5_" class="st1" d="M-486.2,44.1c0,0,117.6-86.5,198.5,47.2s-91.4,369.6-198.5,313.4S-625.2,148.6-486.2,44.1z"/>
</g>
<g id="Calque_3" class="st0">
	
		<linearGradient id="XMLID_6_" gradientUnits="userSpaceOnUse" x1="497.6695" y1="602.7935" x2="341.6932" y2="670.7982" gradientTransform="matrix(-0.9308 -0.3656 -0.3656 0.9308 456.1393 -331.2795)">
		<stop  offset="0" style="stop-color:#DA6E91"/>
		<stop  offset="0.4877" style="stop-color:#F09682"/>
		<stop  offset="1" style="stop-color:#F8C477"/>
	</linearGradient>
	<path id="XMLID_4_" class="st2" d="M-245,99.8c-1.1-2.3-9.7-19.1,3.6-37.3c29.1-39.5,122-28,139.9,17.7c0,0,22.9,63.1-13,95.2
		S-189.8,219.9-245,99.8z"/>
</g>
<g id="Calque_4" class="st0">
	
		<linearGradient id="XMLID_11_" gradientUnits="userSpaceOnUse" x1="-445.9902" y1="857.7928" x2="-282.8227" y2="951.9977" gradientTransform="matrix(1 0 0 -1 0 802)">
		<stop  offset="0" style="stop-color:#03579C"/>
		<stop  offset="0.5074" style="stop-color:#DA6E91"/>
		<stop  offset="1" style="stop-color:#F8C477"/>
	</linearGradient>
	<path id="XMLID_7_" class="st3" d="M-449-62.9c0,0-35-114.4,56.5-116.9c91.5-2.6,119.4,38.4,124,58.5
		C-248.5-33.9-402,49.1-449-62.9z"/>
</g>
<g id="Calque_5" class="st0">
	
		<linearGradient id="XMLID_12_" gradientUnits="userSpaceOnUse" x1="-184.6936" y1="1074.5428" x2="-430.9598" y2="1501.0884" gradientTransform="matrix(1 0 0 -1 0 802)">
		<stop  offset="0" style="stop-color:#03579C"/>
		<stop  offset="0.5074" style="stop-color:#DA6E91"/>
		<stop  offset="1" style="stop-color:#F8C477"/>
	</linearGradient>
	<path id="XMLID_8_" class="st4" d="M-187.4-673.1c0,0-58-67-161-58c-55.4,4.8-193,76-181,221s125.8,266,246.4,266
		s187.7-109.5,188.6-192C-93.7-498.1-104.4-592.1-187.4-673.1z"/>
</g>
<g id="Calque_6" class="st0">
	
		<linearGradient id="XMLID_13_" gradientUnits="userSpaceOnUse" x1="-159.9058" y1="160.2072" x2="-159.9058" y2="482.4497" gradientTransform="matrix(1 0 0 -1 0 802)">
		<stop  offset="0" style="stop-color:#DA6E91"/>
		<stop  offset="0.5123" style="stop-color:#F09682"/>
		<stop  offset="1" style="stop-color:#F8C477"/>
	</linearGradient>
	<path id="XMLID_9_" class="st5" d="M-218.6,639.7c0,0,203.3,27.3,204-115.3c0.7-141.2-77.3-192.7-111.3-201.4
		c-34.5-8.8-76.7-1.3-121.3,28.7c-40.4,27.1-58.7,62.7-58,149.3C-304.6,587.7-260.6,632.3-218.6,639.7z"/>
</g>
<g id="Calque_7">
	
		<linearGradient id="XMLID_14_" gradientUnits="userSpaceOnUse" x1="458.3357" y1="124.4709" x2="458.3357" y2="838.748" gradientTransform="matrix(0.9084 0.4182 -0.4182 0.9084 158.5933 -240.1342)">
		<stop  offset="0" style="stop-color:#F8C477"/>
		<stop  offset="0.2512" style="stop-color:#F09682"/>
		<stop  offset="0.5025" style="stop-color:#DA6E91"/>
		<stop  offset="0.7537" style="stop-color:#A15D9A"/>
		<stop  offset="1" style="stop-color:#03579C"/>
	</linearGradient>
	<path id="XMLID_10_" class="st6" d="M418.4,789.9c124.9,11.6,314.5-190.4,269.2-474.6C668.3,193.5,478.3-85.4,211.4,49.9
		c-257.5,130.5-21.3,414.5,22,465.3c65.5,76.8,48.2,130.6,48.2,130.6C281,719.1,320.3,780.9,418.4,789.9z"/>
</g>
</svg>
