<?xml version="1.0" encoding="utf-8"?>
<!-- Generator: Adobe Illustrator 22.0.0, SVG Export Plug-In . SVG Version: 6.00 Build 0)  -->
<svg version="1.1" id="Calque_1" xmlns="http://www.w3.org/2000/svg" xmlns:xlink="http://www.w3.org/1999/xlink" x="0px" y="0px"
	 viewBox="0 0 181.6 181.6" style="enable-background:new 0 0 181.6 181.6;" xml:space="preserve">
<style type="text/css">
	.st0{fill:url(#tache3_1_);}
	.st1{opacity:0.4;fill:url(#tache2_1_);enable-background:new    ;}
	.st2{fill:url(#tache1_1_);}
	.st3{fill:url(#SVGID_1_);}
	.st4{fill:#21253F;}
</style>
<g id="taches">
	
		<linearGradient id="tache3_1_" gradientUnits="userSpaceOnUse" x1="-319.1933" y1="-52.9876" x2="-282.1833" y2="-27.8676" gradientTransform="matrix(-0.86 -0.5 -0.5 0.86 -154.12 31.93)">
		<stop  offset="0" style="stop-color:#F8C477"/>
		<stop  offset="0.57" style="stop-color:#F09682"/>
		<stop  offset="1" style="stop-color:#DA6E91"/>
	</linearGradient>
	<path id="tache3" class="st0" d="M135,139c4.8,1.3,21.7-4.3,18.3,8.1c-1.4,5.2-6.5,13-19.1,9.4s-20.2,10.8-31.8-0.7
		C94.9,148.3,97.1,129.1,135,139z"/>
	
		<linearGradient id="tache2_1_" gradientUnits="userSpaceOnUse" x1="55.2244" y1="95.4226" x2="151.9044" y2="39.2826" gradientTransform="matrix(0.9645 -0.264 -0.264 -0.9645 31.612 150.0538)">
		<stop  offset="0" style="stop-color:#F8C477"/>
		<stop  offset="0.24" style="stop-color:#F09682"/>
		<stop  offset="0.51" style="stop-color:#DA6E91"/>
		<stop  offset="0.76" style="stop-color:#A15D9A"/>
		<stop  offset="1" style="stop-color:#03579C"/>
	</linearGradient>
	<path id="tache2" class="st1" d="M55.3,72c3.1-2.8-7.9-48.7,41-58.6c30.3-6.2,29,14.7,53.1,17.5c51.1,5.9,33.3,78.8-37.1,69.1
		S55.3,72,55.3,72z"/>
	
		<linearGradient id="tache1_1_" gradientUnits="userSpaceOnUse" x1="-184.0301" y1="747.436" x2="-91.4401" y2="693.666" gradientTransform="matrix(0.9022 0.4313 0.4313 -0.9022 -134.8717 808.5345)">
		<stop  offset="0" style="stop-color:#F09682"/>
		<stop  offset="0.48" style="stop-color:#DA6E91"/>
		<stop  offset="1" style="stop-color:#03579C"/>
	</linearGradient>
	<path id="tache1" class="st2" d="M70.2,50.1c34.9,20.5,2,45.7,11.4,65.8c18.7,40-21.4,66-59.4,22.7S20.2,20.8,70.2,50.1z"/>
</g>
<g id="texte">
	
		<radialGradient id="SVGID_1_" cx="86.97" cy="98.3214" r="62.5088" gradientTransform="matrix(1 0 0 -1 0 184)" gradientUnits="userSpaceOnUse">
		<stop  offset="0" style="stop-color:#FFFFFF;stop-opacity:0.3"/>
		<stop  offset="1" style="stop-color:#FFFFFF;stop-opacity:0.8"/>
	</radialGradient>
	<path class="st3" d="M136.3,135.8c-17.6,17.3-79.8,15.7-98.8,0s-15.5-79.6,0-98.8s81.4-17.5,98.8,0S153.9,118.5,136.3,135.8z"/>
	<path class="st4" d="M43.2,65.9V46.5h13.1v3.7h-8.7V54h7.8v3.6h-7.8v4.7H57v3.7H43.2z M53.3,41.4l-4.6,3.9l-1.9-1.7l4-4.5
		L53.3,41.4z"/>
	<path class="st4" d="M78.8,62.1v3.7h-13V46.5h4.4v15.6H78.8z"/>
	<path class="st4" d="M101.2,65.9c-0.2-0.7-0.4-1.4-0.7-2.1l-0.7-2.1h-7.6l-0.7,2.1c-0.2,0.7-0.5,1.4-0.7,2.1h-4.5
		c0.7-2.1,1.4-4,2.1-5.8c0.7-1.8,1.3-3.4,1.9-5c0.6-1.6,1.2-3.1,1.8-4.5c0.6-1.4,1.3-2.8,1.9-4.1h4.1c0.7,1.3,1.3,2.7,1.9,4.1
		c0.6,1.4,1.2,2.9,1.9,4.5c0.6,1.6,1.3,3.2,1.9,5c0.7,1.8,1.4,3.7,2.1,5.8H101.2z M95.9,50.9c-0.1,0.3-0.2,0.7-0.4,1.2l-0.6,1.7
		c-0.2,0.6-0.5,1.3-0.8,2.1s-0.6,1.6-0.9,2.4h5.6c-0.3-0.8-0.6-1.6-0.9-2.4c-0.3-0.8-0.5-1.5-0.8-2.1L96.4,52
		C96.2,51.5,96.1,51.1,95.9,50.9L95.9,50.9z"/>
	<path class="st4" d="M127.1,65.9c-1.2-2.2-2.6-4.4-4.1-6.6c-1.4-2.1-3-4.2-4.7-6.1v12.7H114V46.5h3.6c0.6,0.6,1.3,1.4,2,2.3
		s1.5,1.9,2.3,2.9c0.8,1,1.5,2.1,2.3,3.2c0.8,1.1,1.5,2.1,2.2,3.2V46.5h4.3v19.4H127.1z"/>
	<path class="st4" d="M49,99.5c-0.8-1.6-1.5-3.3-2.3-5.1c-0.8-1.7-1.5-3.5-2.1-5.2c-0.7-1.7-1.3-3.4-1.9-4.9c-0.6-1.6-1.1-3-1.5-4.2
		h4.8c0.4,1.1,0.8,2.3,1.2,3.6c0.4,1.3,0.9,2.6,1.4,3.9l1.4,3.7c0.4,1.2,0.8,2.2,1.2,3.1c0.4-0.9,0.8-1.9,1.2-3s0.9-2.4,1.3-3.7
		c0.5-1.3,0.9-2.6,1.4-3.9s0.9-2.5,1.2-3.6H61c-0.4,1.2-0.9,2.6-1.5,4.2s-1.2,3.2-1.9,4.9c-0.7,1.7-1.4,3.5-2.1,5.2
		c-0.8,1.8-1.5,3.4-2.3,5.1L49,99.5z"/>
	<path class="st4" d="M72.5,99.5V80.1h13.1v3.7h-8.7v3.8h7.8v3.6h-7.8v4.7h9.4v3.7H72.5z"/>
	<path class="st4" d="M104.2,79.8c2.3-0.1,4.7,0.4,6.7,1.6c1.6,1.1,2.5,2.9,2.3,4.8c0.1,1.2-0.3,2.3-0.9,3.3c-0.7,0.9-1.6,1.6-2.7,2
		c0.4,0.5,0.8,1,1.2,1.7s0.9,1.3,1.3,2c0.4,0.7,0.8,1.4,1.2,2.1c0.4,0.8,0.8,1.5,1.1,2.2h-4.9l-1.1-1.9c-0.4-0.7-0.7-1.3-1.1-1.9
		c-0.4-0.6-0.8-1.2-1.1-1.8c-0.4-0.6-0.7-1.1-1.1-1.5h-2.2v7.1h-4.4V80.3c1-0.2,2-0.3,3-0.4C102.5,79.9,103.4,79.8,104.2,79.8z
		 M104.4,83.6c-0.3,0-0.6,0-0.8,0l-0.7,0.1v5.3h1.2c1.2,0.1,2.4-0.1,3.5-0.6c0.7-0.4,1.1-1.3,1.1-2.1c0.1-0.8-0.4-1.6-1.1-2
		C106.6,83.7,105.5,83.5,104.4,83.6L104.4,83.6z"/>
	<path class="st4" d="M124.1,89.2h8.1V93h-8.1L124.1,89.2z"/>
	<path class="st4" d="M48.9,113.4c2.3-0.1,4.7,0.4,6.7,1.6c1.6,1.1,2.5,2.9,2.3,4.8c0.1,1.2-0.3,2.3-0.9,3.3c-0.7,0.9-1.6,1.6-2.7,2
		c0.4,0.5,0.8,1,1.2,1.7s0.8,1.3,1.3,2c0.4,0.7,0.8,1.4,1.2,2.1s0.8,1.5,1.1,2.2h-4.9l-1.1-1.9c-0.4-0.7-0.7-1.3-1.1-1.9
		c-0.4-0.6-0.8-1.2-1.1-1.8c-0.4-0.6-0.7-1.1-1.1-1.5h-2.2v7.1h-4.4v-19.2c1-0.2,2-0.3,3-0.4C47.2,113.5,48.1,113.4,48.9,113.4z
		 M49.1,117.2c-0.3,0-0.6,0-0.8,0l-0.7,0.1v5.3h1.2c1.2,0.1,2.4-0.1,3.5-0.6c0.7-0.4,1.1-1.3,1.1-2.1c0.1-0.8-0.4-1.6-1.1-2
		C51.3,117.3,50.2,117.1,49.1,117.2L49.1,117.2z"/>
	<path class="st4" d="M71.5,113.7h4.4v19.4h-4.4V113.7z"/>
	<path class="st4" d="M90,133.1v-19.4h13.1v3.7h-8.8v3.8h7.8v3.6h-7.8v4.7h9.4v3.7L90,133.1z"/>
	<path class="st4" d="M122.2,113.4c2.3-0.1,4.7,0.4,6.7,1.6c1.6,1.1,2.5,2.9,2.3,4.8c0.1,1.2-0.3,2.3-0.9,3.3
		c-0.7,0.9-1.6,1.6-2.7,2c0.4,0.5,0.8,1,1.2,1.7s0.8,1.3,1.3,2c0.4,0.7,0.8,1.4,1.2,2.1c0.4,0.8,0.8,1.5,1.1,2.2h-4.9l-1.1-1.9
		c-0.4-0.7-0.7-1.3-1.1-1.9c-0.4-0.6-0.8-1.2-1.1-1.8c-0.4-0.6-0.7-1.1-1.1-1.5h-2.1v7.1h-4.4v-19.2c1-0.2,2-0.3,3-0.4
		C120.5,113.5,121.4,113.4,122.2,113.4z M122.5,117.2c-0.3,0-0.6,0-0.8,0l-0.7,0.1v5.3h1.2c1.2,0.1,2.4-0.1,3.5-0.6
		c0.7-0.4,1.1-1.3,1.1-2.1c0.1-0.8-0.4-1.6-1.1-2C124.6,117.3,123.6,117.1,122.5,117.2L122.5,117.2z"/>
</g>
</svg>
