<svg xmlns="http://www.w3.org/2000/svg" xmlns:xlink="http://www.w3.org/1999/xlink" viewBox="0 0 181.61 181.61"><defs><linearGradient id="Dégradé_sans_nom_12" x1="-300.34" y1="247.69" x2="-263.33" y2="222.57" gradientTransform="matrix(-0.86, -0.5, 0.5, -0.86, -235.24, 209.05)" gradientUnits="userSpaceOnUse"><stop offset="0" stop-color="#f8c477"/><stop offset="0.57" stop-color="#f09682"/><stop offset="1" stop-color="#da6e91"/></linearGradient><linearGradient id="linear-gradient" x1="57.62" y1="86.75" x2="154.3" y2="142.89" gradientTransform="translate(-18.8 -25.02) rotate(-15.31)" gradientUnits="userSpaceOnUse"><stop offset="0" stop-color="#f8c477"/><stop offset="0.24" stop-color="#f09682"/><stop offset="0.51" stop-color="#da6e91"/><stop offset="0.76" stop-color="#a15d9a"/><stop offset="1" stop-color="#03579c"/></linearGradient><linearGradient id="Dégradé_sans_nom_18" x1="-186.7" y1="-559.2" x2="-94.11" y2="-505.43" gradientTransform="translate(-51.28 639.86) rotate(25.55)" gradientUnits="userSpaceOnUse"><stop offset="0" stop-color="#f09682"/><stop offset="0.48" stop-color="#da6e91"/><stop offset="1" stop-color="#03579c"/></linearGradient><radialGradient id="radial-gradient" cx="86.96" cy="85.68" r="62.51" gradientUnits="userSpaceOnUse"><stop offset="0" stop-color="#fff" stop-opacity="0.3"/><stop offset="1" stop-color="#fff" stop-opacity="0.8"/></radialGradient></defs><title>proposition final</title><g style="isolation:isolate"><g id="Calque_1" data-name="Calque 1"><path d="M135,139c4.84,1.27,21.74-4.34,18.27,8.14-1.45,5.21-6.47,13-19.09,9.38s-20.16,10.75-31.75-.73C94.88,148.28,97.07,129.09,135,139Z" fill="url(#Dégradé_sans_nom_12)"/><path d="M55.28,72c3.11-2.78-7.86-48.71,41-58.62,30.31-6.15,29,14.7,53.06,17.47,51.07,5.89,33.27,78.81-37.1,69.06S55.28,72,55.28,72Z" opacity="0.4" fill="url(#linear-gradient)" style="mix-blend-mode:multiply"/><path d="M70.17,50.12c34.89,20.47,2,45.67,11.42,65.79,18.74,40-21.41,66-59.4,22.68S20.17,20.79,70.17,50.12Z" fill="url(#Dégradé_sans_nom_18)" style="mix-blend-mode:multiply"/><path d="M136.32,135.79c-17.62,17.33-79.78,15.71-98.85,0s-15.53-79.63,0-98.85,81.38-17.48,98.85,0S153.94,118.47,136.32,135.79Z" fill="url(#radial-gradient)"/><path d="M43.21,65.87V46.47h13.1v3.67H47.57v3.81h7.76v3.58H47.57V62.2H57v3.67Zm10.08-24.5-4.61,3.89-1.92-1.71,4-4.54Z" fill="#21253f"/><path d="M78.82,62.12v3.75h-13V46.47h4.37V62.12Z" fill="#21253f"/><path d="M101.18,65.87q-.32-1-.7-2.08l-.74-2.12H92.17l-.74,2.13q-.37,1.07-.69,2.07H86.21q1.1-3.14,2.08-5.8t1.92-5q.94-2.35,1.85-4.47T94,46.47H98.1q1,2,1.88,4.13t1.87,4.47q.94,2.35,1.93,5t2.08,5.8Zm-5.25-15q-.15.42-.43,1.15l-.64,1.68c-.24.64-.51,1.34-.8,2.1s-.6,1.57-.9,2.4h5.55q-.45-1.26-.86-2.41t-.79-2.1L96.39,52Q96.11,51.28,95.94,50.86Z" fill="#21253f"/><path d="M127.06,65.87q-1.87-3.33-4.06-6.58a67,67,0,0,0-4.65-6.13V65.87H114V46.47h3.56q.92.92,2,2.27t2.28,2.87q1.16,1.53,2.31,3.16t2.16,3.15V46.47h4.34v19.4Z" fill="#21253f"/><path d="M49,99.47Q47.85,97,46.72,94.4t-2.14-5.2q-1-2.57-1.87-4.93t-1.47-4.2h4.82q.54,1.69,1.21,3.63t1.36,3.87L50,91.27q.63,1.77,1.21,3.05.55-1.28,1.2-3t1.34-3.7q.69-1.93,1.36-3.87t1.21-3.64h4.65q-.65,1.86-1.5,4.21T57.57,89.2q-1,2.58-2.13,5.21t-2.27,5.07Z" fill="#21253f"/><path d="M72.48,99.47V80.07h13.1v3.67H76.85v3.81H84.6v3.58H76.85V95.8h9.38v3.67Z" fill="#21253f"/><path d="M104.19,79.84a12,12,0,0,1,6.69,1.55,5.4,5.4,0,0,1,2.32,4.83,5.46,5.46,0,0,1-.94,3.32,6.18,6.18,0,0,1-2.7,2q.59.73,1.23,1.67t1.27,2q.63,1,1.22,2.13t1.09,2.17H109.5l-1.08-1.93q-.55-1-1.12-1.9t-1.14-1.75q-.56-.83-1.12-1.5h-2.16v7.08H98.51V80.35a24.7,24.7,0,0,1,3-.39Q103,79.84,104.19,79.84Zm.25,3.72c-.32,0-.6,0-.85,0l-.71.06v5.26h1.23a7.44,7.44,0,0,0,3.53-.62,2.23,2.23,0,0,0,1.06-2.1,2.14,2.14,0,0,0-1.08-2A6.67,6.67,0,0,0,104.44,83.57Z" fill="#21253f"/><path d="M124.14,89.22h8.12V93h-8.12Z" fill="#21253f"/><path d="M48.89,113.44A12,12,0,0,1,55.58,115a5.4,5.4,0,0,1,2.32,4.83,5.46,5.46,0,0,1-.94,3.32,6.18,6.18,0,0,1-2.7,2q.59.73,1.23,1.67t1.27,2q.63,1,1.22,2.13t1.09,2.17H54.2l-1.08-1.93q-.55-1-1.12-1.9t-1.14-1.75q-.56-.83-1.12-1.5H47.57v7.08H43.21V113.95a24.66,24.66,0,0,1,3-.39Q47.68,113.44,48.89,113.44Zm.25,3.72c-.32,0-.6,0-.85,0l-.71.06v5.26H48.8a7.43,7.43,0,0,0,3.53-.62,2.23,2.23,0,0,0,1.06-2.1,2.14,2.14,0,0,0-1.08-2A6.66,6.66,0,0,0,49.14,117.17Z" fill="#21253f"/><path d="M71.49,113.67h4.37v19.4H71.49Z" fill="#21253f"/><path d="M90,133.07v-19.4h13.1v3.67H94.32v3.81h7.76v3.58H94.32v4.68h9.38v3.67Z" fill="#21253f"/><path d="M122.21,113.44A12,12,0,0,1,128.9,115a5.4,5.4,0,0,1,2.32,4.83,5.46,5.46,0,0,1-.94,3.32,6.18,6.18,0,0,1-2.7,2q.59.73,1.23,1.67t1.27,2q.63,1,1.22,2.13t1.09,2.17h-4.88l-1.08-1.93q-.55-1-1.12-1.9t-1.14-1.75q-.56-.83-1.12-1.5H120.9v7.08h-4.37V113.95a24.66,24.66,0,0,1,3-.39Q121,113.44,122.21,113.44Zm.25,3.72c-.32,0-.6,0-.85,0l-.71.06v5.26h1.23a7.43,7.43,0,0,0,3.53-.62,2.23,2.23,0,0,0,1.06-2.1,2.14,2.14,0,0,0-1.08-2A6.66,6.66,0,0,0,122.46,117.17Z" fill="#21253f"/></g></g></svg>