<svg xmlns="http://www.w3.org/2000/svg" xmlns:xlink="http://www.w3.org/1999/xlink" viewBox="0 0 181.61 181.61"><defs><linearGradient id="Dégradé_sans_nom_12" x1="102.41" y1="139.16" x2="139.42" y2="114.04" gradientTransform="translate(167.51 317.58) rotate(-149.84)" gradientUnits="userSpaceOnUse"><stop offset="0" stop-color="#f8c477"/><stop offset="0.57" stop-color="#f09682"/><stop offset="1" stop-color="#da6e91"/></linearGradient><linearGradient id="linear-gradient" x1="65.29" y1="29.7" x2="161.97" y2="85.84" gradientTransform="translate(-11.13 32.02) rotate(-15.31)" gradientUnits="userSpaceOnUse"><stop offset="0" stop-color="#f8c477"/><stop offset="0.24" stop-color="#f09682"/><stop offset="0.51" stop-color="#da6e91"/><stop offset="0.76" stop-color="#a15d9a"/><stop offset="1" stop-color="#03579c"/></linearGradient><linearGradient id="Dégradé_sans_nom_18" x1="-165.58" y1="-466.03" x2="-72.98" y2="-412.27" gradientTransform="translate(-30.16 546.7) rotate(25.55)" gradientUnits="userSpaceOnUse"><stop offset="0" stop-color="#f09682"/><stop offset="0.48" stop-color="#da6e91"/><stop offset="1" stop-color="#03579c"/></linearGradient><radialGradient id="radial-gradient" cx="86.96" cy="85.68" r="62.51" gradientUnits="userSpaceOnUse"><stop offset="0" stop-color="#fff" stop-opacity="0.3"/><stop offset="1" stop-color="#fff" stop-opacity="0.8"/></radialGradient></defs><title>proposition final</title><g style="isolation:isolate"><g id="Calque_1" data-name="Calque 1"><path d="M135,139c4.84,1.27,21.74-4.34,18.27,8.14-1.45,5.21-6.47,13-19.09,9.38s-20.16,10.75-31.75-.73C94.88,148.28,97.07,129.09,135,139Z" fill="url(#Dégradé_sans_nom_12)"/><path d="M55.28,72c3.11-2.78-7.86-48.71,41-58.62,30.31-6.15,29,14.7,53.06,17.47,51.07,5.89,33.27,78.81-37.1,69.06S55.28,72,55.28,72Z" opacity="0.4" fill="url(#linear-gradient)" style="mix-blend-mode:multiply"/><path d="M70.17,50.12c34.89,20.47,2,45.67,11.42,65.79,18.74,40-21.41,66-59.4,22.68S20.17,20.79,70.17,50.12Z" fill="url(#Dégradé_sans_nom_18)" style="mix-blend-mode:multiply"/><path d="M136.32,135.79c-17.62,17.33-79.78,15.71-98.85,0s-15.53-79.63,0-98.85,81.38-17.48,98.85,0S153.94,118.47,136.32,135.79Z" fill="url(#radial-gradient)"/><text transform="translate(40.96 65.87)" font-size="28" fill="#21253f" font-family="Ubuntu-Bold, Ubuntu" font-weight="700"><tspan letter-spacing="0.2em">É</tspan><tspan x="22.65" y="0" letter-spacing="0.23em">L</tspan><tspan x="44.96" y="0" letter-spacing="0.2em">A</tspan><tspan x="70.83" y="0">N</tspan><tspan x="0" y="33.6" letter-spacing="0.32em">VE</tspan><tspan x="55.3" y="33.6" letter-spacing="0.3em">R</tspan><tspan x="82.48" y="33.6">-</tspan><tspan x="0" y="67.2" letter-spacing="0.34em">RIE</tspan><tspan x="73.32" y="67.2">R</tspan></text></g></g></svg>