<svg id="main-telephone" xmlns="http://www.w3.org/2000/svg" viewBox="0 0 469 665.14" style=""><title>main - téléphone</title><path d="M359.07,385.77c-4.22,4.47-10.5,8-19.87,8.82-32.67,2.7-138.44,6.15-138.44,6.15s-25.82,2.11-27.93-36.37c-.25-4.65-.53-13.72-1.05-24.07" transform="translate(-122.4 -26.09)" fill="none" stroke="#203c83" stroke-linecap="round" stroke-miterlimit="10" stroke-width="3" class="qudhlcbK_0"></path><path d="M169.54,299c-4-80.48-10-204.9-11.22-231.16a38.53,38.53,0,0,1,3-17.21c3.18-7.3,9.42-15.16,21.56-15.16l148.1-7.91s23.19,1.05,23.72,26.35c.42,20.2,8.45,205.4,11.67,279.3" transform="translate(-122.4 -26.09)" fill="none" stroke="#203c83" stroke-linecap="round" stroke-miterlimit="10" stroke-width="3" class="qudhlcbK_1"></path><path d="M182.85,47.62l148.1-7.91s8.34-.35,8.43,7c0,4.05,13.13,278.66,14.17,300a4.65,4.65,0,0,1-1.95,4.1c-1.3.88-3.43,1.69-6.95,1.94-10.57.74-153.89,8.43-153.89,8.43s-5.8.79-6.24-6.15c-.9-14.21-12.74-298.48-12.74-298.48S170.37,48.14,182.85,47.62Z" transform="translate(-122.4 -26.09)" fill="none" stroke="#203c81" stroke-linecap="round" stroke-miterlimit="10" stroke-width="3" class="qudhlcbK_2"></path><path fill="none" stroke="#203c83" stroke-linecap="round" stroke-miterlimit="10" stroke-width="3" d="M139.33,351.45A13.53,13.35 0,1,1 166.39000000000001,351.45A13.53,13.35 0,1,1 139.33,351.45" class="qudhlcbK_3"></path><path d="M144.5,317.57s8.45-5.22,11.31-1.9,14.92,21.73,9.07,25.29-18.27-17.69-20.39-23.39" transform="translate(-122.4 -26.09)" fill="none" stroke="#203c83" stroke-linecap="round" stroke-miterlimit="10" stroke-width="3" class="qudhlcbK_4"></path><path d="M589.9,641.94s-57.62-114.54-62.54-128.6-12.65-45-19-84.33-30.22-115.25-49.19-142.65-21.33-38.22-24.95-47.43c-3.86-9.84-14.41-26.35-26.7-40.41s-14.05-44.62-14.05-44.62S391,120.17,379.78,124s-20.73,18.27-20.38,33.38,1.05,35.14,1.05,35.14.7,16.16,2.81,20.38S384,256.5,386.11,263.88s4.57,26,3.16,37.24" transform="translate(-122.4 -26.09)" fill="none" stroke="#203c83" stroke-linecap="round" stroke-miterlimit="10" stroke-width="3" class="qudhlcbK_5"></path><path d="M362.57,255.27s23.72,19.68,25.65,22.66" transform="translate(-122.4 -26.09)" fill="none" stroke="#203c83" stroke-linecap="round" stroke-miterlimit="10" stroke-width="3" class="qudhlcbK_6"></path><path d="M397,300.95s14.76,8.26,17.92,11.77,11.24,7.91,12.82,7.91" transform="translate(-122.4 -26.09)" fill="none" stroke="#203c83" stroke-linecap="round" stroke-miterlimit="10" stroke-width="2" class="qudhlcbK_7"></path><path d="M394.19,319.74s27.41,29.34,50.95,41.28" transform="translate(-122.4 -26.09)" fill="none" stroke="#203c83" stroke-linecap="round" stroke-miterlimit="10" stroke-width="2" class="qudhlcbK_8"></path><path d="M369.77,276.53S365,285.84,365,289.88" transform="translate(-122.4 -26.09)" fill="none" stroke="#203c83" stroke-linecap="round" stroke-miterlimit="10" stroke-width="2" class="qudhlcbK_9"></path><path d="M378.2,285.66s-5.62,3-7.2,6.32-5.27,15.11-5.45,15.81" transform="translate(-122.4 -26.09)" fill="none" stroke="#203c83" stroke-linecap="round" stroke-miterlimit="10" stroke-width="2" class="qudhlcbK_10"></path><path d="M379.26,299.72s-19,38.48-19.68,71.33c-.44,21.61.53,28.64.53,28.64" transform="translate(-122.4 -26.09)" fill="none" stroke="#203c83" stroke-linecap="round" stroke-miterlimit="10" stroke-width="3" class="qudhlcbK_11"></path><path d="M384.7,442.37s30.22,38.65,50.24,54.81" transform="translate(-122.4 -26.09)" fill="none" stroke="#203c83" stroke-linecap="round" stroke-miterlimit="10" stroke-width="2" class="qudhlcbK_12"></path><path d="M324.71,411.19s6.85-14.05,10.37-16.16" transform="translate(-122.4 -26.09)" fill="none" stroke="#203c83" stroke-linecap="round" stroke-miterlimit="10" stroke-width="2" class="qudhlcbK_13"></path><path d="M315.84,411s3.16-13.35,7-15.37" transform="translate(-122.4 -26.09)" fill="none" stroke="#203c83" stroke-linecap="round" stroke-miterlimit="10" stroke-width="2" class="qudhlcbK_14"></path><path d="M296.34,411.45s2.2-14.32,4.74-14.76" transform="translate(-122.4 -26.09)" fill="none" stroke="#203c83" stroke-linecap="round" stroke-miterlimit="10" stroke-width="2" class="qudhlcbK_15"></path><path d="M164.93,211.53s-22.4-4.74-30.83,0-12.12,12.39-9.22,21.08,11.86,13.18,24,14.23,17.66.53,17.66.53" transform="translate(-122.4 -26.09)" fill="none" stroke="#203c83" stroke-linecap="round" stroke-miterlimit="10" stroke-width="3" class="qudhlcbK_16"></path><path d="M160.71,293s18.23,8.26,17.39,28.11c-.79,18.62-7.12,19.68-8.7,20-3.3.73-10,3.69-21.52-16.69s-13.7-31.8-9-36.54,20.2-11.42,28.64-14.41" transform="translate(-122.4 -26.09)" fill="none" stroke="#203c83" stroke-linecap="round" stroke-miterlimit="10" stroke-width="3" class="qudhlcbK_17"></path><path d="M185.48,396.17s-39.35,21.43-44.62,23.89-12.47,12.65-6.5,19,19.32,11.59,42.16-.7,33.55-19.15,39.53-20.55,56.57-3.86,68.16-10.37c4.92,8.08,56.92,82,59,89.77s39.35,62.54,68.16,89.25,52.7,103.3,52.7,103.3" transform="translate(-122.4 -26.09)" fill="none" stroke="#203c83" stroke-linecap="round" stroke-miterlimit="10" stroke-width="3" class="qudhlcbK_18"></path><path d="M207.09,400.47s6.59,8.7,7.64,9.49" transform="translate(-122.4 -26.09)" fill="none" stroke="#203c83" stroke-linecap="round" stroke-miterlimit="10" stroke-width="2" class="qudhlcbK_19"></path><path d="M217.1,417.6s7.91-5,5-7.12-6.59-5.27-6.59-5.27" transform="translate(-122.4 -26.09)" fill="none" stroke="#203c83" stroke-linecap="round" stroke-miterlimit="10" stroke-width="2" class="qudhlcbK_20"></path><path d="M281.93,407.85a17,17,0,0,0,3.16-10" transform="translate(-122.4 -26.09)" fill="none" stroke="#203c83" stroke-linecap="round" stroke-miterlimit="10" stroke-width="3" class="qudhlcbK_21"></path><path d="M409.47,215.57a35,35,0,0,0,9.84-2.28" transform="translate(-122.4 -26.09)" fill="none" stroke="#203c83" stroke-linecap="round" stroke-miterlimit="10" stroke-width="2" class="qudhlcbK_22"></path><path d="M406.13,224.88s7.55.53,9.84-.88" transform="translate(-122.4 -26.09)" fill="none" stroke="#203c83" stroke-linecap="round" stroke-miterlimit="10" stroke-width="2" class="qudhlcbK_23"></path><path d="M394.72,166.55s-10.89,3.16-13-1.76-2.81-32.68,1.58-37.07c0,0,2.11-2.81,3.25-1.67s5.45,12.47,6,19.68S394.72,166.55,394.72,166.55Z" transform="translate(-122.4 -26.09)" fill="none" stroke="#203c83" stroke-linecap="round" stroke-miterlimit="10" stroke-width="3" class="qudhlcbK_24"></path><style data-made-with="vivus-instant">.qudhlcbK_0{stroke-dasharray:237 239;stroke-dashoffset:238;animation:qudhlcbK_draw 2000ms linear 0ms forwards;}.qudhlcbK_1{stroke-dasharray:745 747;stroke-dashoffset:746;animation:qudhlcbK_draw 2000ms linear 41ms forwards;}.qudhlcbK_2{stroke-dasharray:953 955;stroke-dashoffset:954;animation:qudhlcbK_draw 2000ms linear 83ms forwards;}.qudhlcbK_3{stroke-dasharray:85 87;stroke-dashoffset:86;animation:qudhlcbK_draw 2000ms linear 125ms forwards;}.qudhlcbK_4{stroke-dasharray:74 76;stroke-dashoffset:75;animation:qudhlcbK_draw 2000ms linear 166ms forwards;}.qudhlcbK_5{stroke-dasharray:758 760;stroke-dashoffset:759;animation:qudhlcbK_draw 2000ms linear 208ms forwards;}.qudhlcbK_6{stroke-dasharray:35 37;stroke-dashoffset:36;animation:qudhlcbK_draw 2000ms linear 250ms forwards;}.qudhlcbK_7{stroke-dasharray:37 39;stroke-dashoffset:38;animation:qudhlcbK_draw 2000ms linear 291ms forwards;}.qudhlcbK_8{stroke-dasharray:66 68;stroke-dashoffset:67;animation:qudhlcbK_draw 2000ms linear 333ms forwards;}.qudhlcbK_9{stroke-dasharray:15 17;stroke-dashoffset:16;animation:qudhlcbK_draw 2000ms linear 375ms forwards;}.qudhlcbK_10{stroke-dasharray:27 29;stroke-dashoffset:28;animation:qudhlcbK_draw 2000ms linear 416ms forwards;}.qudhlcbK_11{stroke-dasharray:104 106;stroke-dashoffset:105;animation:qudhlcbK_draw 2000ms linear 458ms forwards;}.qudhlcbK_12{stroke-dasharray:75 77;stroke-dashoffset:76;animation:qudhlcbK_draw 2000ms linear 500ms forwards;}.qudhlcbK_13{stroke-dasharray:20 22;stroke-dashoffset:21;animation:qudhlcbK_draw 2000ms linear 541ms forwards;}.qudhlcbK_14{stroke-dasharray:18 20;stroke-dashoffset:19;animation:qudhlcbK_draw 2000ms linear 583ms forwards;}.qudhlcbK_15{stroke-dasharray:16 18;stroke-dashoffset:17;animation:qudhlcbK_draw 2000ms linear 625ms forwards;}.qudhlcbK_16{stroke-dasharray:104 106;stroke-dashoffset:105;animation:qudhlcbK_draw 2000ms linear 666ms forwards;}.qudhlcbK_17{stroke-dasharray:160 162;stroke-dashoffset:161;animation:qudhlcbK_draw 2000ms linear 708ms forwards;}.qudhlcbK_18{stroke-dasharray:570 572;stroke-dashoffset:571;animation:qudhlcbK_draw 2000ms linear 750ms forwards;}.qudhlcbK_19{stroke-dasharray:13 15;stroke-dashoffset:14;animation:qudhlcbK_draw 2000ms linear 791ms forwards;}.qudhlcbK_20{stroke-dasharray:19 21;stroke-dashoffset:20;animation:qudhlcbK_draw 2000ms linear 833ms forwards;}.qudhlcbK_21{stroke-dasharray:11 13;stroke-dashoffset:12;animation:qudhlcbK_draw 2000ms linear 875ms forwards;}.qudhlcbK_22{stroke-dasharray:11 13;stroke-dashoffset:12;animation:qudhlcbK_draw 2000ms linear 916ms forwards;}.qudhlcbK_23{stroke-dasharray:10 12;stroke-dashoffset:11;animation:qudhlcbK_draw 2000ms linear 958ms forwards;}.qudhlcbK_24{stroke-dasharray:98 100;stroke-dashoffset:99;animation:qudhlcbK_draw 2000ms linear 1000ms forwards;}@keyframes qudhlcbK_draw{100%{stroke-dashoffset:0;}}@keyframes qudhlcbK_fade{0%{stroke-opacity:1;}94.44444444444444%{stroke-opacity:1;}100%{stroke-opacity:0;}}</style></svg>