<svg id="Calque_1" data-name="Calque 1" xmlns="http://www.w3.org/2000/svg" xmlns:xlink="http://www.w3.org/1999/xlink" viewBox="0 0 124.9 124.95"><defs><radialGradient id="Dégradé_sans_nom_4" cx="86.98" cy="497.71" r="62.46" gradientTransform="translate(0 -412)" gradientUnits="userSpaceOnUse"><stop offset="0" stop-color="#fff" stop-opacity="0.3"/><stop offset="1" stop-color="#fff" stop-opacity="0.8"/></radialGradient></defs><title>proposition final-typo</title><g id="verre"><path d="M136.3,135.8c-17.6,17.3-79.8,15.7-98.8,0S22,56.2,37.5,37s81.4-17.5,98.8,0S153.9,118.5,136.3,135.8Z" transform="translate(-24.53 -23.23)" fill="url(#Dégradé_sans_nom_4)"/></g><g id="typo"><g id="Calque_1-2" data-name="Calque 1"><path d="M43.2,65.9V46.5H56.3v3.7H47.6V54h7.8v3.6H47.6v4.7H57V66H43.2ZM53.3,41.4l-4.6,3.9-1.9-1.7,4-4.5Z" transform="translate(-24.53 -23.23)" fill="#21253f"/><path d="M78.8,62.1v3.7h-13V46.5h4.4V62.1Z" transform="translate(-24.53 -23.23)" fill="#21253f"/><path d="M101.2,65.9a17.23,17.23,0,0,0-.7-2.1l-.7-2.1H92.2l-.7,2.1c-.2.7-.5,1.4-.7,2.1H86.3c.7-2.1,1.4-4,2.1-5.8s1.3-3.4,1.9-5,1.2-3.1,1.8-4.5,1.3-2.8,1.9-4.1h4.1c.7,1.3,1.3,2.7,1.9,4.1s1.2,2.9,1.9,4.5,1.3,3.2,1.9,5,1.4,3.7,2.1,5.8Zm-5.3-15c-.1.3-.2.7-.4,1.2l-.6,1.7c-.2.6-.5,1.3-.8,2.1l-.9,2.4h5.6l-.9-2.4c-.3-.8-.5-1.5-.8-2.1L96.4,52a3.83,3.83,0,0,0-.5-1.1Z" transform="translate(-24.53 -23.23)" fill="#21253f"/><path d="M127.1,65.9c-1.2-2.2-2.6-4.4-4.1-6.6a55,55,0,0,0-4.7-6.1V65.9H114V46.5h3.6a25.4,25.4,0,0,1,2,2.3c.7.9,1.5,1.9,2.3,2.9s1.5,2.1,2.3,3.2,1.5,2.1,2.2,3.2V46.5h4.3V65.9Z" transform="translate(-24.53 -23.23)" fill="#21253f"/><path d="M49,99.5c-.8-1.6-1.5-3.3-2.3-5.1s-1.5-3.5-2.1-5.2-1.3-3.4-1.9-4.9-1.1-3-1.5-4.2H46q.6,1.65,1.2,3.6c.4,1.3.9,2.6,1.4,3.9L50,91.3c.4,1.2.8,2.2,1.2,3.1q.6-1.35,1.2-3c.4-1.1.9-2.4,1.3-3.7s.9-2.6,1.4-3.9a37.88,37.88,0,0,0,1.2-3.6H61q-.6,1.8-1.5,4.2c-.6,1.6-1.2,3.2-1.9,4.9s-1.4,3.5-2.1,5.2-1.5,3.4-2.3,5.1Z" transform="translate(-24.53 -23.23)" fill="#21253f"/><path d="M72.5,99.5V80.1H85.6v3.7H76.9v3.8h7.8v3.6H76.9v4.7h9.4v3.7H72.5Z" transform="translate(-24.53 -23.23)" fill="#21253f"/><path d="M104.2,79.8a12.11,12.11,0,0,1,6.7,1.6,5.17,5.17,0,0,1,2.3,4.8,5.49,5.49,0,0,1-.9,3.3,6,6,0,0,1-2.7,2,12.49,12.49,0,0,1,1.2,1.7c.4.7.9,1.3,1.3,2l1.2,2.1c.4.8.8,1.5,1.1,2.2h-4.9l-1.1-1.9c-.4-.7-.7-1.3-1.1-1.9a17.39,17.39,0,0,1-1.1-1.8,9.73,9.73,0,0,0-1.1-1.5h-2.2v7.1H98.5V80.3c1-.2,2-.3,3-.4S103.4,79.8,104.2,79.8Zm.2,3.8h-.8l-.7.1V89h1.2a7,7,0,0,0,3.5-.6,2.48,2.48,0,0,0,1.1-2.1,2.11,2.11,0,0,0-1.1-2,5.2,5.2,0,0,0-3.2-.7Z" transform="translate(-24.53 -23.23)" fill="#21253f"/><path d="M124.1,89.2h8.1V93h-8.1Z" transform="translate(-24.53 -23.23)" fill="#21253f"/><path d="M48.9,113.4a12.11,12.11,0,0,1,6.7,1.6,5.17,5.17,0,0,1,2.3,4.8,5.49,5.49,0,0,1-.9,3.3,6,6,0,0,1-2.7,2,12.49,12.49,0,0,1,1.2,1.7,22.63,22.63,0,0,0,1.3,2l1.2,2.1a22.56,22.56,0,0,1,1.1,2.2H54.2l-1.1-1.9c-.4-.7-.7-1.3-1.1-1.9a17.39,17.39,0,0,1-1.1-1.8,9.73,9.73,0,0,0-1.1-1.5H47.6v7.1H43.2V113.9c1-.2,2-.3,3-.4S48.1,113.4,48.9,113.4Zm.2,3.8h-.8l-.7.1v5.3h1.2a7,7,0,0,0,3.5-.6,2.48,2.48,0,0,0,1.1-2.1,2.11,2.11,0,0,0-1.1-2,5.2,5.2,0,0,0-3.2-.7Z" transform="translate(-24.53 -23.23)" fill="#21253f"/><path d="M71.5,113.7h4.4v19.4H71.5Z" transform="translate(-24.53 -23.23)" fill="#21253f"/><path d="M90,133.1V113.7h13.1v3.7H94.3v3.8h7.8v3.6H94.3v4.7h9.4v3.7Z" transform="translate(-24.53 -23.23)" fill="#21253f"/><path d="M122.2,113.4a12.11,12.11,0,0,1,6.7,1.6,5.17,5.17,0,0,1,2.3,4.8,5.49,5.49,0,0,1-.9,3.3,6,6,0,0,1-2.7,2,12.49,12.49,0,0,1,1.2,1.7,22.63,22.63,0,0,0,1.3,2l1.2,2.1c.4.8.8,1.5,1.1,2.2h-4.9l-1.1-1.9c-.4-.7-.7-1.3-1.1-1.9a17.39,17.39,0,0,1-1.1-1.8,9.73,9.73,0,0,0-1.1-1.5H121v7.1h-4.4V113.9c1-.2,2-.3,3-.4S121.4,113.4,122.2,113.4Zm.3,3.8h-.8l-.7.1v5.3h1.2a7,7,0,0,0,3.5-.6,2.48,2.48,0,0,0,1.1-2.1,2.11,2.11,0,0,0-1.1-2,5.35,5.35,0,0,0-3.2-.7Z" transform="translate(-24.53 -23.23)" fill="#21253f"/></g></g></svg>