<?xml version="1.0" encoding="utf-8"?>
<!-- Generator: Adobe Illustrator 22.0.0, SVG Export Plug-In . SVG Version: 6.00 Build 0)  -->
<svg version="1.1" id="Calque_1" xmlns="http://www.w3.org/2000/svg" xmlns:xlink="http://www.w3.org/1999/xlink" x="0px" y="0px"
	 viewBox="0 0 292 292" style="enable-background:new 0 0 292 292;" xml:space="preserve">
<style type="text/css">
	.st0{opacity:0.4;fill:url(#SVGID_1_);}
	.st1{fill:url(#SVGID_2_);}
	.st2{fill:url(#SVGID_3_);}
	.st3{fill:url(#SVGID_4_);}
	.st4{fill:url(#SVGID_5_);}
	.st5{opacity:0.4;fill:url(#SVGID_6_);}
	.st6{fill:url(#SVGID_7_);}
	.st7{fill:#2D2D2D;}
</style>
<linearGradient id="SVGID_1_" gradientUnits="userSpaceOnUse" x1="132.5625" y1="65.9644" x2="253.3622" y2="136.1065">
	<stop  offset="0" style="stop-color:#F7C478"/>
	<stop  offset="0.2379" style="stop-color:#EF9581"/>
	<stop  offset="0.5075" style="stop-color:#D96E90"/>
	<stop  offset="0.759" style="stop-color:#A15D9A"/>
	<stop  offset="1" style="stop-color:#03579B"/>
</linearGradient>
<path class="st0" d="M117.8,100.2c4.7-2.3,7-65.5,69-57.3c62,8.2,27.1,32.3,58.4,38.7c63.1,12.9,14.1,106.3-67.7,71.2
	C95.6,117.8,117.8,100.2,117.8,100.2z"/>
<linearGradient id="SVGID_2_" gradientUnits="userSpaceOnUse" x1="25.5197" y1="69.4892" x2="157.7915" y2="146.2925" gradientTransform="matrix(0.9022 0.4313 -0.4313 0.9022 47.5175 31.2504)">
	<stop  offset="0" style="stop-color:#F7C478"/>
	<stop  offset="0.2379" style="stop-color:#EF9581"/>
	<stop  offset="0.5075" style="stop-color:#D96E90"/>
	<stop  offset="0.759" style="stop-color:#A15D9A"/>
	<stop  offset="1" style="stop-color:#03579B"/>
</linearGradient>
<path class="st1" d="M107.9,90.9c52.4,34.1-2.7,78,22.8,97.2c51.4,38.8-33.1,102-91.8,35C-19.8,156.2,55.6,56.7,107.9,90.9z"/>
<linearGradient id="SVGID_3_" gradientUnits="userSpaceOnUse" x1="264.3389" y1="28.7382" x2="247.973" y2="46.6635">
	<stop  offset="0" style="stop-color:#F7C478"/>
	<stop  offset="0.2379" style="stop-color:#EF9581"/>
	<stop  offset="0.5075" style="stop-color:#D96E90"/>
	<stop  offset="0.759" style="stop-color:#A15D9A"/>
	<stop  offset="1" style="stop-color:#03579B"/>
</linearGradient>
<path class="st2" d="M249.3,50.5c-3.7,5-10.9,3.4-8.3-11.5c2.6-14.9,26.2-14.6,24.9,1.6C264.7,56.7,252.2,46.6,249.3,50.5z"/>
<linearGradient id="SVGID_4_" gradientUnits="userSpaceOnUse" x1="82.3711" y1="50.5338" x2="126.0144" y2="20.9188">
	<stop  offset="0" style="stop-color:#F7C478"/>
	<stop  offset="0.2379" style="stop-color:#EF9581"/>
	<stop  offset="0.5075" style="stop-color:#D96E90"/>
	<stop  offset="0.759" style="stop-color:#A15D9A"/>
	<stop  offset="1" style="stop-color:#03579B"/>
</linearGradient>
<path class="st3" d="M100.5,49.3c-5.7,1.6-19.6,17.3-23.4,2.5C75.5,45.6,76,34.7,91,30.9c15-3.7,14.2-22.9,32.8-18.1
	C136,16,145.1,36.9,100.5,49.3z"/>
<linearGradient id="SVGID_5_" gradientUnits="userSpaceOnUse" x1="216.4326" y1="250.9017" x2="175.2264" y2="181.3673">
	<stop  offset="0" style="stop-color:#F7C478"/>
	<stop  offset="0.2379" style="stop-color:#EF9581"/>
	<stop  offset="0.5075" style="stop-color:#D96E90"/>
	<stop  offset="0.759" style="stop-color:#A15D9A"/>
	<stop  offset="1" style="stop-color:#03579B"/>
</linearGradient>
<path class="st4" d="M179.7,247.4c0-9.3,13.3-22.7,1.9-37.1c-11.3-14.4,30.4-28.3,38.1-15.4c7.7,12.9,27.3,40.5-6.2,61.1
	C192.3,269.1,179.6,256.2,179.7,247.4z"/>
<linearGradient id="SVGID_6_" gradientUnits="userSpaceOnUse" x1="13.7479" y1="33.304" x2="4.4701" y2="17.6479" gradientTransform="matrix(-0.3121 0.9501 -0.9501 -0.3121 115.8041 269.8804)">
	<stop  offset="0" style="stop-color:#F7C478"/>
	<stop  offset="0.2379" style="stop-color:#EF9581"/>
	<stop  offset="0.5075" style="stop-color:#D96E90"/>
	<stop  offset="0.759" style="stop-color:#A15D9A"/>
	<stop  offset="1" style="stop-color:#03579B"/>
</linearGradient>
<path class="st5" d="M91.6,263.7c3.8,3.8-0.3,14.1-5.2,15.7c-4.9,1.6-10.3-10.1-6.4-13.6C83.9,262.4,89.5,261.7,91.6,263.7z"/>
<radialGradient id="SVGID_7_" cx="134.3954" cy="138.8063" r="96.5948" gradientUnits="userSpaceOnUse">
	<stop  offset="0" style="stop-color:#FFFFFF;stop-opacity:0.3"/>
	<stop  offset="1" style="stop-color:#FFFFFF;stop-opacity:0.8"/>
</radialGradient>
<path class="st6" d="M210.7,216.2c-27.2,26.8-123.3,24.3-152.8,0c-29.5-24.3-24-123,0-152.8c24-29.7,125.7-27,152.8,0
	C237.7,90.5,237.9,189.5,210.7,216.2z"/>
<g>
	<path class="st7" d="M66.8,108.2v-30H87v5.7H73.5v5.9h12v5.5h-12v7.2H88v5.7H66.8z M82.4,70.3l-7.1,6l-3-2.6l6.1-7L82.4,70.3z"/>
	<path class="st7" d="M121.8,102.4v5.8h-20v-30h6.7v24.2H121.8z"/>
	<path class="st7" d="M156.4,108.2c-0.3-1-0.7-2.1-1.1-3.2c-0.4-1.1-0.8-2.2-1.1-3.3h-11.7c-0.4,1.1-0.8,2.2-1.1,3.3
		c-0.4,1.1-0.7,2.2-1.1,3.2h-7c1.1-3.2,2.2-6.2,3.2-9c1-2.7,2-5.3,3-7.7c1-2.4,1.9-4.7,2.9-6.9c0.9-2.2,1.9-4.3,2.9-6.4h6.4
		c1,2.1,2,4.2,2.9,6.4c1,2.2,1.9,4.5,2.9,6.9c1,2.4,2,5,3,7.7c1,2.7,2.1,5.7,3.2,9H156.4z M148.3,85c-0.1,0.4-0.4,1-0.7,1.8
		c-0.3,0.7-0.6,1.6-1,2.6c-0.4,1-0.8,2.1-1.2,3.2c-0.5,1.2-0.9,2.4-1.4,3.7h8.6c-0.5-1.3-0.9-2.5-1.3-3.7c-0.4-1.2-0.8-2.3-1.2-3.3
		c-0.4-1-0.7-1.8-1-2.6C148.7,86,148.4,85.4,148.3,85z"/>
	<path class="st7" d="M196.3,108.2c-1.9-3.4-4-6.8-6.3-10.2c-2.2-3.3-4.6-6.5-7.2-9.5v19.6h-6.7v-30h5.5c1,1,2,2.1,3.2,3.5
		c1.2,1.4,2.3,2.9,3.5,4.4c1.2,1.6,2.4,3.2,3.6,4.9c1.2,1.7,2.3,3.3,3.3,4.9V78.2h6.7v30H196.3z"/>
	<path class="st7" d="M75.7,160.1c-1.2-2.5-2.4-5.1-3.5-7.8c-1.2-2.7-2.3-5.4-3.3-8c-1-2.6-2-5.2-2.9-7.6c-0.9-2.4-1.6-4.6-2.3-6.5
		h7.4c0.6,1.7,1.2,3.6,1.9,5.6c0.7,2,1.4,4,2.1,6c0.7,2,1.4,3.9,2,5.7c0.7,1.8,1.3,3.4,1.9,4.7c0.6-1.3,1.2-2.9,1.8-4.7
		c0.7-1.8,1.4-3.7,2.1-5.7c0.7-2,1.4-4,2.1-6c0.7-2,1.3-3.9,1.9-5.6h7.2c-0.7,1.9-1.4,4.1-2.3,6.5c-0.9,2.4-1.8,5-2.9,7.6
		c-1,2.7-2.1,5.3-3.3,8c-1.2,2.7-2.3,5.3-3.5,7.8H75.7z"/>
	<path class="st7" d="M112,160.1v-30h20.2v5.7h-13.5v5.9h12v5.5h-12v7.2h14.5v5.7H112z"/>
	<path class="st7" d="M161,129.8c4.5,0,7.9,0.8,10.3,2.4c2.4,1.6,3.6,4.1,3.6,7.5c0,2.1-0.5,3.8-1.5,5.1c-1,1.3-2.4,2.3-4.2,3.1
		c0.6,0.8,1.2,1.6,1.9,2.6c0.7,1,1.3,2,2,3s1.3,2.1,1.9,3.3c0.6,1.1,1.2,2.3,1.7,3.4h-7.5c-0.6-1-1.1-2-1.7-3c-0.6-1-1.1-2-1.7-2.9
		c-0.6-1-1.2-1.9-1.8-2.7c-0.6-0.9-1.2-1.6-1.7-2.3H159v10.9h-6.7v-29.6c1.5-0.3,3-0.5,4.6-0.6C158.4,129.8,159.8,129.8,161,129.8z
		 M161.4,135.5c-0.5,0-0.9,0-1.3,0c-0.4,0-0.8,0.1-1.1,0.1v8.1h1.9c2.5,0,4.4-0.3,5.5-1c1.1-0.6,1.6-1.7,1.6-3.2
		c0-1.5-0.6-2.5-1.7-3.1C165.2,135.9,163.6,135.5,161.4,135.5z"/>
	<path class="st7" d="M191.8,144.3h12.5v5.8h-12.5V144.3z"/>
	<path class="st7" d="M75.6,181.7c4.5,0,7.9,0.8,10.3,2.4c2.4,1.6,3.6,4.1,3.6,7.5c0,2.1-0.5,3.8-1.4,5.1c-1,1.3-2.4,2.3-4.2,3.1
		c0.6,0.8,1.2,1.6,1.9,2.6c0.7,1,1.3,2,2,3c0.6,1.1,1.3,2.1,1.9,3.3s1.2,2.3,1.7,3.4h-7.5c-0.5-1-1.1-2-1.7-3c-0.6-1-1.1-2-1.7-2.9
		c-0.6-1-1.2-1.9-1.8-2.7c-0.6-0.9-1.2-1.6-1.7-2.3h-3.3V212h-6.7v-29.6c1.5-0.3,3-0.5,4.6-0.6C72.9,181.8,74.3,181.7,75.6,181.7z
		 M75.9,187.5c-0.5,0-0.9,0-1.3,0c-0.4,0-0.8,0.1-1.1,0.1v8.1h1.9c2.5,0,4.4-0.3,5.5-1c1.1-0.6,1.6-1.7,1.6-3.2
		c0-1.5-0.6-2.5-1.7-3.1C79.7,187.8,78.1,187.5,75.9,187.5z"/>
	<path class="st7" d="M110.5,182.1h6.7v30h-6.7V182.1z"/>
	<path class="st7" d="M139,212v-30h20.2v5.7h-13.5v5.9h12v5.5h-12v7.2h14.5v5.7H139z"/>
	<path class="st7" d="M188.9,181.7c4.5,0,7.9,0.8,10.3,2.4c2.4,1.6,3.6,4.1,3.6,7.5c0,2.1-0.5,3.8-1.4,5.1c-1,1.3-2.4,2.3-4.2,3.1
		c0.6,0.8,1.2,1.6,1.9,2.6c0.7,1,1.3,2,2,3c0.6,1.1,1.3,2.1,1.9,3.3s1.2,2.3,1.7,3.4h-7.5c-0.5-1-1.1-2-1.7-3c-0.6-1-1.1-2-1.7-2.9
		c-0.6-1-1.2-1.9-1.8-2.7c-0.6-0.9-1.2-1.6-1.7-2.3h-3.3V212h-6.7v-29.6c1.5-0.3,3-0.5,4.6-0.6C186.2,181.8,187.6,181.7,188.9,181.7
		z M189.3,187.5c-0.5,0-0.9,0-1.3,0c-0.4,0-0.8,0.1-1.1,0.1v8.1h1.9c2.5,0,4.4-0.3,5.5-1c1.1-0.6,1.6-1.7,1.6-3.2
		c0-1.5-0.6-2.5-1.7-3.1C193.1,187.8,191.4,187.5,189.3,187.5z"/>
</g>
</svg>
